<svg width="25" height="24" viewBox="0 0 25 24" fill="none" xmlns="http://www.w3.org/2000/svg">
<path d="M18.996 22.9218C17.7033 24.1749 16.2919 23.977 14.9332 23.3834C13.4954 22.7766 12.1763 22.7503 10.6593 23.3834C8.75978 24.2013 7.75726 23.9638 6.62283 22.9218C0.185616 16.2867 1.13537 6.18235 8.44319 5.813C10.224 5.90534 11.4639 6.78913 12.506 6.86828C14.0626 6.5517 15.5532 5.64152 17.2152 5.76024C19.2071 5.91853 20.7108 6.70999 21.7002 8.13462C17.5846 10.6013 18.5607 16.0229 22.3333 17.5398C21.5814 19.5185 20.6053 21.4839 18.9828 22.9349L18.996 22.9218ZM12.3741 5.73385C12.1763 2.79226 14.5638 0.365109 17.3076 0.12767C17.6901 3.53095 14.2209 6.06363 12.3741 5.73385Z" fill="white" fill-opacity="0.87"/>
</svg>
