<svg width="25" height="24" viewBox="0 0 25 24" fill="none" xmlns="http://www.w3.org/2000/svg">
<path fill-rule="evenodd" clip-rule="evenodd" d="M21.2508 21.9397H13.9978C13.5838 21.9397 13.2478 21.6037 13.2478 21.1897C13.2478 20.7757 13.5838 20.4397 13.9978 20.4397H21.2508C21.6648 20.4397 22.0008 20.7757 22.0008 21.1897C22.0008 21.6037 21.6648 21.9397 21.2508 21.9397Z" fill="#121212"/>
<mask id="mask0_1621_8590" style="mask-type:luminance" maskUnits="userSpaceOnUse" x="2" y="3" width="18" height="19">
<path fill-rule="evenodd" clip-rule="evenodd" d="M2.50034 3.00015H19.6809V21.9397H2.50034V3.00015Z" fill="white"/>
</mask>
<g mask="url(#mask0_1621_8590)">
<path fill-rule="evenodd" clip-rule="evenodd" d="M13.6106 5.0168L4.19561 16.7918C4.02461 17.0058 3.96161 17.2818 4.02461 17.5468L4.70561 20.4318L7.74461 20.3938C8.03361 20.3908 8.30061 20.2618 8.47761 20.0418C11.6946 16.0168 17.8276 8.3428 18.0016 8.1178C18.1656 7.8518 18.2296 7.4758 18.1436 7.1138C18.0556 6.7428 17.8246 6.4278 17.4916 6.2268C17.4206 6.1778 15.7356 4.8698 15.6836 4.8288C15.0496 4.3208 14.1246 4.4088 13.6106 5.0168ZM4.11361 21.9398C3.76661 21.9398 3.46461 21.7018 3.38361 21.3628L2.56461 17.8918C2.39561 17.1728 2.56361 16.4308 3.02461 15.8548L12.4446 4.0728C12.4486 4.0688 12.4516 4.0638 12.4556 4.0598C13.4886 2.8248 15.3566 2.6428 16.6166 3.6538C16.6666 3.6928 18.3396 4.9928 18.3396 4.9928C18.9476 5.3548 19.4226 6.0018 19.6026 6.7678C19.7816 7.5258 19.6516 8.3078 19.2346 8.9688C19.2036 9.0178 19.1766 9.0598 9.64861 20.9798C9.18961 21.5518 8.50161 21.8848 7.76261 21.8938L4.12361 21.9398H4.11361Z" fill="#121212"/>
</g>
<path fill-rule="evenodd" clip-rule="evenodd" d="M16.7234 11.6848C16.5634 11.6848 16.4034 11.6338 16.2664 11.5298L10.8144 7.34181C10.4864 7.08981 10.4244 6.61981 10.6764 6.28981C10.9294 5.96181 11.3994 5.90081 11.7284 6.15281L17.1814 10.3398C17.5094 10.5918 17.5714 11.0628 17.3184 11.3918C17.1714 11.5838 16.9484 11.6848 16.7234 11.6848Z" fill="#121212"/>
</svg>
