<svg width="24" height="24" viewBox="0 0 24 24" fill="none" xmlns="http://www.w3.org/2000/svg">
<path d="M8.55082 1.60221C6.28075 2.37377 4.32306 3.83821 2.96527 5.78042C1.60749 7.72264 0.9212 10.0403 1.0072 12.3929C1.0932 14.7455 1.94696 17.0091 3.44308 18.8511C4.93919 20.6932 6.9988 22.0167 9.31939 22.6272C11.2007 23.1028 13.1718 23.1237 15.0632 22.688C16.7767 22.3109 18.3608 21.5044 19.6605 20.3473C21.0131 19.1062 21.995 17.5274 22.5004 15.7806C23.0498 13.881 23.1476 11.8833 22.7862 9.94089H12.2215V14.2346H18.3399C18.2176 14.9194 17.9556 15.573 17.5694 16.1563C17.1833 16.7395 16.6811 17.2405 16.0927 17.6292C15.3456 18.1134 14.5034 18.4392 13.6202 18.5856C12.7344 18.747 11.8258 18.747 10.9399 18.5856C10.0421 18.4038 9.19283 18.0407 8.44609 17.5196C7.24647 16.6876 6.34571 15.5057 5.87236 14.1424C5.39101 12.7536 5.39101 11.248 5.87236 9.85915C6.2093 8.88567 6.76631 7.99932 7.5018 7.26625C8.34348 6.41195 9.40908 5.80128 10.5817 5.50126C11.7543 5.20124 12.9886 5.22346 14.1491 5.56548C15.0557 5.83814 15.8848 6.31454 16.5702 6.9567C17.2601 6.28428 17.9488 5.61011 18.6363 4.93421C18.9913 4.57075 19.3782 4.22468 19.7279 3.85252C18.6817 2.89862 17.4536 2.15637 16.114 1.6683C13.6747 0.800499 11.0056 0.777178 8.55082 1.60221Z" fill="white" fill-opacity="0.87"/>
</svg>
