<svg width="375" height="298" viewBox="0 0 375 298" fill="none" xmlns="http://www.w3.org/2000/svg">
<path d="M78.4985 278.612C81.2757 279.609 163.436 281.244 166.522 279.35C166.89 279.161 168.224 251.94 168.224 251.94C168.125 251.552 169.498 248.95 171.599 245.292C177.451 235.056 188.909 216.716 188.909 216.716L140.134 201.955L120.106 242.133L115 252.379C115 252.379 103.802 256.764 94.0268 261.14C88.0544 263.821 82.7688 266.273 81.5445 267.19C78.399 269.642 75.7313 277.636 78.4985 278.612Z" fill="#AD6359"/>
<path d="M78.4997 278.613C81.2769 279.609 163.437 281.244 166.523 279.35C166.892 279.161 168.225 251.94 168.225 251.94C168.126 251.552 169.499 248.95 171.6 245.292L120.118 242.133L115.011 252.379C115.011 252.379 103.813 256.764 94.038 261.14C88.0656 263.821 82.78 266.273 81.5556 267.19C78.4002 269.642 75.7325 277.636 78.4997 278.613Z" fill="white"/>
<path d="M78.1608 278.921C81.0176 279.918 163.278 281.343 166.453 279.41C167.657 278.682 169.111 266.004 168.225 251.94L115.19 251.093C115.19 251.093 84.4716 264.688 81.2167 267.18C77.9617 269.672 75.304 277.905 78.1608 278.921Z" fill="#F29F05"/>
<path opacity="0.1" d="M166.454 279.42C165.289 280.118 153.603 280.417 139.08 280.417L166.951 251.96H168.245C169.111 266.004 167.658 278.692 166.454 279.42Z" fill="black"/>
<path d="M79.3948 275.642C93.191 275.543 148.844 276.43 162.491 277.387C162.6 277.387 162.6 277.466 162.491 277.466C148.814 277.865 93.1711 276.529 79.3848 275.872C79.0961 275.862 79.1061 275.642 79.3948 275.642Z" fill="#263238"/>
<path d="M86.5618 264.31C88.0963 264.295 89.6172 264.6 91.0276 265.206C92.4379 265.811 93.707 266.704 94.7539 267.828C96.6718 269.823 97.7423 272.485 97.7401 275.254C97.7401 275.333 97.5809 275.333 97.5709 275.254C97.1494 272.517 95.8554 269.99 93.8821 268.05C91.9088 266.11 89.3619 264.861 86.6215 264.489C86.5977 264.497 86.5718 264.495 86.5494 264.484C86.527 264.473 86.51 264.453 86.502 264.429C86.4941 264.405 86.496 264.379 86.5072 264.357C86.5184 264.335 86.538 264.317 86.5618 264.31Z" fill="#263238"/>
<path d="M110.801 252.409C116.315 252.409 122.686 254.482 126.04 259.067C126.17 259.236 125.911 259.426 125.752 259.336C120.97 256.718 115.921 254.623 110.691 253.086C110.614 253.059 110.549 253.006 110.508 252.936C110.466 252.865 110.45 252.783 110.463 252.702C110.476 252.621 110.517 252.548 110.579 252.494C110.641 252.44 110.719 252.41 110.801 252.409Z" fill="#263238"/>
<path d="M106.549 253.994C112.064 253.994 118.434 256.077 121.789 260.652C121.918 260.831 121.659 261.01 121.5 260.921C116.714 258.311 111.666 256.217 106.44 254.671C106.363 254.644 106.298 254.591 106.256 254.52C106.214 254.45 106.199 254.367 106.212 254.287C106.225 254.206 106.266 254.132 106.327 254.079C106.389 254.025 106.467 253.995 106.549 253.994Z" fill="#263238"/>
<path d="M102.259 255.588C107.774 255.588 114.144 257.661 117.499 262.246C117.628 262.426 117.369 262.605 117.21 262.515C112.428 259.898 107.379 257.803 102.15 256.266C102.073 256.239 102.008 256.185 101.966 256.115C101.924 256.045 101.909 255.962 101.922 255.881C101.935 255.801 101.976 255.727 102.037 255.673C102.099 255.62 102.178 255.59 102.259 255.588Z" fill="#263238"/>
<path d="M97.9693 257.173C103.484 257.173 109.854 259.256 113.209 263.831C113.338 264.011 113.08 264.19 112.92 264.11C108.137 261.493 103.088 259.395 97.8598 257.851C97.7828 257.824 97.7178 257.77 97.6761 257.7C97.6344 257.63 97.6188 257.547 97.6318 257.466C97.6448 257.385 97.6858 257.312 97.7475 257.258C97.8091 257.205 97.8877 257.175 97.9693 257.173Z" fill="#263238"/>
<path d="M159.196 264.21C165.388 264.329 165.169 273.968 159.007 273.838C152.845 273.709 152.995 264.08 159.196 264.21Z" fill="#263238"/>
<path d="M105.425 245.661C108.341 249.568 112.831 252.06 116.723 254.851C116.813 254.905 116.916 254.938 117.021 254.945C117.127 254.952 117.233 254.934 117.33 254.892C117.427 254.85 117.513 254.786 117.581 254.704C117.648 254.622 117.695 254.526 117.718 254.422C117.74 254.427 117.763 254.426 117.784 254.421C117.806 254.415 117.826 254.405 117.843 254.39C117.861 254.376 117.874 254.358 117.884 254.338C117.893 254.317 117.898 254.295 117.897 254.273C117.579 249.194 115.931 244.288 113.119 240.049C111.437 237.607 107.953 235.285 105.156 237.558C102.359 239.83 103.723 243.388 105.425 245.661ZM105.246 241.086C105.903 235.106 111.218 239.79 112.402 241.634C113.151 242.843 113.816 244.102 114.393 245.402C115.527 248.097 116.524 250.848 117.38 253.645C115.558 252.15 113.617 250.834 111.746 249.419C109.456 247.724 104.887 244.395 105.246 241.086Z" fill="#263238"/>
<path d="M137.557 251.083C137.189 247.465 133.088 246.618 130.171 247.096C125.184 248.064 120.539 250.329 116.703 253.665C116.685 253.677 116.67 253.695 116.659 253.715C116.649 253.735 116.643 253.757 116.643 253.779C116.643 253.802 116.649 253.824 116.659 253.844C116.67 253.864 116.685 253.881 116.703 253.894C116.651 253.983 116.619 254.083 116.611 254.187C116.603 254.29 116.619 254.394 116.658 254.49C116.696 254.587 116.756 254.673 116.833 254.742C116.91 254.811 117.002 254.862 117.101 254.891C121.81 255.708 126.747 257.163 131.565 256.505C134.382 256.166 137.905 254.502 137.557 251.083ZM124.507 254.711C122.178 254.372 119.879 253.914 117.539 253.655C120.177 252.379 122.735 251.003 125.503 249.987C126.824 249.482 128.177 249.065 129.554 248.741C131.684 248.282 138.781 248.741 134.969 253.465C132.859 256.047 127.274 255.12 124.507 254.711Z" fill="#263238"/>
<path d="M175.303 244.754L117.46 235.983C117.46 235.983 145.261 180.485 162.472 150.375C172.048 133.63 198.227 132.812 210.958 152.866C227.969 179.668 241.168 204.785 248.733 218.7L261.863 219.826L259.026 241.295L215.417 251.073C198.714 253.067 186.989 223.295 186.72 223.803C184.6 227.71 175.303 244.754 175.303 244.754Z" fill="#263238"/>
<path d="M186.451 223.932C188.093 220.563 189.377 216.955 190.841 213.527C192.304 210.098 193.678 206.839 195.081 203.49C197.918 196.722 200.854 189.984 203.612 183.186C205.155 179.369 206.598 175.502 208.021 171.644C208.03 171.627 208.044 171.614 208.062 171.607C208.08 171.6 208.099 171.599 208.117 171.605C208.135 171.611 208.151 171.624 208.16 171.64C208.17 171.656 208.174 171.675 208.171 171.694C207.046 175.332 205.891 178.97 204.667 182.578C204.995 181.96 205.314 181.333 205.662 180.725C206.588 179.06 207.553 177.415 208.509 175.741C208.512 175.732 208.516 175.724 208.523 175.718C208.529 175.711 208.536 175.706 208.545 175.703C208.553 175.7 208.562 175.698 208.571 175.699C208.58 175.7 208.589 175.703 208.597 175.707C208.605 175.712 208.611 175.718 208.616 175.726C208.621 175.734 208.624 175.742 208.625 175.751C208.626 175.76 208.626 175.769 208.623 175.778C208.62 175.786 208.615 175.794 208.609 175.801C207.723 177.445 206.837 179.09 205.911 180.725C205.453 181.532 204.916 182.339 204.468 183.147C201.082 193.298 197.059 203.225 192.423 212.869C190.582 216.646 188.442 220.264 186.59 224.042C186.531 224.162 186.351 224.052 186.451 223.932Z" fill="#37474F"/>
<path d="M174.008 234.458C176.795 230.152 183.445 217.105 185.824 212.6C190.632 203.48 195.031 194.17 199.202 184.741C201.551 179.409 203.751 174.027 205.931 168.624C205.931 168.624 206.001 168.624 205.991 168.624C202.67 178.35 198.86 187.901 194.573 197.24C190.333 206.599 176.656 231.817 174.188 234.548C174.098 234.667 173.939 234.567 174.008 234.458Z" fill="#37474F"/>
<path d="M209.922 175.831C214.899 184.741 219.996 193.592 225.003 202.493C227.531 206.998 230.053 211.503 232.568 216.008C233.742 218.131 234.887 220.274 236.111 222.377C237.16 224.356 238.743 226 240.68 227.122C243 228.229 245.433 229.081 247.937 229.663C250.744 230.481 253.541 231.368 256.368 232.145C256.394 232.153 256.416 232.171 256.429 232.196C256.442 232.22 256.445 232.248 256.437 232.275C256.429 232.301 256.411 232.324 256.387 232.337C256.363 232.35 256.334 232.353 256.308 232.345C253.79 231.667 251.241 231.089 248.713 230.461C246.383 229.964 244.08 229.345 241.815 228.607C239.814 227.933 238.043 226.706 236.708 225.069C235.351 223.177 234.153 221.177 233.125 219.088C228.128 209.925 223.174 200.745 218.264 191.549C215.467 186.316 212.699 181.073 209.872 175.861C209.862 175.831 209.902 175.761 209.922 175.831Z" fill="#37474F"/>
<path d="M176.617 236.631C173.153 235.993 169.599 235.694 166.105 235.245L155.594 233.88C148.626 232.973 124.806 229.175 123.014 228.577C122.99 228.57 122.968 228.555 122.953 228.534C122.937 228.513 122.929 228.488 122.929 228.463C122.929 228.437 122.937 228.412 122.953 228.391C122.968 228.37 122.99 228.355 123.014 228.348C124.716 228.298 140.294 230.341 143.798 230.89C150.766 231.886 157.734 233.162 164.702 234.338C166.692 234.677 168.683 235.056 170.674 235.405C172.665 235.754 174.656 236.182 176.646 236.401C176.677 236.405 176.704 236.421 176.723 236.446C176.742 236.47 176.75 236.501 176.746 236.531C176.742 236.561 176.726 236.589 176.702 236.608C176.678 236.626 176.647 236.635 176.617 236.631Z" fill="#37474F"/>
<path d="M140.006 291.012C141.001 288.251 193.439 224.859 196.883 223.743C197.271 223.593 218.732 240.338 218.732 240.338C219.598 241.594 262.102 234.567 262.102 234.567L260.31 285.4L183.664 280.417C183.664 280.417 173.043 286.068 163.358 290.623C157.385 293.454 152.13 295.816 150.637 296.135C146.725 296.952 138.941 293.753 140.006 291.012Z" fill="#AD6359"/>
<path d="M150.616 296.135C152.109 295.826 157.375 293.454 163.338 290.623C173.023 286.068 183.644 280.417 183.644 280.417L200.695 281.523L229.313 239.551C223.41 240.338 219.01 240.767 218.732 240.368C218.732 240.368 197.281 223.623 196.883 223.773C193.439 224.889 141.06 288.271 140.005 291.032C138.95 293.792 146.724 296.962 150.616 296.135Z" fill="white"/>
<path d="M139.547 291.071C140.652 288.251 193.299 224.909 196.793 223.763C198.126 223.314 208.668 230.491 218.691 240.338L184.728 281.134C184.728 281.134 154.398 295.567 150.387 296.414C146.375 297.261 138.452 293.902 139.547 291.071Z" fill="#F29F05"/>
<path d="M142.832 292.277C151.91 281.872 187.555 239.062 195.737 228.089C195.807 227.999 195.737 227.949 195.678 228.039C186.45 238.146 151.153 281.244 142.663 292.128C142.483 292.377 142.653 292.497 142.832 292.277Z" fill="#263238"/>
<path d="M156.09 294.231C157.102 293.075 157.863 291.722 158.325 290.257C158.788 288.792 158.942 287.247 158.778 285.719C158.497 282.971 157.175 280.435 155.085 278.632C155.015 278.632 154.926 278.702 154.975 278.762C156.781 280.868 157.855 283.505 158.034 286.275C158.214 289.045 157.49 291.799 155.971 294.121C155.966 294.138 155.966 294.155 155.97 294.171C155.974 294.188 155.983 294.203 155.996 294.214C156.008 294.226 156.024 294.233 156.041 294.236C156.057 294.239 156.075 294.237 156.09 294.231Z" fill="#263238"/>
<path d="M180.936 283.576C184.53 279.38 187.118 273.2 185.844 267.629C185.794 267.419 185.495 267.489 185.455 267.629C184.313 272.965 182.605 278.164 180.359 283.138C180.301 283.214 180.276 283.311 180.289 283.406C180.302 283.502 180.352 283.588 180.429 283.646C180.505 283.704 180.602 283.729 180.697 283.716C180.792 283.703 180.878 283.653 180.936 283.576Z" fill="#263238"/>
<path d="M176.934 285.799C180.527 281.593 183.115 275.423 181.841 269.851C181.791 269.632 181.483 269.712 181.443 269.851C180.311 275.204 178.602 280.417 176.347 285.4C176.294 285.478 176.274 285.574 176.292 285.667C176.31 285.759 176.363 285.841 176.441 285.894C176.519 285.946 176.615 285.966 176.707 285.948C176.8 285.931 176.881 285.877 176.934 285.799Z" fill="#263238"/>
<path d="M172.933 288.012C176.516 283.815 179.114 277.636 177.84 272.064C177.79 271.855 177.482 271.924 177.442 272.064C176.304 277.402 174.596 282.602 172.346 287.573C172.317 287.612 172.296 287.655 172.284 287.702C172.272 287.749 172.27 287.797 172.277 287.845C172.284 287.893 172.3 287.939 172.325 287.98C172.349 288.021 172.382 288.057 172.42 288.086C172.459 288.115 172.503 288.136 172.549 288.148C172.596 288.16 172.644 288.162 172.692 288.155C172.74 288.148 172.785 288.132 172.827 288.107C172.868 288.083 172.904 288.05 172.933 288.012Z" fill="#263238"/>
<path d="M168.932 290.234C172.515 286.028 175.113 279.858 173.839 274.287C173.789 274.067 173.481 274.147 173.441 274.287C172.302 279.621 170.593 284.817 168.345 289.786C168.285 289.864 168.259 289.962 168.272 290.059C168.285 290.157 168.336 290.245 168.414 290.304C168.492 290.364 168.59 290.39 168.688 290.376C168.785 290.363 168.872 290.312 168.932 290.234Z" fill="#263238"/>
<path d="M203.561 239.182C207.543 234.408 200.097 228.218 196.145 233.042C192.194 237.867 199.609 243.966 203.561 239.182Z" fill="#263238"/>
<path d="M188.441 297.6C192.005 296.942 192.512 292.776 191.766 289.905C190.392 285.009 187.756 280.561 184.121 277.008C184.107 276.991 184.09 276.978 184.07 276.968C184.05 276.959 184.029 276.954 184.007 276.954C183.985 276.954 183.963 276.959 183.944 276.968C183.924 276.978 183.906 276.991 183.892 277.008C183.798 276.955 183.692 276.926 183.584 276.923C183.476 276.92 183.369 276.943 183.271 276.989C183.174 277.036 183.089 277.106 183.024 277.192C182.959 277.279 182.915 277.379 182.897 277.486C182.469 282.26 181.424 287.304 182.479 292.058C183.126 294.859 185.077 298.238 188.441 297.6ZM183.753 284.882C183.902 282.53 184.161 280.197 184.231 277.845C185.714 280.367 187.297 282.829 188.531 285.48C189.144 286.755 189.669 288.07 190.104 289.417C190.741 291.51 190.82 298.637 185.853 295.208C183.126 293.374 183.574 287.683 183.763 284.882H183.753Z" fill="#263238"/>
<path d="M191.328 265.137C187.685 268.366 185.575 273.061 183.116 277.167C183.063 277.264 183.035 277.372 183.033 277.482C183.032 277.593 183.057 277.702 183.107 277.8C183.157 277.898 183.23 277.982 183.32 278.046C183.41 278.109 183.514 278.15 183.624 278.164C183.622 278.186 183.625 278.209 183.633 278.229C183.641 278.25 183.654 278.269 183.67 278.284C183.686 278.3 183.706 278.311 183.727 278.318C183.748 278.325 183.771 278.327 183.793 278.324C188.824 277.578 193.57 275.515 197.549 272.343C199.839 270.469 201.869 266.801 199.371 264.16C197.012 261.678 193.418 263.253 191.328 265.137ZM195.877 264.589C201.909 264.748 197.659 270.459 195.877 271.775C194.732 272.606 193.535 273.361 192.294 274.038C189.725 275.473 187.008 276.51 184.33 277.676C185.664 275.732 186.809 273.689 188.073 271.695C189.606 269.333 192.552 264.469 195.877 264.589Z" fill="#263238"/>
<path d="M237.385 221.68C237.385 221.68 303.082 212.849 324.592 218.64C354.584 226.733 358.018 262.805 334.925 276.539C305.66 293.932 204.149 284.234 204.149 284.234L232.478 236.391C232.478 236.391 275.011 228.418 313.105 231.537L236.221 241.086L237.385 221.68Z" fill="#263238"/>
<path d="M230.517 239.631C230.546 239.546 230.57 239.46 230.587 239.372C230.587 239.302 230.587 239.232 230.637 239.162L230.786 238.674C230.884 238.334 231.004 238.001 231.144 237.677C231.274 237.348 231.423 237.029 231.572 236.681C231.734 236.372 231.917 236.076 232.12 235.793C232.12 235.793 232.17 235.793 232.2 235.793H232.249H232.319C232.342 235.788 232.366 235.788 232.389 235.793C237.057 235.046 268.731 231.448 273.439 231.069C278.147 230.69 282.935 230.401 287.683 230.172C297.157 229.675 306.652 229.712 316.122 230.282C317.008 230.331 317.894 230.411 318.78 230.481C318.969 230.421 319.178 230.391 319.367 230.351C319.835 230.252 320.283 230.142 320.751 230.072C321.617 229.923 322.483 229.823 323.349 229.713C325.15 229.494 326.962 229.365 328.754 229.076C328.863 229.076 328.903 229.235 328.754 229.255C326.942 229.614 325.15 230.112 323.339 230.471L321.766 230.76C325.23 231.109 328.684 231.557 332.138 232.056C332.247 232.056 332.247 232.255 332.138 232.245C327.44 231.737 322.692 231.488 317.963 231.368C313.235 231.248 308.577 231.169 303.878 231.258C294.382 231.448 284.876 231.966 275.39 232.644C270.075 233.023 237.764 236.79 232.438 236.8H232.379C232.331 236.936 232.274 237.07 232.209 237.199C232.05 237.508 231.891 237.817 231.722 238.116C231.553 238.415 231.393 238.704 231.204 238.983C231.015 239.262 231.025 239.262 230.925 239.392L230.786 239.601C230.727 239.667 230.677 239.741 230.637 239.82C230.627 239.84 230.448 239.75 230.517 239.631Z" fill="#37474F"/>
<path d="M218.702 281.254C220.374 278.503 221.827 275.553 223.38 272.712L228.038 264.16C231.144 258.489 242.193 239.382 243.298 238.056C243.368 237.976 243.487 238.056 243.457 238.176C242.91 239.671 235.952 252.329 234.359 255.12C231.164 260.761 227.829 266.273 224.535 271.845C223.599 273.43 222.623 274.994 221.678 276.579C220.732 278.164 219.687 279.699 218.831 281.324C218.781 281.413 218.642 281.353 218.702 281.254Z" fill="#37474F"/>
<path d="M245.02 243.299C247.847 242.681 250.733 242.302 253.58 241.863C256.427 241.425 259.284 240.926 262.141 240.478C267.854 239.561 273.575 238.697 279.302 237.886C290.729 236.282 302.196 235.026 313.663 234.318C320.153 233.92 326.603 233.75 333.133 233.511C333.272 233.511 333.262 233.74 333.133 233.75C321.586 233.81 310.01 235.036 298.523 236.342C287.036 237.647 275.788 239.112 264.45 240.717L254.844 242.103C251.59 242.581 248.335 243.199 245.07 243.508C244.94 243.538 244.89 243.329 245.02 243.299Z" fill="#37474F"/>
<path d="M245.011 160.96C238.72 171.924 213.666 205.862 205.782 206.988C197.58 208.164 167.34 205.573 161.825 199.064C159.127 195.885 163.487 168.585 167.678 170.11C171.869 171.634 197.739 177.894 201.064 177.406C204.388 176.917 231.195 150.923 241.079 145.321C258.12 135.653 248.405 155.039 245.011 160.96Z" fill="#AD6359"/>
<path d="M174.327 170.977L167.946 204.805C167.946 204.805 198.236 211.015 207.165 208.404C216.094 205.792 241.058 170.249 248.345 156.195C255.631 142.142 249.26 138.444 236.191 147.225C223.121 156.006 202.178 175.611 200.137 175.701C198.097 175.791 174.327 170.977 174.327 170.977Z" fill="#F29F05"/>
<path d="M239.366 149.846C238.614 150.585 238.007 151.457 237.574 152.418C238.536 151.988 239.407 151.379 240.142 150.624C240.896 149.885 241.507 149.014 241.944 148.052C240.981 148.485 240.107 149.094 239.366 149.846ZM174.017 201.397C172.964 201.38 171.917 201.563 170.932 201.935C171.915 202.315 172.963 202.501 174.017 202.483C175.075 202.498 176.125 202.312 177.113 201.935C176.126 201.551 175.076 201.355 174.017 201.357V201.397ZM223.519 191.29C222.462 191.274 221.412 191.457 220.423 191.828C221.41 192.207 222.461 192.393 223.519 192.376H223.927C224.176 192.047 224.454 191.708 224.713 191.38C224.275 191.28 223.917 191.26 223.519 191.25V191.29ZM201.958 199.393C201.242 201.391 201.242 203.575 201.958 205.573C202.332 204.586 202.518 203.538 202.506 202.483C202.528 201.414 202.342 200.351 201.958 199.353V199.393ZM227.331 166.332C226.955 167.318 226.772 168.367 226.794 169.422C226.778 170.476 226.96 171.524 227.331 172.512C227.71 171.526 227.896 170.477 227.879 169.422C227.908 168.352 227.721 167.288 227.331 166.292V166.332ZM239.366 149.846C238.614 150.585 238.007 151.457 237.574 152.418C238.536 151.988 239.407 151.379 240.142 150.624C240.896 149.885 241.507 149.014 241.944 148.052C240.981 148.485 240.107 149.094 239.366 149.846ZM206.786 177.754C206.024 178.486 205.412 179.36 204.984 180.326C205.948 179.891 206.82 179.275 207.553 178.512C208.314 177.78 208.926 176.907 209.354 175.94C208.398 176.357 207.527 176.949 206.786 177.685V177.754ZM176.207 171.425L175.929 171.684C175.17 172.416 174.561 173.29 174.137 174.256C175.1 173.82 175.972 173.204 176.705 172.442C176.944 172.193 177.183 171.933 177.402 171.664L176.207 171.425ZM188.441 188.1C187.707 187.344 186.835 186.735 185.873 186.306C186.306 187.27 186.917 188.142 187.674 188.878C188.411 189.633 189.282 190.245 190.242 190.682C189.809 189.716 189.198 188.84 188.441 188.1ZM223.559 191.25C222.502 191.234 221.452 191.417 220.463 191.788C221.45 192.167 222.501 192.353 223.559 192.336H223.967C224.216 192.007 224.494 191.669 224.753 191.34C224.275 191.28 223.917 191.26 223.519 191.25H223.559ZM227.371 166.332C226.994 167.318 226.812 168.367 226.833 169.422C226.818 170.476 227 171.524 227.371 172.512C227.75 171.526 227.935 170.477 227.918 169.422C227.935 168.35 227.735 167.285 227.331 166.292L227.371 166.332Z" fill="white"/>
<path d="M179.801 189.426C180.318 186.745 182.299 176.02 182.588 173.319C182.588 173.319 182.528 173.259 182.508 173.319C181.732 175.841 179.462 186.366 178.945 189.047C177.773 194.374 176.892 199.761 176.307 205.184C176.307 205.274 176.446 205.334 176.476 205.184C177.939 200.031 178.785 194.699 179.801 189.426Z" fill="#263238"/>
<path opacity="0.1" d="M248.345 156.185C241.058 170.249 216.113 205.782 207.165 208.394C200.396 210.387 181.404 207.297 172.574 205.682L247.907 142.51C252.147 142.869 252.814 147.544 248.345 156.185Z" fill="black"/>
<path d="M221.937 223.255L296.423 227.59C296.323 226.075 284.677 183.296 276.296 167.01C265.555 146.128 260.787 142.939 257.602 141.872C253.521 140.507 245.15 140.517 242.671 144.464C229.373 165.794 220.922 222.308 221.937 223.255Z" fill="#F29F05"/>
<path d="M240.094 149.158C239.695 149.956 239.307 150.763 238.929 151.62C239.353 151.312 239.758 150.979 240.143 150.624C240.898 149.885 241.509 149.014 241.945 148.052C241.274 148.322 240.65 148.696 240.094 149.158ZM262.51 218.251C261.757 218.988 261.149 219.86 260.718 220.823C261.681 220.395 262.553 219.786 263.286 219.029C264.039 218.288 264.649 217.417 265.088 216.457C264.125 216.89 263.251 217.499 262.51 218.251ZM240.094 149.158C239.695 149.956 239.307 150.763 238.929 151.62C239.353 151.312 239.758 150.979 240.143 150.624C240.898 149.885 241.509 149.014 241.945 148.052C241.274 148.322 240.65 148.696 240.094 149.158ZM283.842 185.589C283.655 185.484 283.462 185.39 283.264 185.309C283.543 185.964 283.919 186.572 284.379 187.114C284.2 186.605 284.001 186.087 283.842 185.589ZM267.467 151.052C267.18 150.764 266.877 150.491 266.561 150.235C266.061 149.831 265.508 149.496 264.919 149.238C265.349 150.203 265.961 151.076 266.721 151.81C267.277 152.369 267.902 152.855 268.582 153.255C268.807 153.394 269.043 153.514 269.289 153.614C268.851 152.651 268.232 151.782 267.467 151.052ZM247.29 185.937C246.557 185.178 245.685 184.565 244.722 184.133C245.623 186.062 247.174 187.611 249.102 188.509C248.664 187.54 248.05 186.661 247.29 185.917V185.937ZM265.984 196.263C264.93 196.246 263.882 196.432 262.898 196.812C264.896 197.529 267.082 197.529 269.08 196.812C268.094 196.425 267.043 196.232 265.984 196.243V196.263ZM247.818 163.561C246.764 163.543 245.716 163.729 244.732 164.109C245.719 164.477 246.765 164.659 247.818 164.647C248.871 164.667 249.919 164.484 250.904 164.109C249.921 163.724 248.873 163.531 247.818 163.541V163.561ZM239.755 208.104C239.376 209.089 239.19 210.139 239.208 211.194C239.196 212.249 239.382 213.297 239.755 214.284C240.472 212.287 240.472 210.102 239.755 208.104ZM282.368 205.005C281.635 207.003 281.635 209.196 282.368 211.194C283.085 209.193 283.085 207.006 282.368 205.005ZM267.079 171.634C266.348 173.629 266.348 175.819 267.079 177.814C267.444 176.825 267.626 175.778 267.616 174.724C267.633 173.67 267.451 172.621 267.079 171.634Z" fill="white"/>
<path d="M270.065 151.371C288.888 174.535 309.453 213.018 299.379 220.464C290.182 227.261 258.389 218.63 238.58 209.629C234.817 207.925 252.237 174.654 256.059 176.897C260.084 179.307 264.256 181.461 268.552 183.346C269.637 183.705 263.953 175.95 258.14 157.71C252.147 139.181 259.274 138.125 270.065 151.371Z" fill="#AD6359"/>
<path d="M207.006 171.774C206.777 175.761 216.582 175.472 216.582 175.472C215.107 176.337 213.98 177.69 213.396 179.299C212.501 182.18 216.621 184.851 216.621 184.851C215.276 186.063 214.329 187.654 213.904 189.416C213.327 192.267 217.109 195.546 217.109 195.546C216.497 197.344 216.547 199.302 217.249 201.068C219.329 205.712 227.123 206.221 231.891 207.487C237.219 209.028 242.415 210.995 247.429 213.367L258.279 178.243C258.279 178.243 238.033 164.707 232.18 164.667C227.262 164.608 207.354 165.674 207.006 171.774Z" fill="#AD6359"/>
<path d="M216.661 175.332C221.916 174.096 227.451 174.126 232.796 174.216C232.916 174.216 232.906 174.405 232.796 174.405C227.491 174.256 222.006 175.522 216.701 175.581C216.671 175.579 216.644 175.567 216.622 175.548C216.601 175.528 216.587 175.502 216.582 175.473C216.577 175.444 216.583 175.414 216.597 175.389C216.611 175.363 216.634 175.343 216.661 175.332Z" fill="#263238"/>
<path d="M216.79 184.412C218.009 184.253 219.244 184.253 220.463 184.412C221.767 184.502 223.061 184.612 224.355 184.741C226.957 185.001 229.545 185.333 232.119 185.738C232.239 185.738 232.239 185.937 232.119 185.928C229.531 185.678 226.943 185.459 224.345 185.31C223.041 185.24 221.747 185.18 220.443 185.13C219.214 185.159 217.986 185.052 216.78 184.811C216.727 184.81 216.677 184.788 216.641 184.749C216.605 184.711 216.585 184.66 216.586 184.607C216.587 184.554 216.61 184.504 216.648 184.467C216.686 184.431 216.737 184.411 216.79 184.412Z" fill="#263238"/>
<path d="M217.218 195.516C218.321 195.38 219.438 195.434 220.523 195.675C221.707 195.825 222.892 195.955 224.066 196.084C226.435 196.343 228.794 196.602 231.164 196.782C231.183 196.788 231.201 196.801 231.213 196.818C231.225 196.835 231.232 196.855 231.232 196.876C231.232 196.897 231.225 196.918 231.213 196.935C231.201 196.952 231.183 196.965 231.164 196.971C228.755 196.802 226.336 196.662 223.937 196.473L220.383 196.184C219.297 196.191 218.218 196.001 217.198 195.626C217.148 195.606 217.168 195.526 217.218 195.516Z" fill="#263238"/>
<path d="M259.235 177.854L249.49 215.729C249.49 215.729 296.712 230.8 302.316 218.929C307.92 207.058 282.169 160.521 266.631 146.796C251.093 133.071 256.09 153.654 256.498 155.298C258.309 162.604 267.517 181.911 267.517 181.911L259.235 177.854Z" fill="#F29F05"/>
<path d="M267.078 171.634C266.347 173.629 266.347 175.819 267.078 177.814C267.443 176.825 267.625 175.778 267.616 174.724C267.632 173.67 267.45 172.621 267.078 171.634ZM282.347 204.985C281.614 206.983 281.614 209.176 282.347 211.174C283.064 209.173 283.064 206.986 282.347 204.985ZM265.963 196.243C264.909 196.226 263.861 196.413 262.877 196.792C264.876 197.509 267.061 197.509 269.059 196.792C268.078 196.414 267.034 196.228 265.983 196.243H265.963ZM267.446 151.052C266.717 150.292 265.849 149.679 264.888 149.248C265.789 151.173 267.335 152.722 269.258 153.624C268.83 152.66 268.222 151.787 267.466 151.052H267.446ZM300.155 216.068C299.424 215.311 298.556 214.699 297.597 214.264C298.033 215.229 298.644 216.104 299.399 216.846C300.134 217.6 301.006 218.209 301.967 218.64C301.539 217.676 300.931 216.803 300.175 216.068H300.155ZM285.802 187.104C285.064 186.351 284.193 185.743 283.233 185.309C284.123 187.239 285.668 188.79 287.593 189.685C287.172 188.719 286.571 187.843 285.821 187.104H285.802ZM262.489 218.251C262.22 218.55 261.942 218.839 261.693 219.158L262.818 219.437C262.967 219.298 263.126 219.168 263.266 219.028C264.018 218.288 264.628 217.417 265.067 216.457C264.112 216.892 263.244 217.501 262.509 218.251H262.489Z" fill="white"/>
<path d="M260.11 177.924C265.505 180.156 279.53 188.12 282.536 191.25C282.547 191.258 282.556 191.268 282.562 191.279C282.569 191.29 282.573 191.303 282.575 191.316C282.577 191.329 282.576 191.342 282.573 191.354C282.57 191.367 282.564 191.379 282.556 191.389C282.548 191.4 282.539 191.409 282.527 191.415C282.516 191.422 282.504 191.426 282.491 191.428C282.478 191.43 282.465 191.429 282.452 191.426C282.439 191.423 282.427 191.417 282.417 191.409C279.431 189.047 262.071 179.359 259.344 178.143C259.344 178.143 259.194 178.482 259.135 178.572C259.075 178.661 258.965 178.572 258.975 178.492C259.034 178.177 259.118 177.867 259.224 177.565L260.11 177.924Z" fill="#263238"/>
<path d="M263.017 199.573C263.674 196.931 266.242 186.326 266.68 183.625C266.68 183.625 266.621 183.565 266.601 183.625C265.685 186.107 262.848 196.483 262.181 199.134C260.716 204.381 259.539 209.705 258.657 215.082C258.657 215.171 258.797 215.231 258.827 215.082C260.569 210.068 261.713 204.785 263.017 199.573Z" fill="#263238"/>
<path d="M267.885 182.17C266.561 178.831 264.899 175.631 263.416 172.352C261.932 169.073 260.429 165.844 259.036 162.534C259.036 162.485 258.946 162.534 258.966 162.534C259.782 164.797 260.589 167.03 261.475 169.252C261.186 168.894 260.927 168.525 260.668 168.146C260.19 167.468 259.762 166.761 259.344 166.053C259.344 166.053 259.255 166.053 259.265 166.053C259.586 166.84 259.993 167.589 260.479 168.286C260.851 168.801 261.253 169.294 261.684 169.761C262.052 170.668 262.42 171.565 262.818 172.462C264.282 175.771 265.377 179.03 267.328 182.09C267.397 182.25 267.935 182.279 267.885 182.17Z" fill="#263238"/>
<path d="M295.297 222.906C285.542 224.271 254.894 217.165 249.678 215.799C249.768 215.241 249.768 215.042 249.897 214.254C249.897 214.155 249.758 214.095 249.728 214.204C249.539 214.942 248.951 216.417 249.16 216.507C251.649 217.643 285.791 225.477 295.287 223.135C295.437 223.105 295.447 222.886 295.297 222.906Z" fill="#263238"/>
<path d="M219.627 208.453L179.741 212.968L165.825 157.292L205.721 152.777L219.627 208.453Z" fill="#37474F"/>
<path d="M217.667 208.673L177.781 213.188L163.875 157.511L203.761 153.006L217.667 208.673Z" fill="#455A64"/>
<path d="M185.256 181.213C185.481 182.252 186.078 183.173 186.934 183.801C187.791 184.429 188.848 184.721 189.905 184.622C190.403 184.574 190.885 184.422 191.32 184.173C191.754 183.925 192.131 183.587 192.425 183.181C192.718 182.776 192.923 182.312 193.024 181.822C193.125 181.331 193.12 180.825 193.011 180.336C192.784 179.296 192.185 178.375 191.327 177.747C190.469 177.119 189.411 176.827 188.352 176.927C187.854 176.974 187.372 177.127 186.938 177.375C186.504 177.624 186.128 177.962 185.835 178.368C185.542 178.774 185.339 179.237 185.239 179.728C185.139 180.219 185.145 180.725 185.256 181.213Z" fill="white"/>
<path d="M164.025 168.933C162.273 173.558 157.395 179.509 157.256 183.186C157.185 184.09 157.407 184.992 157.889 185.759C158.372 186.526 159.089 187.117 159.934 187.442C159.934 187.442 156.46 189.536 156.878 192.894C157.087 194.619 160.033 195.795 160.033 195.795C160.033 195.795 157.316 197.599 157.873 200.559C158.311 202.921 161.198 203.739 161.198 203.739C161.198 203.739 159.396 206.729 160.62 208.952C163.089 213.527 183.604 211.882 186.162 204.068C187.357 200.42 182.37 201.078 182.37 201.078C182.37 201.078 189.338 198.366 189.079 194.1C188.82 189.835 182.42 191.11 182.42 191.11C182.42 191.11 189.119 188.429 188.442 184.063C187.725 179.508 181.474 181.871 181.474 181.871C181.474 181.871 185.794 178.412 184.46 175.183C182.33 169.85 174.247 177.425 169.659 176.708L166.573 169.472L164.025 168.933Z" fill="#AD6359"/>
<path d="M160.431 175.761C161.715 171.236 155.842 166.252 156.449 161.747C157.265 155.657 164.462 160.99 166.652 169.561L167.189 176.538L160.431 175.761Z" fill="#AD6359"/>
<path d="M161.635 203.938C161.625 203.943 161.616 203.95 161.609 203.96C161.603 203.97 161.599 203.981 161.599 203.993C161.599 204.005 161.603 204.016 161.609 204.026C161.616 204.035 161.625 204.043 161.635 204.048C168.783 205.215 176.117 204.172 182.658 201.058C182.867 200.958 182.788 200.579 182.539 200.649C175.767 202.753 168.725 203.861 161.635 203.938Z" fill="#263238"/>
<path d="M159.934 195.845C159.854 195.845 159.854 195.974 159.934 195.994C167.021 197.091 175.86 195.835 182.669 191.34C182.898 191.18 182.957 190.811 182.669 190.971C177.95 193.622 166.543 195.885 159.934 195.845Z" fill="#263238"/>
<path d="M181.911 181.452C175.242 185.509 167.976 187.024 160.222 187.502C160.122 187.502 160.142 187.642 160.222 187.662C164.054 188.459 168.941 187.662 172.694 186.665C176.192 185.854 179.416 184.135 182.041 181.681C182.15 181.592 182.051 181.362 181.911 181.452Z" fill="#263238"/>
<path d="M246.882 156.823C251.242 156.993 257.134 149.208 258.936 143.487C259.056 143.098 257.781 139.5 256.438 135.005C255.631 132.284 254.805 129.234 254.248 126.403C254.128 125.815 237.326 134.228 237.326 134.228C239.041 137.568 240.342 141.106 241.198 144.763C241.267 145.155 241.304 145.551 241.308 145.949C241.303 146.015 241.303 146.082 241.308 146.148C241.387 148.431 242.671 156.654 246.882 156.823Z" fill="#AD6359"/>
<path d="M253.143 126.682C253.262 131.666 252.566 143.806 243.189 145.889C242.584 146.028 241.967 146.115 241.347 146.148C241.338 146.082 241.338 146.015 241.347 145.949C241.347 145.552 241.314 145.155 241.248 144.763C240.388 141.101 239.088 137.556 237.376 134.208C237.376 134.208 249.45 128.148 253.143 126.682Z" fill="#263238"/>
<path d="M257.263 107.745C259.085 114.203 255.273 132.663 250.654 136.729C243.915 142.59 233.075 142.939 228.148 134.865C223.38 127.041 228.735 103.04 233.911 99.3821C241.536 94.0297 254.576 98.1861 257.263 107.745Z" fill="#AD6359"/>
<path d="M238.879 118.689C238.879 118.689 238.958 118.778 238.948 118.828C238.61 120.054 238.441 121.509 239.456 122.187C239.456 122.187 239.456 122.277 239.456 122.257C238.112 121.739 238.361 119.805 238.879 118.689Z" fill="#263238"/>
<path d="M240.293 117.662C242.283 117.991 241.517 122.018 239.646 121.719C237.774 121.42 238.601 117.393 240.293 117.662Z" fill="#263238"/>
<path d="M231.901 117.343C231.901 117.293 231.792 117.343 231.782 117.433C231.573 118.689 231.125 120.094 229.92 120.283C229.92 120.283 229.871 120.353 229.92 120.353C231.334 120.433 231.911 118.569 231.901 117.343Z" fill="#263238"/>
<path d="M231.045 115.818C229.054 115.27 228.118 119.267 229.95 119.805C231.781 120.343 232.697 116.287 231.045 115.818Z" fill="#263238"/>
<path d="M242.193 115.419C241.693 115.164 241.208 114.881 240.74 114.572C240.189 114.344 239.727 113.941 239.426 113.426C239.368 113.245 239.37 113.051 239.431 112.872C239.492 112.693 239.609 112.537 239.764 112.429C240.11 112.265 240.493 112.197 240.875 112.23C241.256 112.263 241.621 112.397 241.934 112.619C242.634 112.975 243.177 113.579 243.457 114.313C243.506 114.483 243.506 114.663 243.457 114.832C243.407 115.002 243.31 115.154 243.177 115.27C243.045 115.386 242.881 115.462 242.707 115.489C242.532 115.515 242.354 115.491 242.193 115.419Z" fill="#263238"/>
<path d="M229.571 113.436C230.128 113.471 230.686 113.471 231.243 113.436C231.833 113.533 232.439 113.432 232.965 113.147C233.107 113.029 233.207 112.868 233.25 112.688C233.293 112.509 233.277 112.32 233.204 112.15C232.995 111.817 232.699 111.548 232.348 111.372C231.997 111.196 231.605 111.121 231.213 111.153C230.432 111.092 229.655 111.323 229.033 111.801C228.892 111.92 228.789 112.079 228.739 112.257C228.688 112.436 228.692 112.625 228.75 112.801C228.808 112.977 228.917 113.131 229.063 113.244C229.209 113.358 229.386 113.424 229.571 113.436Z" fill="#263238"/>
<path d="M238.093 126.702C237.678 127.132 237.179 127.471 236.628 127.699C236.076 127.927 235.484 128.039 234.887 128.028C234.368 128.022 233.851 127.942 233.354 127.789C233.255 127.769 233.158 127.739 233.066 127.699L232.797 127.599C232.733 127.573 232.68 127.527 232.646 127.467C232.612 127.408 232.598 127.339 232.608 127.27C232.602 127.227 232.602 127.184 232.608 127.141V127.031C232.777 126.035 233.155 124.629 233.155 124.629C232.777 124.729 230.826 125.177 230.955 124.689C231.95 120.378 233.381 116.18 235.226 112.16C235.24 112.139 235.261 112.122 235.286 112.113C235.31 112.105 235.337 112.104 235.362 112.112C235.386 112.12 235.408 112.136 235.423 112.157C235.438 112.178 235.446 112.204 235.445 112.23C234.579 116.217 233.006 120.014 232.07 124.011C232.763 123.835 233.477 123.762 234.191 123.792C234.32 123.862 233.404 126.573 233.364 127.011C234.134 127.248 234.943 127.327 235.743 127.244C236.544 127.16 237.319 126.914 238.023 126.523C238.102 126.513 238.212 126.613 238.093 126.702Z" fill="#263238"/>
<path d="M234.389 127.918C234.852 128.597 235.483 129.143 236.22 129.503C236.629 129.689 237.085 129.741 237.524 129.653C238.52 129.453 238.52 128.586 238.42 127.839C238.344 127.44 238.221 127.052 238.052 126.682C236.994 127.475 235.71 127.908 234.389 127.918Z" fill="#263238"/>
<path d="M236.221 129.483C236.629 129.668 237.085 129.721 237.525 129.633C238.52 129.433 238.52 128.566 238.421 127.819C237.921 127.809 237.432 127.968 237.033 128.27C236.634 128.571 236.348 128.999 236.221 129.483Z" fill="#FF9BBC"/>
<path d="M257.99 122.207C253.092 122.446 250.663 116.556 251.908 111.871C251.908 111.871 238.858 113.326 238.46 102.901C237.514 104.3 236.237 105.444 234.744 106.232C233.251 107.019 231.587 107.426 229.899 107.416L228.366 111.233C227.043 110.825 225.699 106.997 229.023 104.087C229.023 104.087 229.362 98.8739 233.264 95.8239C234.32 94.9498 235.606 94.3993 236.968 94.2385C238.329 94.0776 239.707 94.3132 240.938 94.9169C243.238 93.3254 246.064 92.6894 248.822 93.1427C250.262 93.4058 251.619 94.0099 252.779 94.9045C253.939 95.7991 254.869 96.9584 255.491 98.2858C255.491 98.2858 261.902 99.6513 262.907 104.266C263.217 105.568 263.249 106.921 263.003 108.236C262.756 109.552 262.235 110.801 261.473 111.901C261.473 111.901 263.056 113.735 262.15 117.632C261.573 120.084 259.463 122.137 257.99 122.207Z" fill="#263238"/>
<path d="M238.769 101.934C238.649 102.779 238.619 103.634 238.679 104.485C238.715 105.328 238.859 106.162 239.107 106.967C239.565 108.565 240.611 109.929 242.033 110.785C243.497 111.591 245.131 112.039 246.801 112.09C247.648 112.09 248.504 112.14 249.35 112.09C250.196 112.04 251.052 111.941 251.908 111.881C251.072 112.07 250.226 112.22 249.38 112.389C248.533 112.559 247.657 112.509 246.791 112.569C245.024 112.583 243.282 112.151 241.725 111.313C240.192 110.367 239.091 108.857 238.659 107.107C238.255 105.401 238.292 103.621 238.769 101.934Z" fill="#263238"/>
<path d="M231.931 107.834C233.362 107.38 234.708 106.689 235.912 105.791C236.497 105.345 237.02 104.822 237.465 104.236C237.917 103.617 238.298 102.948 238.6 102.243C238.514 103.026 238.259 103.781 237.853 104.456C237.453 105.146 236.918 105.749 236.281 106.23C235.652 106.709 234.954 107.088 234.21 107.356C233.483 107.642 232.712 107.804 231.931 107.834Z" fill="#263238"/>
<path d="M252.983 122.785C252.983 122.785 257.423 116.954 260.07 118.569C262.718 120.184 259.224 128.736 255.979 129.792C255.574 129.956 255.139 130.036 254.702 130.027C254.265 130.018 253.834 129.921 253.435 129.742C253.036 129.562 252.677 129.303 252.381 128.981C252.084 128.66 251.856 128.281 251.709 127.868L252.983 122.785Z" fill="#AD6359"/>
<path d="M259.006 120.991V121.081C256.726 121.898 255.462 123.921 254.546 126.064C254.687 125.846 254.872 125.66 255.091 125.52C255.31 125.379 255.556 125.288 255.813 125.252C256.07 125.216 256.332 125.236 256.581 125.311C256.83 125.386 257.059 125.514 257.254 125.686C257.304 125.686 257.254 125.815 257.184 125.805C256.798 125.663 256.377 125.644 255.979 125.751C255.582 125.858 255.227 126.086 254.964 126.403C254.527 126.942 254.15 127.527 253.84 128.148C253.72 128.337 253.362 128.217 253.451 127.988V127.938C253.551 125.058 255.93 121.151 259.006 120.991Z" fill="#263238"/>
<g opacity="0.2">
<path d="M245.937 124.509C245.929 124.553 245.93 124.597 245.941 124.639C245.952 124.682 245.973 124.721 246.001 124.755C246.029 124.789 246.064 124.816 246.104 124.835C246.143 124.853 246.187 124.863 246.231 124.863C246.274 124.863 246.318 124.853 246.357 124.835C246.397 124.816 246.432 124.789 246.46 124.755C246.488 124.721 246.509 124.682 246.52 124.639C246.531 124.597 246.533 124.553 246.525 124.509C246.523 124.47 246.514 124.432 246.498 124.396C246.482 124.36 246.459 124.328 246.43 124.301C246.401 124.274 246.368 124.253 246.331 124.239C246.294 124.226 246.255 124.219 246.216 124.22C246.141 124.225 246.072 124.258 246.02 124.311C245.969 124.365 245.939 124.435 245.937 124.509Z" fill="black"/>
<path d="M239.726 124.49C239.731 124.568 239.766 124.642 239.823 124.695C239.88 124.749 239.956 124.779 240.035 124.779C240.074 124.776 240.112 124.766 240.148 124.749C240.183 124.731 240.215 124.707 240.241 124.677C240.266 124.648 240.286 124.613 240.299 124.576C240.311 124.539 240.317 124.499 240.314 124.46C240.313 124.421 240.304 124.383 240.287 124.348C240.271 124.312 240.248 124.281 240.219 124.255C240.19 124.229 240.156 124.209 240.119 124.196C240.083 124.183 240.044 124.178 240.005 124.181C239.927 124.186 239.855 124.221 239.803 124.279C239.751 124.336 239.723 124.412 239.726 124.49Z" fill="black"/>
<path d="M242.005 126.573C241.997 126.616 241.999 126.66 242.01 126.703C242.021 126.745 242.041 126.785 242.069 126.818C242.097 126.852 242.132 126.879 242.172 126.898C242.212 126.916 242.255 126.926 242.299 126.926C242.343 126.926 242.386 126.916 242.426 126.898C242.466 126.879 242.501 126.852 242.529 126.818C242.557 126.785 242.577 126.745 242.588 126.703C242.599 126.66 242.601 126.616 242.593 126.573C242.593 126.533 242.585 126.494 242.569 126.457C242.554 126.421 242.53 126.388 242.501 126.361C242.472 126.334 242.438 126.313 242.401 126.3C242.363 126.286 242.324 126.281 242.284 126.284C242.21 126.289 242.14 126.321 242.089 126.374C242.037 126.428 242.007 126.498 242.005 126.573Z" fill="black"/>
<path d="M245.667 122.068C245.668 122.107 245.677 122.146 245.694 122.181C245.71 122.217 245.733 122.249 245.762 122.276C245.79 122.303 245.824 122.324 245.861 122.338C245.898 122.352 245.937 122.358 245.976 122.357C246.035 122.355 246.092 122.335 246.14 122.301C246.188 122.266 246.225 122.218 246.246 122.163C246.267 122.108 246.271 122.047 246.257 121.99C246.244 121.932 246.213 121.88 246.17 121.839C246.127 121.799 246.073 121.772 246.015 121.763C245.956 121.753 245.896 121.761 245.843 121.785C245.789 121.81 245.743 121.85 245.712 121.9C245.681 121.95 245.665 122.009 245.667 122.068Z" fill="black"/>
<path d="M242.811 123.872C242.823 123.94 242.86 124.002 242.914 124.047C242.967 124.092 243.035 124.116 243.105 124.116C243.175 124.116 243.242 124.092 243.296 124.047C243.35 124.002 243.386 123.94 243.399 123.872C243.398 123.832 243.389 123.794 243.372 123.758C243.356 123.722 243.333 123.69 243.304 123.663C243.276 123.636 243.242 123.615 243.205 123.601C243.168 123.588 243.129 123.581 243.09 123.583C243.016 123.587 242.946 123.62 242.895 123.673C242.843 123.727 242.813 123.797 242.811 123.872Z" fill="black"/>
<path d="M227.382 120.234C227.384 120.273 227.393 120.312 227.409 120.347C227.425 120.383 227.448 120.415 227.477 120.442C227.506 120.469 227.539 120.49 227.576 120.504C227.613 120.518 227.652 120.524 227.691 120.523C227.769 120.518 227.841 120.482 227.893 120.425C227.946 120.367 227.973 120.291 227.97 120.214C227.965 120.135 227.93 120.062 227.873 120.008C227.816 119.954 227.74 119.925 227.661 119.925C227.584 119.93 227.511 119.965 227.459 120.023C227.407 120.08 227.38 120.156 227.382 120.234Z" fill="black"/>
<path d="M229.762 121.819C229.767 121.897 229.802 121.971 229.859 122.024C229.917 122.078 229.992 122.108 230.071 122.108C230.148 122.102 230.221 122.067 230.273 122.01C230.325 121.952 230.353 121.876 230.35 121.799C230.349 121.759 230.34 121.721 230.323 121.685C230.307 121.649 230.284 121.617 230.255 121.59C230.227 121.563 230.193 121.542 230.156 121.528C230.119 121.515 230.08 121.508 230.041 121.51C229.963 121.515 229.891 121.55 229.839 121.607C229.787 121.665 229.759 121.741 229.762 121.819Z" fill="black"/>
<path d="M229.253 123.802C229.258 123.879 229.294 123.952 229.351 124.004C229.409 124.056 229.485 124.084 229.562 124.081C229.602 124.08 229.64 124.071 229.676 124.054C229.712 124.038 229.744 124.015 229.771 123.986C229.798 123.958 229.819 123.924 229.832 123.887C229.846 123.85 229.853 123.811 229.851 123.772C229.846 123.694 229.811 123.622 229.753 123.57C229.696 123.518 229.62 123.49 229.542 123.493C229.503 123.493 229.463 123.501 229.427 123.517C229.39 123.532 229.358 123.555 229.331 123.584C229.303 123.613 229.283 123.648 229.269 123.685C229.256 123.723 229.251 123.762 229.253 123.802Z" fill="black"/>
<path d="M227.183 122.526C227.188 122.604 227.223 122.678 227.28 122.732C227.338 122.785 227.414 122.815 227.492 122.815C227.57 122.81 227.642 122.775 227.694 122.717C227.746 122.659 227.774 122.584 227.771 122.506C227.77 122.467 227.761 122.428 227.745 122.392C227.728 122.357 227.705 122.324 227.677 122.298C227.648 122.271 227.614 122.25 227.577 122.236C227.541 122.222 227.502 122.216 227.462 122.217C227.385 122.222 227.312 122.257 227.26 122.315C227.208 122.373 227.18 122.448 227.183 122.526Z" fill="black"/>
</g>
<path d="M328.613 78.6177C328.614 83.5161 327.255 88.3185 324.689 92.4889C322.123 96.6592 318.449 100.033 314.079 102.235C309.709 104.436 304.814 105.378 299.94 104.955C295.066 104.533 290.406 102.762 286.478 99.8413L273.554 103.152L278.903 91.0883C277.025 87.5454 275.977 83.621 275.838 79.6123C275.699 75.6036 276.473 71.6158 278.101 67.9511C279.73 64.2863 282.17 61.0408 285.237 58.4604C288.304 55.88 291.917 54.0324 295.803 53.0576C299.688 52.0828 303.745 52.0064 307.664 52.8341C311.584 53.6618 315.264 55.3719 318.426 57.835C321.587 60.298 324.148 63.4493 325.913 67.05C327.678 70.6508 328.601 74.6066 328.613 78.6177Z" fill="#404040"/>
<path d="M328.613 78.6177C328.623 83.5328 327.271 88.3543 324.707 92.5454C324.058 93.5864 323.343 94.5848 322.567 95.5345C321.781 96.4682 320.938 97.3519 320.042 98.1807C318.262 99.85 316.256 101.26 314.083 102.37C311.908 103.493 309.59 104.311 307.192 104.802C305.988 105.037 304.769 105.188 303.544 105.252C302.322 105.348 301.095 105.348 299.874 105.252C294.935 104.861 290.204 103.099 286.211 100.163L286.532 100.227L273.628 103.613L272.687 103.859L273.083 102.97L278.432 90.8955V91.3455C276.508 87.7402 275.433 83.7417 275.29 79.6562C275.147 75.5707 275.94 71.5067 277.608 67.7756C279.286 64.0501 281.784 60.7535 284.916 58.1333C288.048 55.5537 291.722 53.7165 295.663 52.7592C299.604 51.8019 303.71 51.7492 307.674 52.6051C311.605 53.495 315.286 55.2559 318.448 57.7584C321.604 60.2424 324.158 63.4092 325.918 67.0216C327.678 70.634 328.599 74.5983 328.613 78.6177ZM328.613 78.6177C328.62 74.6139 327.708 70.662 325.949 67.0667C324.189 63.4715 321.628 60.329 318.463 57.8817C315.299 55.4344 311.615 53.7478 307.696 52.9518C303.777 52.1558 299.728 52.2718 295.862 53.2908C292.03 54.2793 288.476 56.1338 285.472 58.7119C282.501 61.3061 280.128 64.5156 278.518 68.1184C276.947 71.7282 276.216 75.6478 276.378 79.5819C276.536 83.5131 277.567 87.3596 279.395 90.8419L279.513 91.0669L279.417 91.3026L273.938 103.377L273.393 102.723L286.35 99.5092L286.521 99.4557L286.671 99.5735C290.524 102.489 295.109 104.277 299.917 104.737C301.115 104.855 302.321 104.877 303.522 104.802C304.728 104.759 305.93 104.63 307.117 104.416C309.495 103.981 311.801 103.212 313.965 102.134C316.152 101.068 318.168 99.6815 319.946 98.02C320.838 97.2031 321.682 96.3338 322.471 95.4166C323.244 94.4722 323.959 93.4811 324.611 92.449C327.196 88.2976 328.581 83.5099 328.613 78.6177Z" fill="#263238"/>
<path d="M301.403 64.1007C299.989 65.5164 299.025 67.3204 298.634 69.2845C298.244 71.2486 298.443 73.2846 299.208 75.135C299.974 76.9853 301.27 78.5669 302.932 79.6797C304.595 80.7924 306.55 81.3864 308.55 81.3864C310.55 81.3864 312.506 80.7924 314.168 79.6797C315.831 78.5669 317.127 76.9853 317.892 75.135C318.657 73.2846 318.857 71.2486 318.467 69.2845C318.076 67.3204 317.112 65.5164 315.698 64.1007C313.8 62.2061 311.23 61.1421 308.55 61.1421C305.871 61.1421 303.301 62.2061 301.403 64.1007ZM313.633 68.8361C313.278 69.1907 312.797 69.3899 312.295 69.3899C311.794 69.3899 311.313 69.1907 310.958 68.8361C310.609 68.478 310.413 67.9974 310.413 67.4969C310.413 66.9965 310.609 66.5159 310.958 66.1577C311.313 65.8031 311.794 65.604 312.295 65.604C312.797 65.604 313.278 65.8031 313.633 66.1577C313.811 66.3323 313.952 66.5407 314.048 66.7706C314.145 67.0006 314.195 67.2475 314.195 67.4969C314.195 67.7464 314.145 67.9933 314.048 68.2233C313.952 68.4532 313.811 68.6616 313.633 68.8361Z" fill="#F29F05"/>
<path d="M300.024 73.2379L297.868 75.397L304.427 81.9651L306.583 79.806L300.024 73.2379Z" fill="#F29F05"/>
<path d="M298.911 76.4321L303.362 80.8889L302.271 81.9817L300.431 81.4139L300.998 83.2566L299.189 85.0672L296.75 84.553L297.253 86.9957L296.846 87.4135L295.006 86.8457L295.573 88.6884L293.733 88.1206L294.3 89.9633L292.866 91.3882L290.427 90.8847L290.929 93.3274L289.678 94.5809L284.724 95.0844L285.227 90.1348L298.911 76.4321Z" fill="#EBEBEB"/>
<path d="M300.245 78.98L287.497 91.745L287.807 92.0556L300.555 79.2906L300.245 78.98Z" fill="#DBDBDB"/>
<path opacity="0.1" d="M317.335 71.236C317.346 73.5715 316.435 75.8166 314.8 77.482C313.142 79.1729 310.882 80.1369 308.516 80.163C306.149 80.1891 303.869 79.2752 302.174 77.6213C301.325 76.7893 300.651 75.7959 300.191 74.6994C299.73 73.603 299.493 72.4255 299.493 71.236C299.493 70.0465 299.73 68.869 300.191 67.7726C300.651 66.6761 301.325 65.6827 302.174 64.8507C303.865 63.1935 306.143 62.2761 308.508 62.3002C310.874 62.3243 313.133 63.2879 314.789 64.9793C316.433 66.6442 317.349 68.8948 317.335 71.236ZM317.335 71.236C317.338 69.514 316.828 67.8302 315.871 66.3999C314.913 64.9697 313.551 63.858 311.959 63.2069C310.367 62.5559 308.617 62.3951 306.933 62.7452C305.249 63.0953 303.708 63.9402 302.506 65.1721C300.995 66.8147 300.176 68.9778 300.219 71.2105C300.262 73.4432 301.164 75.5731 302.736 77.1562C304.309 78.7394 306.432 79.6536 308.661 79.7083C310.89 79.763 313.055 78.954 314.703 77.4499C315.53 76.6394 316.188 75.673 316.64 74.6065C317.092 73.54 317.328 72.3945 317.335 71.236Z" fill="black"/>
<path d="M45.3334 153.427C45.7626 153.168 46.256 153.031 46.7593 153.031C47.2625 153.031 47.756 153.168 48.1852 153.427C48.4272 153.563 48.6692 153.708 48.9198 153.836C49.1704 153.963 49.421 154.091 49.6803 154.21C50.1365 154.416 50.5263 154.742 50.8069 155.152C51.0874 155.562 51.2478 156.041 51.2704 156.535L51.3741 160L62.8161 159.702L62.7038 156.245C62.6929 155.75 62.8211 155.261 63.0742 154.833C63.3274 154.405 63.6956 154.054 64.1383 153.819C64.6375 153.561 65.1222 153.277 65.5902 152.967C66.0011 152.682 66.4843 152.514 66.9862 152.482C67.488 152.451 67.989 152.557 68.4334 152.788L71.5186 154.423L76.9458 144.419L73.8606 142.784C73.4191 142.549 73.0528 142.198 72.8025 141.769C72.5522 141.34 72.4278 140.852 72.4433 140.358C72.454 139.789 72.4338 139.221 72.3828 138.655C72.3303 138.155 72.4207 137.652 72.6436 137.2C72.8666 136.749 73.2133 136.368 73.6445 136.1L76.626 134.278L70.5766 124.794L67.5779 126.582C67.1503 126.841 66.6582 126.978 66.1563 126.978C65.6543 126.978 65.1622 126.841 64.7346 126.582C64.5013 126.437 64.2507 126.301 64.0087 126.173L63.2569 125.798C62.7983 125.592 62.4064 125.265 62.1243 124.853C61.8423 124.442 61.6809 123.961 61.6581 123.465L61.5544 120L50.1556 120.332L50.2679 123.78C50.2818 124.276 50.1548 124.766 49.9014 125.195C49.6479 125.624 49.278 125.974 48.8334 126.207C48.3353 126.467 47.8508 126.751 47.3815 127.058C46.9706 127.344 46.4874 127.512 45.9855 127.543C45.4837 127.575 44.9827 127.469 44.5383 127.237L41.4099 125.645L36 135.59L39.0852 137.216C39.528 137.452 39.8952 137.804 40.1456 138.235C40.396 138.665 40.5196 139.155 40.5025 139.651C40.4918 140.219 40.512 140.788 40.563 141.354C40.6155 141.853 40.5251 142.357 40.3022 142.808C40.0792 143.26 39.7325 143.641 39.3012 143.908L36.3284 145.67L42.3778 155.249L45.3334 153.427ZM48.2025 135.641C49.0786 134.032 50.419 132.716 52.0543 131.858C53.6895 131.001 55.5462 130.64 57.3896 130.822C59.233 131.003 60.9803 131.72 62.4106 132.88C63.841 134.04 64.89 135.591 65.4253 137.339C65.9605 139.086 65.9578 140.951 65.4176 142.697C64.8773 144.442 63.8238 145.991 62.3902 147.147C60.9566 148.303 59.2072 149.015 57.3633 149.191C55.5194 149.368 53.6637 149.002 52.0309 148.14C49.8421 146.981 48.2096 145.014 47.4918 142.671C46.7739 140.327 47.0296 137.799 48.2025 135.641Z" fill="#464646"/>
<path d="M72.0428 170.65C72.3349 170.825 72.5745 171.077 72.736 171.378C72.8974 171.68 72.9746 172.02 72.9593 172.362C72.9593 172.559 72.9593 172.756 72.9593 172.953C72.9593 173.15 72.9593 173.347 72.9593 173.535C72.9755 173.877 72.8987 174.218 72.7372 174.52C72.5757 174.821 72.3356 175.073 72.0428 175.247L69.9551 176.471L73.8843 183.319L75.9975 182.198C76.298 182.024 76.6409 181.938 76.9873 181.95C77.3338 181.962 77.6699 182.072 77.9578 182.266C78.2866 182.481 78.6265 182.679 78.9762 182.857C79.2896 183.016 79.5521 183.261 79.7337 183.564C79.9153 183.867 80.0087 184.215 80.0031 184.569V187H87.8785V184.569C87.8747 184.214 87.9697 183.866 88.1528 183.563C88.3359 183.26 88.5996 183.016 88.9139 182.857C89.259 182.674 89.5985 182.477 89.9323 182.266C90.2202 182.072 90.5564 181.962 90.9028 181.95C91.2492 181.938 91.5921 182.024 91.8927 182.198L93.9803 183.413L97.9181 176.565L95.8134 175.341C95.5228 175.165 95.2849 174.913 95.125 174.612C94.9651 174.31 94.8892 173.971 94.9054 173.629C94.9054 173.432 94.9054 173.235 94.9054 173.047C94.9054 172.859 94.9054 172.653 94.9054 172.456C94.8901 172.114 94.9673 171.774 95.1287 171.472C95.2901 171.171 95.5297 170.919 95.8219 170.744L97.9181 169.52L93.9803 162.672L91.9011 163.888C91.599 164.062 91.2548 164.147 90.9071 164.135C90.5594 164.123 90.2219 164.014 89.9323 163.819C89.6047 163.602 89.2646 163.405 88.9139 163.229C88.5996 163.07 88.3359 162.825 88.1528 162.522C87.9697 162.22 87.8747 161.871 87.8785 161.517V159H79.9861V161.431C79.9909 161.786 79.8963 162.135 79.7131 162.438C79.53 162.741 79.2657 162.985 78.9508 163.143C78.6 163.32 78.2605 163.517 77.9324 163.734C77.6445 163.928 77.3083 164.038 76.9619 164.05C76.6155 164.062 76.2726 163.976 75.972 163.802L73.8843 162.587L69.9551 169.435L72.0428 170.65ZM83.9238 166.473C85.1991 166.473 86.4458 166.854 87.5062 167.569C88.5667 168.283 89.3934 169.299 89.8818 170.487C90.3702 171.675 90.4984 172.983 90.2503 174.245C90.0021 175.506 89.3886 176.666 88.4875 177.576C87.5863 178.486 86.4379 179.106 85.1873 179.358C83.9367 179.61 82.6402 179.483 81.4615 178.991C80.2828 178.5 79.2749 177.668 78.5652 176.599C77.8555 175.53 77.4758 174.273 77.4741 172.987C77.4741 171.261 78.1534 169.605 79.3627 168.384C80.572 167.163 82.2125 166.475 83.9238 166.473Z" fill="#464646"/>
</svg>
