<svg width="164" height="36" viewBox="0 0 164 36" fill="none" xmlns="http://www.w3.org/2000/svg">
<rect y="18" width="24" height="8" rx="2" fill="#F29F05"/>
<path d="M8 12C8 10.8954 8.89543 10 10 10H14C15.1046 10 16 10.8954 16 12V18H8V12Z" fill="#F29F05"/>
<path d="M32.875 21.6523C33.3438 21.8945 33.8867 22.0742 34.5039 22.1914C35.1289 22.3086 35.75 22.3672 36.3672 22.3672C37 22.3672 37.5273 22.3125 37.9492 22.2031C38.3789 22.0938 38.5938 21.9492 38.5938 21.7695C38.5938 21.5352 38.4414 21.3281 38.1367 21.1484C37.8398 20.9609 37.3359 20.7188 36.625 20.4219C35.6094 20 34.75 19.582 34.0469 19.168C33.3516 18.7539 32.7461 18.1719 32.2305 17.4219C31.7227 16.6641 31.4883 15.7227 31.5273 14.5977C31.5977 12.4961 32.2656 10.9492 33.5312 9.95703C34.8047 8.95703 36.4844 8.45703 38.5703 8.45703C39.5859 8.45703 40.6562 8.57031 41.7812 8.79688C42.9141 9.01562 44.0586 9.33594 45.2148 9.75781L43.9961 13.4492H43.7383C43.3789 13.3164 42.8711 13.2031 42.2148 13.1094C41.5586 13.0156 40.9219 12.9688 40.3047 12.9688C39.625 12.9688 39.0703 13.0312 38.6406 13.1562C38.2188 13.2812 38.0078 13.4805 38.0078 13.7539C38.1016 14.0352 38.3242 14.2852 38.6758 14.5039C39.0352 14.7148 39.5781 14.9844 40.3047 15.3125C41.2969 15.75 42.1211 16.1719 42.7773 16.5781C43.4414 16.9844 44.0156 17.543 44.5 18.2539C44.9844 18.9648 45.2266 19.8438 45.2266 20.8906C45.2266 21.125 45.207 21.4062 45.168 21.7344C44.9336 23.6328 44.1133 24.9961 42.707 25.8242C41.3086 26.6445 39.5938 27.0547 37.5625 27.0547C36.4844 27.0547 35.3945 26.9531 34.293 26.75C33.1992 26.5547 32.2188 26.3047 31.3516 26L32.5469 21.7344L32.875 21.6523ZM51.6953 23.1641C51.8984 23.1641 52.0781 23.0977 52.2344 22.9648C52.3984 22.832 52.5352 22.5547 52.6445 22.1328C52.7539 21.7031 52.8086 21.0781 52.8086 20.2578C52.5664 20.2578 52.3477 20.3984 52.1523 20.6797C51.957 20.9609 51.8047 21.3008 51.6953 21.6992C51.5859 22.0898 51.5312 22.4336 51.5312 22.7305C51.5312 22.8633 51.543 22.9688 51.5664 23.0469C51.5977 23.125 51.6406 23.1641 51.6953 23.1641ZM45.6016 22.7422C45.7109 21.4766 46.1055 20.5156 46.7852 19.8594C47.4727 19.2031 48.293 18.7695 49.2461 18.5586C50.207 18.3398 51.3672 18.2031 52.7266 18.1484C52.7031 17.7188 52.543 17.4102 52.2461 17.2227C51.957 17.0273 51.5703 16.9297 51.0859 16.9297C50.5703 16.9297 49.9961 17.0234 49.3633 17.2109C48.7383 17.3906 48.2031 17.5898 47.7578 17.8086L47.5469 17.668L46.4922 13.8828C47.4375 13.4688 48.5195 13.1484 49.7383 12.9219C50.957 12.6953 52.1562 12.582 53.3359 12.582C54.8516 12.582 56.0078 12.8672 56.8047 13.4375C57.6016 14.0078 58.1328 14.793 58.3984 15.793C58.6719 16.7852 58.8086 18.0625 58.8086 19.625C58.8086 20.1016 58.8047 20.4648 58.7969 20.7148C58.7891 21.0039 58.7852 21.4219 58.7852 21.9688C58.7852 23.0391 58.8125 23.957 58.8672 24.7227C58.9219 25.4883 58.9883 25.9141 59.0664 26L58.9727 26.375C58.6367 26.5625 58.1953 26.7227 57.6484 26.8555C57.1094 26.9883 56.5664 27.0547 56.0195 27.0547C55.3242 27.0547 54.7109 26.9336 54.1797 26.6914C53.6484 26.4492 53.2773 26.0625 53.0664 25.5312C52.5898 25.9922 51.957 26.3633 51.168 26.6445C50.3867 26.9258 49.5742 27.0664 48.7305 27.0664C48.1055 27.0664 47.5547 26.9219 47.0781 26.6328C46.6016 26.3438 46.2305 25.9219 45.9648 25.3672C45.707 24.8047 45.5781 24.1328 45.5781 23.3516C45.5781 23.0859 45.5859 22.8828 45.6016 22.7422ZM66.918 26.3398L66.7656 17.6914C66.7656 17.3711 66.6992 17.2109 66.5664 17.2109C66.4727 17.2109 66.3633 17.2812 66.2383 17.4219C66.1133 17.5547 66.0195 17.6875 65.957 17.8203L66.0273 26C65.9258 26.1484 65.3555 26.2422 64.3164 26.2812C63.2773 26.3203 62.0898 26.3398 60.7539 26.3398H59.8867L59.6641 13.8828C59.9219 13.7422 60.4297 13.5938 61.1875 13.4375C61.9453 13.2734 62.7266 13.1367 63.5312 13.0273C64.3359 12.9102 64.8906 12.8516 65.1953 12.8516L65.875 12.9922C65.8828 13.1406 65.8867 13.4141 65.8867 13.8125V14.7617H65.9688C66.4766 14.1211 67.1016 13.6016 67.8438 13.2031C68.5938 12.7969 69.3242 12.5938 70.0352 12.5938C70.6836 12.5938 71.2461 12.7812 71.7227 13.1562C72.207 13.5312 72.543 14.1094 72.7305 14.8906C73.332 14.1875 74.0078 13.6328 74.7578 13.2266C75.5078 12.8125 76.2266 12.6055 76.9141 12.6055C77.7734 12.6055 78.4688 12.9453 79 13.625C79.5391 14.2969 79.8125 15.332 79.8203 16.7305L79.9727 26C79.8711 26.1484 79.3008 26.2422 78.2617 26.2812C77.2227 26.3203 76.0352 26.3398 74.6992 26.3398H73.832L73.6797 17.6914C73.6797 17.3711 73.6133 17.2109 73.4805 17.2109C73.3867 17.2109 73.2773 17.2812 73.1523 17.4219C73.0273 17.5547 72.9336 17.6875 72.8711 17.8203L73.0586 26C72.957 26.1484 72.3867 26.2422 71.3477 26.2812C70.3086 26.3203 69.1211 26.3398 67.7852 26.3398H66.918ZM80.3359 17.7969C80.375 15.1641 80.7383 13.168 81.4258 11.8086C82.1133 10.4414 82.9805 9.54688 84.0273 9.125C85.082 8.69531 86.3477 8.48047 87.8242 8.48047C88.6367 8.48047 89.6328 8.61328 90.8125 8.87891C91.9922 9.13672 92.9297 9.42578 93.625 9.74609L92.3945 13.4023L92.1602 13.4492C91.1914 13.1836 90.3984 13.0508 89.7812 13.0508C89.0938 13.0508 88.5391 13.207 88.1172 13.5195C87.7031 13.8242 87.3867 14.3008 87.168 14.9492C86.9492 15.5898 86.8008 16.4375 86.7227 17.4922C86.6992 17.8047 86.6875 18.1094 86.6875 18.4062C86.6875 19.6328 86.9414 20.5664 87.4492 21.207C87.957 21.8477 88.832 22.168 90.0742 22.168C90.668 22.168 91.3359 22.0938 92.0781 21.9453L92.2891 22.0859L93.3789 26C93.0586 26.1719 92.5469 26.3398 91.8438 26.5039C91.1484 26.668 90.3789 26.8008 89.5352 26.9023C88.6992 27.0117 87.9297 27.0664 87.2266 27.0664C85.5703 27.0664 84.2344 26.7266 83.2188 26.0469C82.2109 25.3672 81.4766 24.375 81.0156 23.0703C80.5625 21.7656 80.3359 20.1328 80.3359 18.1719V17.7969ZM100.609 14.75H100.633L100.598 14.7617L100.609 14.75ZM94.5508 26.3398L94.2109 9.51172C94.4688 9.37109 94.9805 9.22266 95.7461 9.06641C96.5117 8.90234 97.3008 8.76562 98.1133 8.65625C98.9336 8.53906 99.5 8.48047 99.8125 8.48047L100.492 8.62109C100.5 8.76953 100.512 9.83594 100.527 11.8203L100.551 14.75H100.609C101.203 14.0781 101.859 13.5508 102.578 13.168C103.305 12.7852 104 12.5938 104.664 12.5938C105.523 12.5938 106.219 12.9336 106.75 13.6133C107.289 14.293 107.562 15.3281 107.57 16.7188L107.723 26C107.621 26.1484 107.051 26.2422 106.012 26.2812C104.973 26.3203 103.785 26.3398 102.449 26.3398H101.582L101.43 17.7031C101.43 17.375 101.363 17.2109 101.23 17.2109C101.137 17.2109 101.027 17.2812 100.902 17.4219C100.777 17.5625 100.684 17.6992 100.621 17.832L100.691 26C100.59 26.1484 100.02 26.2422 98.9805 26.2812C97.9414 26.3203 96.7539 26.3398 95.418 26.3398H94.5508ZM114.32 23.1641C114.523 23.1641 114.703 23.0977 114.859 22.9648C115.023 22.832 115.16 22.5547 115.27 22.1328C115.379 21.7031 115.434 21.0781 115.434 20.2578C115.191 20.2578 114.973 20.3984 114.777 20.6797C114.582 20.9609 114.43 21.3008 114.32 21.6992C114.211 22.0898 114.156 22.4336 114.156 22.7305C114.156 22.8633 114.168 22.9688 114.191 23.0469C114.223 23.125 114.266 23.1641 114.32 23.1641ZM108.227 22.7422C108.336 21.4766 108.73 20.5156 109.41 19.8594C110.098 19.2031 110.918 18.7695 111.871 18.5586C112.832 18.3398 113.992 18.2031 115.352 18.1484C115.328 17.7188 115.168 17.4102 114.871 17.2227C114.582 17.0273 114.195 16.9297 113.711 16.9297C113.195 16.9297 112.621 17.0234 111.988 17.2109C111.363 17.3906 110.828 17.5898 110.383 17.8086L110.172 17.668L109.117 13.8828C110.062 13.4688 111.145 13.1484 112.363 12.9219C113.582 12.6953 114.781 12.582 115.961 12.582C117.477 12.582 118.633 12.8672 119.43 13.4375C120.227 14.0078 120.758 14.793 121.023 15.793C121.297 16.7852 121.434 18.0625 121.434 19.625C121.434 20.1016 121.43 20.4648 121.422 20.7148C121.414 21.0039 121.41 21.4219 121.41 21.9688C121.41 23.0391 121.438 23.957 121.492 24.7227C121.547 25.4883 121.613 25.9141 121.691 26L121.598 26.375C121.262 26.5625 120.82 26.7227 120.273 26.8555C119.734 26.9883 119.191 27.0547 118.645 27.0547C117.949 27.0547 117.336 26.9336 116.805 26.6914C116.273 26.4492 115.902 26.0625 115.691 25.5312C115.215 25.9922 114.582 26.3633 113.793 26.6445C113.012 26.9258 112.199 27.0664 111.355 27.0664C110.73 27.0664 110.18 26.9219 109.703 26.6328C109.227 26.3438 108.855 25.9219 108.59 25.3672C108.332 24.8047 108.203 24.1328 108.203 23.3516C108.203 23.0859 108.211 22.8828 108.227 22.7422ZM129.543 26.3398L129.391 17.6914C129.391 17.3711 129.324 17.2109 129.191 17.2109C129.098 17.2109 128.988 17.2812 128.863 17.4219C128.738 17.5547 128.645 17.6875 128.582 17.8203L128.652 26C128.551 26.1484 127.98 26.2422 126.941 26.2812C125.902 26.3203 124.715 26.3398 123.379 26.3398H122.512L122.289 13.8828C122.547 13.7422 123.055 13.5938 123.812 13.4375C124.57 13.2734 125.352 13.1367 126.156 13.0273C126.961 12.9102 127.516 12.8516 127.82 12.8516L128.5 12.9922C128.508 13.1406 128.512 13.4141 128.512 13.8125V14.7617H128.594C129.102 14.1211 129.727 13.6016 130.469 13.2031C131.219 12.7969 131.949 12.5938 132.66 12.5938C133.309 12.5938 133.871 12.7812 134.348 13.1562C134.832 13.5312 135.168 14.1094 135.355 14.8906C135.957 14.1875 136.633 13.6328 137.383 13.2266C138.133 12.8125 138.852 12.6055 139.539 12.6055C140.398 12.6055 141.094 12.9453 141.625 13.625C142.164 14.2969 142.438 15.332 142.445 16.7305L142.598 26C142.496 26.1484 141.926 26.2422 140.887 26.2812C139.848 26.3203 138.66 26.3398 137.324 26.3398H136.457L136.305 17.6914C136.305 17.3711 136.238 17.2109 136.105 17.2109C136.012 17.2109 135.902 17.2812 135.777 17.4219C135.652 17.5547 135.559 17.6875 135.496 17.8203L135.684 26C135.582 26.1484 135.012 26.2422 133.973 26.2812C132.934 26.3203 131.746 26.3398 130.41 26.3398H129.543ZM143.195 13.8359C143.516 13.6797 144.051 13.5039 144.801 13.3086C145.559 13.1133 146.43 12.9453 147.414 12.8047C148.398 12.6562 149.375 12.582 150.344 12.582C152.516 12.582 154.113 13.1953 155.137 14.4219C156.168 15.6406 156.684 17.3047 156.684 19.4141C156.684 20.4531 156.555 21.6094 156.297 22.8828C156.102 23.8438 155.777 24.6367 155.324 25.2617C154.871 25.8867 154.348 26.3398 153.754 26.6211C153.168 26.9102 152.555 27.0547 151.914 27.0547C151.469 27.0547 151.035 26.9844 150.613 26.8438C150.199 26.7109 149.828 26.5195 149.5 26.2695C149.523 26.6602 149.535 27.1055 149.535 27.6055L149.559 29.832C149.457 29.9492 148.984 30.0352 148.141 30.0898C147.297 30.1445 146.422 30.1719 145.516 30.1719H143.418L143.195 13.8359ZM149.5 23.1406H149.723C149.926 23.1406 150.082 22.7773 150.191 22.0508C150.309 21.3164 150.367 20.4531 150.367 19.4609C150.367 18.5312 150.32 17.7266 150.227 17.0469C150.133 16.3672 150.004 16.0273 149.84 16.0273C149.684 16.0273 149.566 16.0469 149.488 16.0859L149.5 23.1406Z" fill="white" fill-opacity="0.87"/>
</svg>
