<svg width="375" height="463" viewBox="0 0 375 463" fill="none" xmlns="http://www.w3.org/2000/svg">
<g clip-path="url(#clip0_1860_10342)">
<path d="M151.017 333.728L153.683 349.732L171.768 447.377H174.681L161.533 349.732L159.588 333.728H151.017Z" fill="#DBDBDB"/>
<path d="M159.588 333.728H151.017L153.683 349.732H161.533L159.588 333.728Z" fill="#A6A6A6"/>
<path d="M94.2323 447.377H97.1452L115.23 349.732L117.896 333.728H109.326L107.38 349.732L94.2323 447.377Z" fill="#DBDBDB"/>
<path d="M109.325 333.728L107.38 349.732H115.23L117.896 333.728H109.325Z" fill="#A6A6A6"/>
<path d="M40 447.377H42.9129L60.9978 349.732L63.6633 333.728H55.0932L53.1475 349.732L40 447.377Z" fill="#DBDBDB"/>
<path d="M53.1475 349.732H60.9978L63.6632 333.728H55.0932L53.1475 349.732Z" fill="#A6A6A6"/>
<path d="M44.6226 341.241H177.11V327.284H127.512L110.844 254.584H49.6724L44.6226 341.241Z" fill="#DBDBDB"/>
<path d="M44.6226 341.241H51.843L56.5554 254.584H49.6724L44.6226 341.241Z" fill="#A6A6A6"/>
<path d="M176.098 459.738C173.601 460.052 105.389 444.138 103.173 441.99C102.904 441.754 105.299 428.55 105.299 428.55C106.424 423.163 124.959 379.266 124.959 379.266L169.597 390.266L150.658 431.002C150.658 431.002 159.16 436.76 166.471 442.249C169.698 444.528 172.785 446.999 175.715 449.649C177.886 452.303 178.595 459.445 176.098 459.738Z" fill="#C95F50"/>
<path d="M103.162 441.99C105.412 444.138 173.601 460.052 176.098 459.737C178.595 459.423 177.886 452.303 175.727 449.705C172.795 447.06 169.708 444.593 166.482 442.316C159.183 436.828 150.68 431.069 150.68 431.069L154.864 422.004L111.654 411.477C108.381 419.631 105.693 426.649 105.299 428.606C105.299 428.561 102.892 441.754 103.162 441.99Z" fill="#EBEBEB"/>
<path d="M176.345 459.929C173.77 460.199 104.995 444.79 102.757 442.541C101.891 441.698 103.556 431.564 105.918 419.373C105.918 419.249 105.918 419.114 105.996 418.99L150.466 428.438L150.286 429.191C150.286 429.191 173.961 446.849 176.154 449.582C178.347 452.315 178.876 459.67 176.345 459.929Z" fill="#F29F05"/>
<path d="M176.109 457.095C164.581 454.215 117.817 443.677 106.199 441.698C106.109 441.698 106.098 441.698 106.199 441.765C117.558 444.88 164.413 455.036 176.087 457.286C176.345 457.331 176.345 457.151 176.109 457.095Z" fill="#263238"/>
<path d="M155.325 429.675C150.95 427.797 145.203 427.245 141.008 429.675C140.839 429.776 141.008 430.001 141.143 429.99C145.816 429.564 150.521 429.639 155.179 430.215C155.238 430.206 155.293 430.181 155.338 430.142C155.383 430.102 155.415 430.051 155.431 429.993C155.446 429.935 155.445 429.875 155.426 429.818C155.407 429.761 155.372 429.712 155.325 429.675Z" fill="#263238"/>
<path d="M158.171 432.396C153.807 430.518 148.048 429.967 143.853 432.396C143.685 432.498 143.853 432.723 143.988 432.711C148.661 432.288 153.366 432.359 158.024 432.925C158.084 432.92 158.14 432.897 158.186 432.859C158.232 432.821 158.266 432.769 158.281 432.712C158.297 432.654 158.295 432.593 158.275 432.537C158.256 432.48 158.219 432.431 158.171 432.396Z" fill="#263238"/>
<path d="M161.016 435.107C156.652 433.24 150.894 432.689 146.699 435.107C146.53 435.208 146.699 435.433 146.834 435.422C151.507 434.993 156.212 435.064 160.87 435.636C160.926 435.626 160.979 435.6 161.021 435.561C161.064 435.523 161.094 435.473 161.11 435.417C161.125 435.362 161.124 435.304 161.108 435.249C161.091 435.194 161.059 435.145 161.016 435.107Z" fill="#263238"/>
<path d="M163.49 421.071C162.253 418.203 158.665 418.563 156.405 419.733C152.557 421.812 149.326 424.869 147.036 428.595C147.024 428.61 147.016 428.628 147.014 428.647C147.011 428.666 147.013 428.686 147.019 428.704C147.026 428.722 147.037 428.738 147.052 428.751C147.067 428.763 147.085 428.771 147.104 428.775C147.078 428.863 147.075 428.956 147.093 429.046C147.111 429.136 147.15 429.22 147.207 429.292C147.264 429.363 147.338 429.42 147.422 429.458C147.505 429.495 147.597 429.512 147.689 429.506C151.771 428.966 156.202 428.876 159.993 427.099C162.197 426.053 164.66 423.782 163.49 421.071ZM153.706 427.414C151.704 427.729 149.702 427.954 147.711 428.348C149.498 426.566 151.375 424.877 153.334 423.287C154.288 422.534 155.292 421.847 156.337 421.228C157.968 420.295 163.929 418.878 161.961 423.692C160.915 426.346 156.101 427.032 153.706 427.414Z" fill="#263238"/>
<path d="M135.699 424.805C139.073 427.245 143.448 428.179 147.351 429.416C147.44 429.437 147.533 429.438 147.622 429.416C147.711 429.395 147.794 429.353 147.864 429.294C147.934 429.235 147.99 429.161 148.025 429.076C148.061 428.992 148.077 428.9 148.071 428.809C148.138 428.809 148.206 428.73 148.172 428.64C146.6 424.559 143.982 420.963 140.58 418.214C138.567 416.651 135.103 415.65 133.36 418.214C131.617 420.779 133.72 423.377 135.699 424.805ZM134.372 421.093C133.36 416.01 138.961 418.484 140.4 419.699C141.317 420.501 142.178 421.365 142.976 422.286C144.599 424.201 146.123 426.198 147.542 428.269C145.664 427.515 143.73 426.942 141.829 426.267C139.546 425.457 134.935 423.905 134.372 421.093Z" fill="#263238"/>
<path opacity="0.2" d="M156.236 455.981C167.044 458.343 175.423 460.03 176.289 459.94C178.876 459.681 178.302 452.303 176.109 449.582C173.263 446.893 170.258 444.377 167.112 442.046L156.236 455.981Z" fill="black"/>
<path d="M153.638 429.54L106.3 418.383C106.3 418.383 145.799 327.835 142.29 323.235C140.547 320.929 96.4703 320.254 82.4568 308.378C64.2482 292.947 76.4622 269.374 76.4622 269.374L125.735 267.923C125.735 267.923 125.138 278.203 127.062 279.743C128.321 280.778 186.974 285.715 193.418 305.476C201.313 329.713 153.638 429.54 153.638 429.54Z" fill="#37474F"/>
<path d="M153.615 422.218C152.378 421.633 140.119 418.034 137.364 417.337C131.83 415.92 126.274 414.525 120.707 413.254C117.794 412.591 111.564 411.151 111.181 411.219C111.001 411.219 110.968 411.556 111.181 411.612C116.58 413.389 122.057 414.896 127.534 416.426C133.011 417.955 151.872 422.488 153.526 422.6C153.649 422.612 153.852 422.297 153.615 422.218Z" fill="#263238"/>
<path d="M150.748 319.152C149.629 318.462 148.35 318.075 147.036 318.027L125.667 314.462C119.02 313.338 112.328 312.359 105.715 311.088C100.238 310.031 94.6596 308.603 89.9697 305.633C85.3286 302.714 81.8917 298.223 80.2862 292.981C78.7886 287.713 78.364 282.198 79.0378 276.763C79.1615 275.436 79.4089 274.12 79.6564 272.815C79.6564 272.714 79.5102 272.68 79.4989 272.815C77.6882 282.937 77.5307 294.589 85.1223 302.631C88.8113 306.544 93.8724 308.839 99.0347 310.335C104.931 311.836 110.909 312.997 116.94 313.81L138.309 317.364C141.683 317.937 145.203 318.376 148.599 319.085C149.281 319.174 149.922 319.459 150.444 319.906C150.694 320.259 150.853 320.669 150.906 321.099C150.959 321.529 150.904 321.965 150.748 322.369C150.41 324.045 149.949 325.743 149.477 327.34C145.597 340.577 116.962 408.092 116.197 409.543C116.187 409.573 116.188 409.606 116.2 409.636C116.212 409.666 116.234 409.691 116.263 409.706C116.291 409.721 116.324 409.725 116.355 409.718C116.387 409.711 116.414 409.692 116.434 409.667C122.957 398.06 144.382 344.919 148.689 332.401C149.824 329.216 150.756 325.963 151.479 322.661C151.602 321.379 151.794 320.041 150.748 319.152Z" fill="#263238"/>
<path d="M246.503 462.718C244.119 463.516 175.851 462.56 173.252 460.896C170.407 458.185 169.192 393.775 169.192 393.775L213.111 393.415L215.855 439.662C215.855 439.662 225.337 443.61 233.592 447.535C237.205 449.127 240.72 450.933 244.119 452.944C246.784 455.07 248.887 461.931 246.503 462.718Z" fill="#C95F50"/>
<path d="M170.385 431.879C171.037 446.354 171.97 459.704 173.241 460.896C175.839 462.56 244.096 463.528 246.503 462.718C248.91 461.908 246.784 455.081 244.141 452.967C240.74 450.954 237.221 449.148 233.603 447.557C225.348 443.632 215.867 439.684 215.867 439.684L215.406 431.902L170.385 431.879Z" fill="#EBEBEB"/>
<path d="M247.909 462.763C245.435 463.584 174.962 463.246 172.296 461.526C171.262 460.896 170.711 450.639 170.407 438.222V437.829L215.867 437.547V438.312C215.867 438.312 242.78 450.493 245.525 452.686C248.269 454.879 250.372 461.964 247.909 462.763Z" fill="#F29F05"/>
<path d="M247.122 460.03C235.245 459.681 187.3 459.4 175.536 459.951C175.434 459.951 175.434 460.03 175.536 460.03C187.3 460.637 235.245 460.525 247.122 460.232C247.369 460.244 247.369 460.041 247.122 460.03Z" fill="#263238"/>
<path d="M220.928 437.75C216.26 436.862 210.536 437.548 206.948 440.854C206.813 440.989 206.948 441.18 207.15 441.135C211.627 439.718 216.242 438.782 220.917 438.346C220.986 438.334 221.049 438.298 221.095 438.245C221.141 438.191 221.167 438.123 221.168 438.053C221.169 437.982 221.146 437.913 221.102 437.858C221.058 437.803 220.997 437.765 220.928 437.75Z" fill="#263238"/>
<path d="M224.302 439.741C219.623 438.852 213.91 439.538 210.322 442.845C210.176 442.98 210.322 443.171 210.513 443.126C214.989 441.708 219.604 440.773 224.279 440.337C224.349 440.326 224.413 440.291 224.46 440.239C224.507 440.186 224.534 440.119 224.537 440.048C224.54 439.977 224.518 439.908 224.475 439.852C224.432 439.796 224.371 439.756 224.302 439.741Z" fill="#263238"/>
<path d="M227.665 441.788C222.986 440.899 217.272 441.585 213.685 444.892C213.539 445.027 213.685 445.218 213.876 445.173C218.352 443.755 222.967 442.82 227.642 442.384C227.712 442.373 227.776 442.338 227.823 442.286C227.87 442.233 227.897 442.166 227.9 442.095C227.902 442.024 227.88 441.955 227.837 441.899C227.795 441.843 227.733 441.803 227.665 441.788Z" fill="#263238"/>
<path d="M227.057 427.549C225.235 425.007 221.805 426.132 219.848 427.763C216.537 430.615 214.036 434.288 212.594 438.414C212.587 438.432 212.584 438.452 212.586 438.472C212.588 438.492 212.595 438.511 212.606 438.527C212.617 438.544 212.632 438.557 212.65 438.567C212.667 438.577 212.687 438.582 212.706 438.582C212.701 438.674 212.718 438.765 212.755 438.849C212.792 438.933 212.849 439.006 212.921 439.064C212.992 439.121 213.077 439.16 213.166 439.178C213.256 439.196 213.349 439.192 213.437 439.167C217.306 437.761 221.614 436.738 224.932 434.185C226.866 432.689 228.789 429.945 227.057 427.549ZM218.87 435.838C216.98 436.58 215.068 437.221 213.246 438.031C214.596 435.912 216.056 433.866 217.621 431.902C218.388 430.957 219.218 430.067 220.107 429.236C221.501 427.976 227.024 425.311 226.18 430.428C225.674 433.251 221.108 434.961 218.87 435.838Z" fill="#263238"/>
<path d="M200.728 437.143C204.564 438.796 208.995 438.74 213.1 439.156C213.527 439.156 213.741 438.751 213.674 438.402C213.688 438.391 213.699 438.376 213.707 438.36C213.715 438.343 213.719 438.325 213.719 438.307C213.719 438.288 213.715 438.27 213.707 438.254C213.699 438.237 213.688 438.223 213.674 438.211C211.262 434.565 207.934 431.617 204.024 429.664C201.718 428.539 198.13 428.325 196.983 431.227C195.836 434.129 198.479 436.175 200.728 437.143ZM198.625 433.769C196.545 429.011 202.55 430.237 204.249 431.114C205.315 431.701 206.341 432.359 207.319 433.083C209.316 434.608 211.234 436.233 213.066 437.952C211.064 437.626 209.062 437.48 207.049 437.221C204.62 436.951 199.772 436.423 198.625 433.802V433.769Z" fill="#263238"/>
<path d="M218.296 438.076H168.81C168.81 438.076 169.428 348.698 165.548 343.749C160.375 337.136 87.9452 337.282 72.4133 315.733C58.4672 296.366 70.2427 268.969 70.2427 268.969L125.093 267.338C123.854 273.213 122.155 278.982 120.01 284.591C120.01 284.591 186.074 296.771 204.586 317.004C217.025 330.68 218.296 438.076 218.296 438.076Z" fill="#37474F"/>
<path d="M129.604 280.845C128.013 281.199 126.459 281.696 124.959 282.33C123.384 282.937 121.832 283.612 120.314 284.354C117.337 285.832 114.443 287.469 111.642 289.258C111.552 289.258 111.642 289.427 111.732 289.382C114.69 287.841 117.761 286.458 120.831 285.142L125.262 283.23C126.796 282.652 128.298 281.991 129.761 281.25C129.801 281.221 129.83 281.179 129.844 281.132C129.858 281.084 129.855 281.034 129.837 280.988C129.82 280.941 129.787 280.903 129.745 280.877C129.702 280.851 129.653 280.84 129.604 280.845Z" fill="#263238"/>
<path d="M126.319 267.327C125.69 269.824 125.195 272.343 124.419 274.828C124.093 275.953 123.766 277.078 123.294 278.202C122.934 279.125 122.383 280.193 121.303 280.396C120.224 280.598 119.706 279.575 119.808 278.551C119.909 277.528 120.212 276.302 120.437 275.177C120.696 273.884 120.966 272.579 121.202 271.286C121.315 270.633 121.438 269.981 121.551 269.329C121.551 269.16 121.697 267.912 121.787 267.552C121.787 267.552 121.787 267.619 121.854 267.608C121.854 267.608 121.933 267.608 121.933 267.54C121.933 267.473 121.933 267.417 121.866 267.349C121.798 267.282 121.798 267.349 121.753 267.349C121.517 267.484 121.506 267.81 121.427 268.047C121.225 268.676 121.022 269.317 120.831 269.947C120.482 271.139 120.145 272.343 119.841 273.546C119.538 274.75 119.245 275.953 118.953 277.157C118.638 278.047 118.553 279.002 118.705 279.934C118.818 280.378 119.07 280.774 119.424 281.063C119.779 281.353 120.217 281.521 120.674 281.543L120.539 281.779C120.426 282.026 120.347 282.285 120.257 282.544C120.167 282.802 120.077 283.061 119.999 283.32C119.965 283.449 119.943 283.581 119.931 283.713C119.931 283.86 119.931 283.995 119.931 284.141C119.931 284.287 120.212 284.501 120.325 284.287C120.397 284.163 120.476 284.043 120.561 283.927C120.635 283.795 120.695 283.655 120.741 283.511C120.82 283.264 120.899 283.016 120.955 282.757C121.011 282.499 121.101 282.251 121.146 281.993C121.158 281.839 121.158 281.685 121.146 281.532C121.672 281.488 122.174 281.297 122.597 280.98C123.299 280.388 123.818 279.608 124.093 278.731C124.464 277.696 124.756 276.617 125.049 275.548C125.821 272.917 126.356 270.222 126.646 267.495C126.792 267.136 126.387 267.034 126.319 267.327Z" fill="#263238"/>
<path d="M93.7035 273.445C93.4786 274.682 93.3324 275.942 93.04 277.168C92.7476 278.394 92.4326 279.575 92.039 280.744C91.6839 281.887 91.169 282.974 90.5094 283.972C89.8231 284.91 89.0049 285.743 88.0801 286.446C86.3108 287.848 84.3238 288.95 82.198 289.708C81.1319 290.095 80.0426 290.414 78.9364 290.664C78.3629 290.799 77.8118 290.9 77.1932 290.979C76.7083 290.99 76.2305 291.097 75.7873 291.294C75.7455 291.32 75.711 291.357 75.6872 291.4C75.6633 291.443 75.6508 291.492 75.6508 291.541C75.6508 291.591 75.6633 291.639 75.6872 291.683C75.711 291.726 75.7455 291.762 75.7873 291.789C76.6328 292.034 77.5266 292.061 78.3854 291.867C79.3212 291.769 80.2493 291.608 81.1633 291.384C83.0116 290.886 84.78 290.129 86.4156 289.134C88.0956 288.218 89.6027 287.015 90.8693 285.58C92.039 284.071 92.8435 282.312 93.2199 280.441C93.7995 278.163 94.0569 275.816 93.9847 273.468C93.9285 273.333 93.726 273.31 93.7035 273.445Z" fill="#263238"/>
<path d="M175.884 376.084C175.397 368.301 174.752 360.537 173.95 352.791C173.747 350.879 173.556 348.956 173.32 347.056C173.184 345.566 172.859 344.099 172.353 342.692C171.228 339.779 168.788 338.305 165.852 337.574C162.388 336.697 158.8 336.169 155.28 335.606C151.76 335.044 148.06 334.482 144.438 333.998C137.116 332.974 129.817 332.03 122.496 330.804C115.221 329.65 108.027 328.035 100.958 325.968C94.4797 324.011 87.8329 321.593 82.6481 317.105C71.48 307.444 71.0751 291.238 72.4359 277.741C72.6271 275.829 72.8633 273.929 73.0995 272.017C73.0995 271.915 72.9533 271.882 72.942 272.017C72.0648 279.642 71.0301 287.324 71.8174 295.005C72.3054 301.364 74.4031 307.495 77.9132 312.82C81.6921 318.23 87.293 321.728 93.3326 324.168C99.9951 326.736 106.871 328.712 113.881 330.073C128.355 333.109 143.122 334.392 157.687 336.877C159.486 337.181 161.275 337.507 163.063 337.856C164.726 338.109 166.355 338.546 167.922 339.16C171.228 340.634 172.139 343.85 172.544 347.179C173.5 354.895 174.141 362.655 174.703 370.415C175.828 386.037 176.424 401.749 176.402 417.416C176.402 419.35 176.402 425.862 176.402 427.797C176.402 427.965 176.66 427.943 176.66 427.797C177.076 412.006 176.874 391.75 175.884 376.084Z" fill="#263238"/>
<path d="M215.979 430.305C204.732 429.54 172.499 429.855 172.117 430.012C171.948 430.091 171.993 430.395 172.173 430.406C177.796 430.811 214.292 431.002 215.923 430.709C216.103 430.676 216.17 430.316 215.979 430.305Z" fill="#263238"/>
<path d="M120.302 284.793C130.427 286.006 140.433 288.056 150.219 290.923C160.085 293.695 169.735 297.187 179.09 301.371C184.342 303.722 189.425 306.353 194.453 309.12C194.554 309.176 194.453 309.322 194.363 309.277C185.271 304.579 175.878 300.487 166.246 297.03C156.699 293.553 146.93 290.72 137.004 288.55C131.381 287.335 125.757 286.39 120.134 285.457C119.819 285.333 119.92 284.692 120.302 284.793Z" fill="#263238"/>
<path d="M168.551 363.735C168.203 358.359 167.64 352.983 166.763 347.652C166.403 345.504 166.313 342.726 164.053 341.657C163.007 341.151 142.02 337.507 139.006 337.563C138.975 337.565 138.946 337.577 138.922 337.597C138.898 337.617 138.881 337.644 138.874 337.674C138.866 337.704 138.869 337.735 138.88 337.764C138.892 337.793 138.912 337.817 138.938 337.833C139.22 337.957 159.183 341.725 161.702 342.332C162.244 342.372 162.772 342.522 163.253 342.773C163.735 343.025 164.16 343.372 164.502 343.794C164.983 344.887 165.268 346.055 165.346 347.247C167.029 357.697 167.961 368.255 168.135 378.839C168.218 381.778 168.266 384.706 168.281 387.623C168.281 390.637 168.18 393.685 168.405 396.677C168.405 396.742 168.431 396.805 168.478 396.852C168.524 396.898 168.587 396.924 168.653 396.924C168.718 396.924 168.781 396.898 168.828 396.852C168.874 396.805 168.9 396.742 168.9 396.677C169.125 393.955 169.046 391.177 169.057 388.444C169.069 385.711 169.057 382.955 169.057 380.2C169.046 374.7 168.923 369.212 168.551 363.735Z" fill="#263238"/>
<path d="M122.54 217.908C136.723 236.769 170.407 263.289 178.313 257.115C188.031 249.534 186.186 221.642 186.434 218.054C186.647 214.219 154.785 215.186 156.067 219.1C156.821 221.417 157.192 223.903 156.573 223.667C154.695 222.924 150.522 219.168 132.426 209.046C122.36 203.389 113.149 205.424 122.54 217.908Z" fill="#C95F50"/>
<path d="M151.602 218.988L144.146 226.31L134.788 235.487C134.788 235.487 124.138 225.162 119.526 216.649C116.152 210.384 116.04 205.098 119.391 203.951C121.061 203.532 122.824 203.698 124.385 204.423C136.453 208.933 151.602 218.988 151.602 218.988Z" fill="#F29F05"/>
<path d="M147.25 217.076C144.269 219.798 133.472 229.886 132.629 231.697C132.629 231.697 132.708 231.832 132.753 231.821C134.507 230.966 144.697 220.27 147.43 217.312C147.475 217.2 147.306 217.031 147.25 217.076Z" fill="#263238"/>
<path d="M144.146 226.31L134.788 235.487C134.788 235.487 124.138 225.162 119.526 216.648C116.152 210.384 116.04 205.098 119.391 203.951L144.146 226.31Z" fill="#263238"/>
<path d="M186.467 200.993C188.267 207.1 187.063 221.035 185.489 224.285C183.914 227.535 160.139 226.287 158.024 223.228C155.91 220.169 151.434 199.137 153.897 193.12C156.36 187.103 184.578 194.661 186.467 200.993Z" fill="#C95F50"/>
<path d="M159.194 179.433C158.17 176.666 153.177 168.737 150.77 169.659C148.363 170.582 150.511 176.857 151.456 179.377C153.424 184.561 153.357 192.22 153.267 195.932C153.177 199.643 161.848 195.932 161.848 195.932C161.848 195.932 161.871 186.619 159.194 179.433Z" fill="#C95F50"/>
<path d="M155.696 201.173C155.696 201.173 155.359 207.707 158.834 209.046C162.309 210.384 163.524 205.154 163.625 204.794C163.625 205.132 163.456 211.149 167.1 212.15C170.744 213.151 171.329 207.764 171.352 207.415C171.442 207.741 172.69 212.105 175.614 212.24C180.664 212.465 177.785 201.229 180.012 197.799C180.012 197.799 186.254 200.914 186.445 200.971C186.445 200.971 183.926 190.219 179.146 187.474C178.456 187.062 177.645 186.899 176.849 187.012C176.053 187.124 175.32 187.506 174.771 188.093C174.771 188.093 174.343 184.539 171.498 183.662C170.047 183.212 168.034 185.146 168.034 185.146C167.894 184.347 167.537 183.602 167.001 182.993C166.466 182.383 165.772 181.934 164.997 181.693C162.95 181.187 160.971 183.167 160.499 184.044C156.573 190.803 155.696 201.173 155.696 201.173Z" fill="#C95F50"/>
<path d="M168.034 185.067C168.034 185.011 167.955 184.955 167.91 185.067C164.078 190.956 162.482 198.022 163.411 204.986C163.411 205.233 163.738 205.402 163.704 205.121C163.288 200.329 165.593 190.398 168.034 185.067Z" fill="#263238"/>
<path d="M171.599 207.899C170.767 201.083 172.195 194.684 174.613 188.329C174.613 188.239 174.523 188.205 174.478 188.262C172.454 191.062 171.329 195.268 170.744 198.631C170.13 201.732 170.343 204.94 171.363 207.932C171.408 208.045 171.622 208.045 171.599 207.899Z" fill="#263238"/>
<path d="M155.696 201.173C155.747 202.43 155.913 203.68 156.191 204.907C156.416 206.113 156.955 207.238 157.754 208.168C158.143 208.573 158.668 208.817 159.228 208.854C159.794 208.89 160.36 208.778 160.87 208.528C161.358 208.242 161.779 207.855 162.107 207.394C162.435 206.932 162.661 206.407 162.77 205.852L163.434 203.152L163.749 205.908C163.875 207.135 164.206 208.332 164.727 209.451C164.937 209.98 165.256 210.46 165.663 210.859C166.07 211.258 166.556 211.567 167.089 211.767C167.588 211.944 168.133 211.944 168.632 211.768C169.131 211.592 169.555 211.251 169.833 210.8C170.438 209.776 170.771 208.615 170.801 207.426L171.003 204.153L171.88 207.291C172.126 208.168 172.482 209.011 172.937 209.799C173.343 210.56 173.965 211.182 174.726 211.587C175.074 211.76 175.463 211.83 175.849 211.79C176.235 211.75 176.602 211.602 176.908 211.363C177.513 210.743 177.927 209.962 178.1 209.113C178.505 207.262 178.761 205.382 178.865 203.49C178.955 202.534 179.045 201.578 179.179 200.622C179.255 199.654 179.539 198.714 180.012 197.866C179.641 198.75 179.446 199.697 179.438 200.656C179.382 201.6 179.371 202.556 179.359 203.523C179.376 205.465 179.214 207.404 178.876 209.316C178.706 210.356 178.237 211.325 177.526 212.105C177.092 212.484 176.556 212.729 175.985 212.809C175.414 212.888 174.831 212.8 174.31 212.555C173.361 212.07 172.578 211.315 172.06 210.384C171.535 209.519 171.127 208.589 170.846 207.617L171.97 207.494C171.947 208.899 171.56 210.275 170.846 211.486C170.43 212.148 169.798 212.645 169.057 212.892C168.325 213.12 167.54 213.12 166.808 212.892C166.129 212.645 165.51 212.256 164.993 211.752C164.475 211.248 164.07 210.64 163.805 209.968C163.262 208.725 162.921 207.404 162.793 206.054L163.771 206.122C163.61 206.806 163.301 207.446 162.866 207.998C162.43 208.55 161.88 208.999 161.252 209.316C160.602 209.588 159.895 209.692 159.194 209.619C158.482 209.53 157.827 209.187 157.349 208.652C156.54 207.607 156.038 206.357 155.899 205.042C155.686 203.764 155.618 202.466 155.696 201.173Z" fill="#263238"/>
<path d="M156.607 219.786C156.607 219.786 139.377 198.957 150.815 196.168C154.189 195.347 169.147 196.056 169.069 199.059C168.956 202.927 162.669 203.805 158.632 203.715C158.632 203.715 165.492 209.979 162.557 216.086C161.999 217.189 161.149 218.117 160.1 218.769C159.051 219.422 157.843 219.773 156.607 219.786Z" fill="#C95F50"/>
<path d="M149.882 196.494C151.175 196.017 152.532 195.733 153.908 195.651C155.284 195.531 156.667 195.501 158.047 195.561C160.815 195.651 163.569 195.982 166.279 196.551C167 196.696 167.694 196.95 168.338 197.304C168.714 197.503 169.04 197.783 169.294 198.125C169.43 198.314 169.536 198.522 169.609 198.744C169.667 198.964 169.693 199.191 169.687 199.418C169.654 200.255 169.323 201.053 168.754 201.668C168.223 202.211 167.603 202.66 166.921 202.995C165.622 203.601 164.23 203.982 162.804 204.12C161.419 204.273 160.024 204.326 158.632 204.277L158.947 203.434C159.705 204.176 160.39 204.99 160.993 205.863C161.596 206.725 162.112 207.644 162.534 208.607C162.941 209.576 163.206 210.599 163.322 211.644C163.434 212.682 163.346 213.732 163.063 214.737C163.21 213.728 163.187 212.701 162.995 211.7C162.792 210.713 162.452 209.759 161.983 208.866C161.53 207.966 160.988 207.115 160.364 206.324C159.746 205.542 159.061 204.816 158.317 204.153L157.383 203.355H158.643C159.986 203.352 161.328 203.258 162.658 203.074C163.958 202.922 165.226 202.565 166.414 202.016C167.539 201.454 168.529 200.532 168.54 199.475C168.551 198.417 167.247 197.99 166.01 197.664C164.701 197.335 163.376 197.076 162.039 196.888C160.701 196.674 159.351 196.472 158.002 196.348C155.304 195.975 152.564 196.024 149.882 196.494Z" fill="#263238"/>
<path d="M156.573 223.667L157.507 226.332L158.407 229.009L160.229 234.329C160.836 236.106 161.454 237.871 162.107 239.626C162.433 240.503 162.759 241.38 163.119 242.246C163.479 243.112 163.85 243.978 164.244 244.856C163.211 243.272 162.305 241.61 161.533 239.885C160.746 238.164 160.082 236.387 159.453 234.61C158.823 232.833 158.328 231.022 157.822 229.2C157.316 227.378 156.866 225.534 156.573 223.667Z" fill="#263238"/>
<path d="M132.415 282.341C130.728 283.691 63.9334 284.444 63.6522 283.972C62.8874 282.69 81.0061 221.755 109.483 202.815C114.499 199.441 122.147 201.791 125.454 204.378C127.118 205.683 131.943 215.546 132.607 223.61C133.27 231.674 133.484 281.475 132.415 282.341Z" fill="#F29F05"/>
<path d="M133.157 257.306V257.801C132.843 257.61 132.516 257.396 132.213 257.171C129.792 255.279 127.701 252.999 126.027 250.423C124.272 247.937 122.653 245.339 121.101 242.775C118.939 239.114 116.447 235.658 113.655 232.45L113.307 232.079C112.199 230.919 110.995 229.854 109.708 228.896C107.291 227.125 104.498 225.936 101.546 225.423C98.5943 224.91 95.5638 225.086 92.6913 225.938C90.1853 226.762 87.8845 228.111 85.9432 229.897L86.7642 228.525C88.4792 227.156 90.4257 226.104 92.5114 225.421C95.464 224.533 98.5819 224.341 101.621 224.859C104.663 225.416 107.53 226.684 109.989 228.559C111.4 229.613 112.71 230.795 113.903 232.09C114.027 232.225 114.15 232.349 114.263 232.484C116.962 235.64 119.378 239.027 121.483 242.606C123.08 245.182 124.644 247.769 126.376 250.243C128.023 252.759 130.071 254.989 132.438 256.845C132.696 257.002 132.921 257.16 133.157 257.306ZM126.859 260.185C123.681 260.078 120.56 259.312 117.693 257.936C111.901 255.18 107.245 250.625 102.6 246.228C100.913 244.631 99.2257 243.034 97.46 241.527L97.1788 241.279C96.594 240.784 96.0541 240.301 95.3793 239.828C92.8696 237.757 89.9368 236.259 86.7867 235.442C85.5593 235.161 84.2994 235.048 83.0415 235.105L82.7829 235.554C84.0959 235.468 85.4145 235.574 86.6968 235.869C89.7784 236.686 92.6453 238.163 95.0981 240.199C95.683 240.649 96.2228 241.11 96.8077 241.583C96.9102 241.659 97.0078 241.742 97.1001 241.83C98.8771 243.337 100.575 244.968 102.274 246.576C106.896 250.985 111.575 255.574 117.457 258.408C120.388 259.838 123.588 260.635 126.848 260.747C128.971 260.803 131.092 260.579 133.157 260.084C133.157 259.893 133.157 259.713 133.157 259.521C131.096 260.017 128.979 260.24 126.859 260.185ZM133.112 244.439C132.426 243.315 131.718 242.19 130.964 241.065C129.274 238.507 127.132 236.278 124.644 234.486C122.07 232.762 119.024 231.882 115.927 231.967C115.264 231.967 114.611 231.967 113.948 232.079L113.318 232.158C112.664 232.244 112.014 232.364 111.372 232.518C109.893 232.908 108.458 233.447 107.087 234.126C103.517 236.107 100.191 238.5 97.1788 241.257C97.0551 241.358 96.9314 241.47 96.8077 241.56C95.4131 242.764 94.0072 243.945 92.5676 245.058C90.2086 246.945 87.6292 248.539 84.886 249.804C82.1238 251.025 79.1628 251.734 76.1472 251.896C75.6749 251.896 75.2137 251.896 74.7526 251.896C74.7526 251.997 74.6626 252.099 74.6289 252.2L76.1697 252.144C79.2185 251.986 82.2135 251.277 85.0097 250.052C87.78 248.78 90.3888 247.183 92.7813 245.294C94.2546 244.17 95.683 242.966 97.1001 241.763L97.46 241.459C100.438 238.738 103.731 236.382 107.267 234.441C108.612 233.776 110.021 233.252 111.474 232.878C112.214 232.699 112.965 232.567 113.723 232.484H114.364C114.904 232.428 115.489 232.405 115.984 232.394C118.994 232.327 121.952 233.191 124.452 234.868C126.891 236.634 128.987 238.829 130.638 241.347C131.538 242.64 132.37 243.967 133.18 245.328C133.112 245.013 133.112 244.698 133.101 244.395L133.112 244.439Z" fill="white"/>
<path d="M124.992 215.951C121.078 215.782 116.366 208.382 115.163 203.141C115.084 202.781 119.909 190.691 120.617 188.194C120.763 187.688 135.238 196.449 135.238 196.449C133.459 199.312 132.039 202.383 131.009 205.593C130.874 205.953 128.782 216.12 124.992 215.951Z" fill="#C95F50"/>
<path d="M121.112 188.329C120.763 192.569 120.673 203.838 129.131 206.459C129.642 206.614 130.165 206.727 130.694 206.796C130.863 206.11 130.964 205.672 130.976 205.582C132.007 202.376 133.427 199.309 135.204 196.449C135.132 196.391 135.053 196.342 134.968 196.303C134.867 196.224 134.732 196.157 134.575 196.056L134.406 195.954C134.316 195.887 134.203 195.831 134.091 195.763L133.686 195.516L133.011 195.122L132.764 194.965L132.246 194.65L130.199 193.435L129.423 192.974C129.086 192.783 128.749 192.592 128.422 192.378L127.422 191.804L127.298 191.737L125.6 190.747L125.037 190.421L123.913 189.814L123.181 189.409L121.742 188.644L121.416 188.486L121.112 188.329Z" fill="#263238"/>
<path d="M125.656 169.401C121.967 174.169 118.908 190.77 121.438 195.752C125.093 202.894 134.023 206.83 140.839 201.769C147.452 196.865 151.051 175.092 147.958 170.278C143.403 163.327 131.11 162.36 125.656 169.401Z" fill="#C95F50"/>
<path d="M136.745 185.349C136.745 185.349 136.644 185.349 136.644 185.427C136.397 186.552 135.924 187.834 134.811 187.958V188.025C136.093 188.16 136.7 186.473 136.745 185.349Z" fill="#263238"/>
<path d="M136.037 183.92C134.248 183.335 133.203 186.946 134.912 187.497C136.622 188.048 137.533 184.415 136.037 183.92Z" fill="#263238"/>
<path d="M143.156 186.698C143.156 186.698 143.235 186.777 143.156 186.822C142.796 187.947 142.56 189.251 143.46 189.926C142.301 189.442 142.605 187.688 143.156 186.698Z" fill="#263238"/>
<path d="M144.506 185.821C146.339 186.226 145.405 189.87 143.707 189.499C142.009 189.128 142.965 185.495 144.506 185.821Z" fill="#263238"/>
<path d="M133.607 194.549C133.787 194.897 133.933 195.336 134.316 195.504C134.729 195.641 135.167 195.683 135.598 195.628C135.598 195.628 135.665 195.684 135.598 195.707C135.366 195.87 135.094 195.967 134.811 195.989C134.528 196.01 134.244 195.956 133.99 195.831C133.785 195.695 133.624 195.503 133.528 195.277C133.432 195.051 133.405 194.801 133.45 194.56C133.449 194.549 133.45 194.539 133.454 194.529C133.457 194.519 133.462 194.51 133.469 194.502C133.476 194.495 133.484 194.488 133.493 194.484C133.503 194.479 133.513 194.476 133.523 194.475C133.533 194.475 133.544 194.476 133.554 194.479C133.563 194.483 133.572 194.488 133.58 194.494C133.588 194.501 133.595 194.51 133.599 194.519C133.604 194.528 133.607 194.538 133.607 194.549Z" fill="#263238"/>
<path d="M140.018 191.444C140.018 191.444 139.782 193.188 139.568 193.975C138.017 193.562 136.416 193.362 134.811 193.379C134.429 193.379 134.507 193.109 134.968 192.985C136.317 192.609 137.748 192.648 139.073 193.098C139.197 192.895 139.388 190.41 139.512 190.443C140.113 190.666 140.68 190.968 141.199 191.343C141.784 187.733 141.795 184.044 142.436 180.456C142.444 180.434 142.458 180.414 142.477 180.4C142.496 180.386 142.519 180.379 142.543 180.379C142.567 180.379 142.59 180.386 142.609 180.4C142.628 180.414 142.643 180.434 142.65 180.456C142.769 184.399 142.49 188.344 141.818 192.232C141.761 192.715 140.356 191.669 140.018 191.444Z" fill="#263238"/>
<path d="M134.732 180.917C135.249 180.839 135.733 180.839 136.25 180.805C136.782 180.697 137.334 180.764 137.825 180.996C137.964 181.1 138.064 181.247 138.111 181.413C138.157 181.58 138.148 181.758 138.084 181.918C137.907 182.215 137.655 182.46 137.352 182.628C137.05 182.796 136.709 182.881 136.363 182.874C135.66 182.969 134.947 182.801 134.361 182.402C134.231 182.303 134.133 182.169 134.079 182.015C134.025 181.861 134.017 181.695 134.057 181.537C134.096 181.379 134.181 181.236 134.301 181.126C134.421 181.016 134.571 180.943 134.732 180.917Z" fill="#263238"/>
<path d="M147.666 181.885C147.282 181.548 146.881 181.232 146.462 180.94C146.091 180.549 145.6 180.293 145.068 180.209C144.895 180.213 144.729 180.275 144.597 180.385C144.464 180.495 144.372 180.647 144.337 180.816C144.311 181.162 144.379 181.509 144.534 181.819C144.688 182.13 144.923 182.393 145.214 182.582C145.741 183.058 146.427 183.319 147.137 183.313C147.298 183.303 147.453 183.247 147.583 183.15C147.712 183.054 147.811 182.922 147.867 182.771C147.923 182.62 147.934 182.455 147.898 182.298C147.862 182.141 147.782 181.997 147.666 181.885Z" fill="#263238"/>
<path d="M129.514 183.572C130.897 184.1 131.156 181.21 131.223 180.198C131.391 179.157 131.651 178.133 131.999 177.138C131.592 178.112 131.095 179.046 130.514 179.928C129.873 180.704 128.13 183.02 129.514 183.572Z" fill="white"/>
<path d="M120.19 185.371C120.19 185.371 117.547 173.652 119.976 168.197C121.101 165.734 125.116 165.183 125.116 165.183C125.197 164.055 125.592 162.971 126.255 162.055C126.919 161.139 127.826 160.427 128.872 159.998C132.831 158.165 139.917 161.247 139.917 161.247C139.917 161.247 146.924 155.994 152.704 160.932C158.485 165.869 151.58 172.01 151.58 172.01C151.58 172.01 152.873 176.306 145.956 177.026C139.208 177.734 128.164 171.133 128.164 171.133C127.347 175.427 125.891 179.574 123.845 183.437C123.472 184.064 122.934 184.576 122.289 184.917C121.644 185.259 120.918 185.416 120.19 185.371Z" fill="#263238"/>
<path d="M141.042 161.719C139.751 160.614 138.246 159.787 136.622 159.29C135.177 158.779 133.655 158.524 132.123 158.536C130.775 158.468 129.434 158.77 128.245 159.408C127.056 160.046 126.063 160.997 125.375 162.158C125.06 162.773 124.87 163.445 124.818 164.135C124.766 164.824 124.852 165.517 125.071 166.173C125.071 166.229 125.172 166.173 125.15 166.173C124.25 163.732 126.061 161.033 128.186 159.965C130.693 158.926 133.492 158.838 136.059 159.717C137.727 160.242 139.324 160.967 140.817 161.877C140.827 161.891 140.84 161.904 140.855 161.914C140.871 161.923 140.887 161.93 140.905 161.933C140.923 161.936 140.941 161.936 140.959 161.932C140.976 161.928 140.993 161.921 141.008 161.91C141.023 161.9 141.035 161.887 141.045 161.872C141.055 161.856 141.061 161.839 141.064 161.822C141.067 161.804 141.067 161.786 141.063 161.768C141.059 161.75 141.052 161.734 141.042 161.719Z" fill="#263238"/>
<path d="M156.416 165.768C156.401 164.776 156.143 163.804 155.665 162.935C155.186 162.066 154.502 161.328 153.672 160.786C151.805 159.458 149.549 158.793 147.261 158.896C144.96 159.006 142.73 159.732 140.805 160.999C140.805 160.999 140.805 161.1 140.805 161.078C142.529 159.972 144.519 159.352 146.566 159.283C148.613 159.213 150.64 159.698 152.435 160.684C153.285 161.066 154.027 161.653 154.595 162.392C155.162 163.131 155.537 164 155.685 164.92C155.833 165.84 155.751 166.783 155.444 167.663C155.138 168.543 154.618 169.334 153.93 169.963C152.321 171.438 150.33 172.432 148.183 172.831C148.183 172.831 148.183 172.921 148.183 172.91C150.182 172.642 152.079 171.868 153.694 170.66C154.472 170.087 155.117 169.354 155.586 168.51C156.056 167.666 156.339 166.731 156.416 165.768Z" fill="#263238"/>
<path d="M147.328 177.836C144.3 178.017 141.268 177.553 138.432 176.475C135.47 175.395 132.634 173.996 129.975 172.302C128.423 171.335 126.904 170.3 125.408 169.243C125.408 169.243 125.318 169.243 125.408 169.322C127.904 171.543 130.625 173.495 133.529 175.148C136.241 176.652 139.221 177.615 142.301 177.982C143.992 178.169 145.7 178.143 147.385 177.903C147.385 177.903 147.373 177.824 147.328 177.836Z" fill="#263238"/>
<path d="M124.183 183.358C124.183 183.358 122.439 177.015 119.684 177.465C116.928 177.914 116.973 186.215 119.324 188.183C119.603 188.452 119.932 188.664 120.294 188.804C120.655 188.945 121.041 189.012 121.428 189.001C121.816 188.991 122.197 188.903 122.551 188.743C122.904 188.583 123.222 188.355 123.485 188.07L124.183 183.358Z" fill="#C95F50"/>
<path d="M119.751 179.838V179.905C121.371 181.356 121.742 183.459 121.798 185.529C121.755 185.298 121.662 185.08 121.527 184.89C121.391 184.699 121.216 184.539 121.013 184.423C120.809 184.306 120.583 184.235 120.35 184.215C120.117 184.194 119.882 184.224 119.661 184.303V184.415C120.033 184.43 120.391 184.559 120.687 184.784C120.983 185.01 121.202 185.32 121.315 185.675C121.497 186.268 121.618 186.879 121.675 187.497C121.675 187.699 122.034 187.722 122.046 187.497C122.934 185.056 122.259 181.007 119.751 179.838Z" fill="#263238"/>
<path d="M103.826 214.692C100.53 233.091 102.51 271.668 110.889 278.135C120.595 285.614 163.085 287.132 172.533 284.366C176.3 283.241 167.337 258.352 163.153 258.386C145.574 258.509 130.773 256.485 129.266 254.404C126.949 251.221 120.887 228.784 116.748 214.725C111.564 197.068 105.299 206.436 103.826 214.692Z" fill="#C95F50"/>
<path d="M210.356 232.54L183.363 250.175C183.195 250.262 183.052 250.39 182.947 250.547C182.842 250.704 182.777 250.885 182.761 251.074C182.744 251.262 182.775 251.452 182.851 251.625C182.926 251.798 183.045 251.949 183.195 252.065L195.746 261.49C196.151 261.747 196.621 261.883 197.101 261.883C197.581 261.883 198.051 261.747 198.457 261.49L225.449 243.855C225.619 243.768 225.765 243.64 225.872 243.482C225.979 243.324 226.044 243.141 226.06 242.951C226.077 242.761 226.045 242.57 225.968 242.395C225.891 242.221 225.77 242.069 225.618 241.954L213.066 232.54C212.661 232.283 212.191 232.147 211.711 232.147C211.231 232.147 210.761 232.283 210.356 232.54Z" fill="#263238"/>
<path d="M209.197 231.753L182.205 249.388C182.037 249.475 181.894 249.603 181.789 249.76C181.683 249.917 181.619 250.098 181.602 250.287C181.586 250.475 181.616 250.664 181.692 250.838C181.768 251.011 181.886 251.162 182.036 251.278L194.588 260.702C194.993 260.959 195.463 261.096 195.943 261.096C196.423 261.096 196.893 260.959 197.298 260.702L224.291 243.067C224.461 242.981 224.606 242.853 224.713 242.695C224.82 242.537 224.885 242.354 224.902 242.164C224.919 241.974 224.887 241.782 224.81 241.608C224.732 241.433 224.612 241.282 224.459 241.167L211.908 231.753C211.503 231.496 211.032 231.36 210.553 231.36C210.073 231.36 209.603 231.496 209.197 231.753Z" fill="#37474F"/>
<path d="M208.635 233.226L183.892 249.399C183.127 249.894 183.026 250.682 183.656 251.154L194.903 259.578C195.281 259.812 195.717 259.936 196.162 259.936C196.607 259.936 197.043 259.812 197.422 259.578L222.165 243.394C223.717 242.393 223.548 241.785 222.918 241.313L220.669 239.626C220.571 239.58 220.463 239.562 220.356 239.574C220.249 239.586 220.147 239.627 220.062 239.693H219.972C219.826 239.814 219.639 239.873 219.45 239.858C219.261 239.844 219.085 239.756 218.959 239.615L213.752 235.712C213.46 235.487 213.235 235.307 213.752 234.992L213.831 234.936C214.045 234.801 214.101 234.621 213.966 234.52L211.717 232.833C211.03 232.383 210.086 232.304 208.635 233.226Z" fill="white"/>
<path d="M216.226 236.758L217.644 237.883C217.673 237.899 217.706 237.908 217.739 237.908C217.773 237.908 217.806 237.899 217.835 237.883C217.844 237.874 217.852 237.864 217.857 237.852C217.863 237.84 217.865 237.828 217.865 237.815C217.865 237.802 217.863 237.79 217.857 237.778C217.852 237.766 217.844 237.756 217.835 237.748L216.406 236.69C216.381 236.67 216.349 236.659 216.316 236.659C216.284 236.659 216.252 236.67 216.226 236.69C216.182 236.668 216.182 236.724 216.226 236.758Z" fill="white"/>
<path d="M196.016 244.248L205.553 251.401L216.193 244.473L206.644 237.309L196.016 244.248Z" fill="#F29F05"/>
<path d="M198.243 248.365L203.81 252.548L204.44 252.132L198.873 247.96L198.243 248.365Z" fill="#A6A6A6"/>
<path d="M196.196 248.263L202.787 253.212L203.102 253.01L196.5 248.061L196.196 248.263Z" fill="#A6A6A6"/>
<path d="M195.622 248.635L202.213 253.583L202.528 253.381L195.926 248.432L195.622 248.635Z" fill="#A6A6A6"/>
<path d="M195.049 249.017L201.639 253.954L201.954 253.752L195.364 248.803L195.049 249.017Z" fill="#A6A6A6"/>
<path d="M218.24 241.47L219.432 242.359L219.679 242.19L218.499 241.302L218.24 241.47Z" fill="#A6A6A6"/>
<path d="M217.767 241.774L218.948 242.662L219.207 242.494L218.026 241.605L217.767 241.774Z" fill="#A6A6A6"/>
<path d="M217.295 242.078L218.487 242.977L218.735 242.809L217.554 241.909L217.295 242.078Z" fill="#A6A6A6"/>
<path d="M194.554 245.35C194.516 245.494 194.516 245.645 194.554 245.789C194.766 245.822 194.982 245.822 195.195 245.789C195.611 245.789 195.926 245.519 195.701 245.339C195.476 245.159 195.172 245.339 195.172 245.339C195.172 245.339 195.431 245.126 195.24 244.991C195.049 244.856 194.633 245.058 194.554 245.35Z" fill="#F29F05"/>
<path d="M187.851 250.861L195.544 256.642L198.007 255.045L190.303 249.264L187.851 250.861Z" fill="#F29F05"/>
<path d="M171.183 284.444C173.252 284.444 190.663 280.126 195.926 277.168C201.565 274.16 206.678 270.255 211.064 265.606C217.947 258.228 222.007 252.47 222.142 249.287C222.289 245.587 222.142 244.934 208.23 256.282C200.357 262.693 195.296 261.906 191.247 260.376C174.602 254.033 158.564 258.363 158.564 258.363C158.564 258.363 163.22 284.422 171.183 284.444Z" fill="#C95F50"/>
<path d="M193.306 261.04C189.066 259.589 205.868 255.968 207.803 251.233C209.737 246.498 204.463 246.329 199.851 247.679C183.656 252.481 174.152 248.545 164.424 255.203C163.389 255.9 160.341 257.452 160.285 257.947C159.824 262.603 193.306 261.04 193.306 261.04Z" fill="#C95F50"/>
<path d="M182.655 250.592C179.657 250.296 176.633 250.383 173.657 250.85C170.929 251.446 168.34 252.561 166.032 254.134C165.931 254.191 166.032 254.359 166.122 254.303C171.116 251.3 176.998 251.008 182.655 250.727C182.673 250.727 182.69 250.719 182.703 250.707C182.715 250.694 182.722 250.677 182.722 250.659C182.722 250.641 182.715 250.624 182.703 250.611C182.69 250.599 182.673 250.592 182.655 250.592Z" fill="#263238"/>
<path d="M100.463 239.356L110.698 237.433L123.586 235.015C123.586 235.015 120.561 220.664 116.838 211.711C113.037 202.511 106.716 199.508 103.241 212.15C99.8669 224.578 100.463 239.356 100.463 239.356Z" fill="#F29F05"/>
<path d="M101.374 234.711C105.31 233.822 119.763 230.741 121.686 231.044C121.686 231.044 121.753 231.191 121.686 231.213C119.987 232.169 105.378 234.407 101.385 234.947C101.34 234.958 101.295 234.733 101.374 234.711Z" fill="#263238"/>
<path d="M102.319 239.007C101.711 239.187 101.104 239.345 100.497 239.502H100.328V239.311C100.17 237.703 100.148 236.083 100.148 234.475C100.148 232.866 100.227 231.247 100.339 229.639C100.452 228.03 100.598 226.422 100.823 224.825C101.048 223.228 101.284 221.642 101.621 220.056C101.621 221.676 101.509 223.273 101.43 224.881C101.351 226.49 101.25 228.087 101.16 229.695C100.991 232.889 100.767 236.094 100.632 239.3L100.452 239.165C101.059 239.131 101.689 239.052 102.319 239.007Z" fill="#263238"/>
<path d="M99.6194 223.667C99.94 224.643 100.181 225.643 100.339 226.658C100.418 227.164 100.497 227.67 100.542 228.177C100.596 228.692 100.623 229.21 100.62 229.729C100.217 228.775 99.9371 227.773 99.7881 226.748C99.6078 225.732 99.5512 224.697 99.6194 223.667Z" fill="#263238"/>
<path d="M122.732 235.172L123.564 234.925L123.496 235.037C123.058 233.699 122.709 232.349 122.316 231.011L121.27 226.962C120.595 224.263 119.965 221.563 119.38 218.819C119.969 220.09 120.476 221.398 120.898 222.733C121.36 224.06 121.719 225.41 122.023 226.759C122.327 228.109 122.675 229.481 122.945 230.853C123.215 232.225 123.451 233.597 123.62 234.992V235.093H123.53C123.317 235.138 123.024 235.15 122.732 235.172Z" fill="#263238"/>
<path d="M121.483 221.53C121.732 222.285 121.861 223.074 121.866 223.869C121.873 224.268 121.847 224.667 121.787 225.061C121.739 225.448 121.636 225.827 121.483 226.186C121.368 225.411 121.308 224.63 121.303 223.847C121.283 223.07 121.343 222.294 121.483 221.53Z" fill="#263238"/>
<path d="M248.242 183.1C248.026 184.886 247.288 186.573 246.123 187.946C244.957 189.32 243.416 190.318 241.695 190.815C239.973 191.313 238.148 191.286 236.451 190.74C234.754 190.193 233.261 189.151 232.16 187.745C231.06 186.339 230.402 184.633 230.269 182.841C230.136 181.05 230.535 179.254 231.415 177.681C232.294 176.108 233.616 174.829 235.211 174.005C236.807 173.181 238.605 172.85 240.379 173.053C241.556 173.185 242.694 173.551 243.726 174.128C244.759 174.705 245.667 175.482 246.397 176.416C247.128 177.349 247.667 178.42 247.983 179.567C248.3 180.714 248.388 181.914 248.242 183.1Z" fill="#404040"/>
<path d="M248.242 183.098C247.946 185.523 246.73 187.748 244.85 189.309C242.969 190.869 240.57 191.644 238.151 191.472C236.91 191.355 235.706 190.989 234.611 190.397C233.516 189.805 232.552 188.999 231.773 188.025C230.995 187.05 230.418 185.928 230.078 184.724C229.737 183.519 229.639 182.256 229.789 181.009C229.939 179.761 230.334 178.554 230.952 177.457C231.569 176.36 232.396 175.396 233.385 174.621C234.374 173.846 235.504 173.275 236.711 172.942C237.917 172.609 239.175 172.521 240.411 172.682C242.81 173.052 244.965 174.344 246.425 176.285C247.884 178.227 248.536 180.668 248.242 183.098ZM248.242 183.098C248.387 181.929 248.295 180.745 247.971 179.617C247.648 178.49 247.1 177.442 246.361 176.537C245.621 175.632 244.706 174.889 243.669 174.353C242.633 173.817 241.498 173.499 240.332 173.418C238.107 173.291 235.91 174.019 234.186 175.456C232.461 176.894 231.338 178.932 231.044 181.157C230.776 183.393 231.375 185.638 232.716 187.426C234.056 189.213 236.035 190.405 238.241 190.753C239.395 190.934 240.575 190.878 241.711 190.587C242.847 190.296 243.914 189.778 244.849 189.062C245.784 188.347 246.567 187.449 247.15 186.424C247.733 185.399 248.105 184.268 248.242 183.098Z" fill="#263238"/>
<path d="M225.766 195.44C225.644 196.431 225.233 197.367 224.585 198.129C223.937 198.891 223.08 199.444 222.124 199.72C221.168 199.995 220.155 199.98 219.213 199.677C218.27 199.374 217.441 198.795 216.829 198.015C216.218 197.235 215.851 196.287 215.776 195.293C215.701 194.298 215.921 193.301 216.408 192.426C216.894 191.552 217.626 190.84 218.511 190.38C219.396 189.92 220.394 189.733 221.379 189.843C222.703 189.993 223.909 190.668 224.732 191.717C225.555 192.767 225.927 194.105 225.766 195.44Z" fill="#404040"/>
<path d="M225.766 195.436C225.606 196.814 224.933 198.084 223.882 198.989C222.831 199.894 221.482 200.367 220.106 200.312C219.026 200.264 217.989 199.89 217.128 199.239C216.267 198.589 215.622 197.691 215.277 196.663C214.933 195.635 214.903 194.523 215.194 193.472C215.484 192.422 216.081 191.48 216.906 190.769C217.731 190.058 218.747 189.61 219.823 189.484C220.898 189.359 221.983 189.56 222.938 190.063C223.892 190.566 224.672 191.347 225.177 192.305C225.681 193.263 225.886 194.354 225.766 195.436ZM225.766 195.436C225.839 194.78 225.778 194.116 225.585 193.487C225.393 192.858 225.074 192.277 224.647 191.779C224.052 191.103 223.274 190.617 222.407 190.379C221.54 190.141 220.62 190.161 219.759 190.437C218.898 190.713 218.132 191.233 217.554 191.934C216.977 192.635 216.611 193.488 216.503 194.389C216.394 195.29 216.547 196.201 216.942 197.012C217.338 197.824 217.959 198.5 218.731 198.96C219.504 199.421 220.394 199.645 221.295 199.606C222.195 199.568 223.068 199.268 223.808 198.743C224.34 198.354 224.789 197.86 225.126 197.291C225.463 196.722 225.681 196.091 225.766 195.436Z" fill="#263238"/>
<path d="M322.973 155.596C322.581 160.239 320.983 164.708 318.341 168.553C315.699 172.399 312.106 175.486 307.921 177.505C303.737 179.523 299.109 180.403 294.502 180.055C289.895 179.706 285.471 178.143 281.675 175.521C279.094 177.772 276.039 179.398 272.746 180.274C269.453 181.151 266.011 181.253 262.687 180.573C259.363 179.893 256.246 178.45 253.578 176.354C250.91 174.259 248.763 171.569 247.303 168.492C246.308 168.592 245.307 168.601 244.311 168.519C240.85 168.262 237.546 166.997 234.801 164.88C232.056 162.762 229.987 159.882 228.845 156.588C227.704 153.295 227.539 149.73 228.37 146.326C229.202 142.922 230.994 139.824 233.529 137.41C230.694 131.754 229.979 125.243 231.514 119.06C233.049 112.878 236.732 107.435 241.893 103.723C247.053 100.011 253.349 98.2768 259.633 98.8353C265.917 99.3937 271.773 102.208 276.134 106.766C279.15 104.237 282.77 102.552 286.625 101.881C290.48 101.21 294.434 101.578 298.084 102.947C301.734 104.316 304.949 106.637 307.404 109.675C309.859 112.713 311.465 116.359 312.059 120.242C313.026 120.116 314.002 120.091 314.972 120.168C317.917 120.393 320.715 121.522 322.989 123.403C325.263 125.284 326.904 127.826 327.69 130.689C328.477 133.551 328.371 136.596 327.388 139.413C326.405 142.229 324.591 144.683 322.191 146.443C322.992 149.418 323.256 152.518 322.973 155.596Z" fill="#404040"/>
<path d="M322.973 155.593C322.564 160.231 320.971 164.694 318.349 168.549C317.024 170.463 315.472 172.209 313.728 173.746C311.962 175.247 310.016 176.519 307.937 177.531C303.741 179.571 299.097 180.476 294.468 180.155C289.839 179.835 285.384 178.299 281.547 175.702L281.79 175.752C279.175 178.053 276.074 179.722 272.728 180.629C269.382 181.536 265.881 181.657 262.495 180.983C259.11 180.308 255.932 178.856 253.206 176.739C250.481 174.621 248.283 171.896 246.781 168.774L247.261 169.052C245.364 169.235 243.454 169.118 241.599 168.705C239.733 168.325 237.944 167.637 236.304 166.67C232.981 164.739 230.346 161.81 228.762 158.289C228.003 156.525 227.502 154.657 227.274 152.744C227.073 150.828 227.155 148.89 227.516 146.993C228.277 143.167 230.201 139.664 233.022 136.973L232.866 137.725C229.995 131.932 229.291 125.276 230.879 118.964C232.468 112.651 236.244 107.1 241.524 103.317C246.81 99.5587 253.228 97.7937 259.643 98.3347C266.033 98.9231 271.981 101.799 276.41 106.443L275.758 106.416C278.848 103.86 282.55 102.17 286.485 101.521C290.419 100.871 294.444 101.285 298.148 102.72C301.825 104.13 305.058 106.496 307.52 109.579C309.982 112.661 311.587 116.352 312.171 120.277L312.003 120.152C315.212 119.779 318.446 120.475 321.206 122.135C323.256 123.375 324.964 125.111 326.177 127.187C327.391 129.262 328.073 131.613 328.161 134.029C328.249 136.445 327.742 138.851 326.684 141.032C325.626 143.212 324.051 145.101 322.099 146.527C322.92 149.468 323.216 152.538 322.973 155.593ZM322.973 155.593C323.25 152.495 322.974 149.378 322.157 146.388C324.087 144.964 325.639 143.083 326.676 140.915C327.713 138.746 328.201 136.357 328.098 133.962C327.994 131.566 327.302 129.24 326.083 127.191C324.864 125.142 323.156 123.434 321.113 122.221C318.391 120.609 315.204 119.964 312.058 120.389L311.915 120.36L311.945 120.216C311.319 116.38 309.698 112.789 307.245 109.803C304.811 106.809 301.619 104.535 298 103.217C294.409 101.888 290.522 101.547 286.738 102.23C282.954 102.912 279.409 104.594 276.466 107.102L276.136 107.397L275.818 107.061C271.511 102.684 265.785 100.007 259.663 99.5082C253.542 99.0094 247.423 100.721 242.401 104.338C237.424 107.972 233.869 113.253 232.368 119.243C230.866 125.233 231.515 131.545 234.199 137.06L234.418 137.511L234.044 137.873C231.416 140.353 229.619 143.593 228.905 147.138C228.55 148.902 228.461 150.708 228.64 152.493C228.84 154.277 229.297 156.019 229.997 157.665C231.462 160.959 233.893 163.716 236.967 165.568C238.5 166.498 240.176 167.168 241.929 167.551C243.672 167.973 245.474 168.108 247.265 167.953L247.602 167.916L247.759 168.234C249.179 171.253 251.261 173.904 253.849 175.99C257.801 179.139 262.73 180.796 267.792 180.677C272.853 180.557 277.733 178.669 281.593 175.335L281.721 175.225L281.864 175.254C285.619 177.892 290.012 179.472 294.594 179.833C299.175 180.193 303.781 179.321 307.94 177.306C310.016 176.305 311.963 175.049 313.735 173.566C315.472 172.063 317.022 170.353 318.35 168.473C320.963 164.642 322.555 160.206 322.973 155.593Z" fill="#263238"/>
<path d="M289.747 148.222L288.11 151.989C287.966 152.375 287.743 152.727 287.456 153.022C287.168 153.317 286.823 153.549 286.442 153.703C286.061 153.857 285.652 153.929 285.243 153.915C284.834 153.901 284.433 153.801 284.067 153.622C283.695 153.463 283.36 153.232 283.079 152.942C282.798 152.652 282.577 152.309 282.43 151.932C282.282 151.556 282.211 151.153 282.219 150.747C282.227 150.34 282.316 149.939 282.479 149.566L285.095 143.535C285.095 143.535 285.095 143.535 285.202 143.452C285.31 143.368 285.202 143.452 285.233 143.308C285.579 142.571 286.192 141.993 286.947 141.693C287.701 141.392 288.539 141.392 289.287 141.693C290.998 142.435 292.938 142.462 294.682 141.769C296.426 141.075 297.829 139.718 298.585 137.996C299.34 136.273 299.385 134.327 298.71 132.584C298.034 130.841 296.694 129.446 294.983 128.704C293.863 128.224 292.635 128.048 291.421 128.194C290.206 128.339 289.048 128.8 288.061 129.532C287.737 129.802 287.362 130.004 286.959 130.125C286.555 130.246 286.133 130.284 285.716 130.235C285.299 130.187 284.898 130.054 284.535 129.844C284.173 129.635 283.858 129.353 283.609 129.016C283.361 128.679 283.183 128.294 283.088 127.884C282.994 127.475 282.983 127.05 283.058 126.635C283.132 126.22 283.29 125.823 283.522 125.47C283.754 125.117 284.054 124.814 284.406 124.58C286.164 123.267 288.216 122.41 290.378 122.086C292.539 121.762 294.742 121.981 296.789 122.723C298.836 123.464 300.662 124.706 302.104 126.337C303.546 127.967 304.558 129.935 305.05 132.064C305.542 134.192 305.498 136.415 304.922 138.531C304.346 140.648 303.256 142.593 301.75 144.191C300.244 145.79 298.369 146.991 296.293 147.688C294.218 148.385 292.007 148.556 289.859 148.185L289.747 148.222ZM284.246 160.92L283.789 161.969C283.634 162.348 283.404 162.692 283.114 162.981C282.823 163.27 282.478 163.497 282.099 163.65C281.72 163.802 281.314 163.876 280.907 163.867C280.5 163.858 280.1 163.767 279.731 163.598C278.986 163.272 278.402 162.663 278.105 161.905C277.808 161.146 277.822 160.297 278.143 159.543L278.601 158.494C278.941 157.754 279.554 157.172 280.311 156.874C281.067 156.575 281.907 156.582 282.652 156.894C283.396 157.213 283.981 157.816 284.28 158.57C284.578 159.324 284.566 160.169 284.246 160.92Z" fill="#F29F05"/>
<path d="M260.093 133.697L260.494 129.696C260.506 129.283 260.604 128.877 260.783 128.503C260.961 128.13 261.215 127.797 261.529 127.527C261.843 127.258 262.21 127.057 262.605 126.939C263 126.82 263.415 126.786 263.823 126.839C264.634 126.904 265.384 127.289 265.909 127.909C266.434 128.529 266.691 129.334 266.626 130.15L266.083 136.689C266.083 136.689 266.083 136.689 266.056 136.819C266.029 136.948 266.056 136.819 266.103 136.948C266.016 137.757 265.622 138.504 265.003 139.034C264.383 139.563 263.587 139.834 262.778 139.791C261.837 139.683 260.883 139.768 259.972 140.039C259.061 140.31 258.212 140.762 257.476 141.368C256.74 141.975 256.133 142.723 255.69 143.568C255.247 144.413 254.978 145.337 254.899 146.285C254.82 147.234 254.932 148.187 255.229 149.087C255.526 149.988 256.002 150.817 256.628 151.525C257.254 152.234 258.017 152.807 258.872 153.21C259.727 153.614 260.655 153.839 261.602 153.873C262.817 153.974 264.04 153.75 265.146 153.224C266.252 152.698 267.203 151.888 267.901 150.878C268.134 150.536 268.431 150.243 268.777 150.016C269.123 149.789 269.509 149.633 269.914 149.556C270.319 149.48 270.734 149.485 271.136 149.571C271.537 149.657 271.917 149.823 272.253 150.058C272.582 150.289 272.861 150.583 273.076 150.924C273.29 151.265 273.435 151.645 273.501 152.044C273.568 152.442 273.556 152.85 273.465 153.245C273.374 153.64 273.206 154.014 272.971 154.345C271.714 156.139 270.038 157.597 268.09 158.589C266.142 159.581 263.985 160.075 261.809 160.028C259.634 159.981 257.509 159.395 255.625 158.32C253.74 157.246 252.154 155.718 251.008 153.872C249.863 152.026 249.193 149.92 249.06 147.742C248.926 145.564 249.333 143.382 250.243 141.39C251.153 139.399 252.538 137.66 254.276 136.329C256.013 134.998 258.048 134.117 260.198 133.764L260.093 133.697ZM261.245 119.941L261.333 118.803C261.347 118.392 261.446 117.988 261.626 117.616C261.805 117.244 262.059 116.914 262.373 116.646C262.686 116.378 263.051 116.178 263.445 116.06C263.839 115.942 264.252 115.908 264.659 115.961C265.062 115.989 265.455 116.098 265.814 116.28C266.174 116.463 266.493 116.715 266.754 117.023C267.015 117.331 267.211 117.688 267.333 118.074C267.454 118.46 267.498 118.867 267.462 119.271L267.377 120.395C267.297 121.208 266.904 121.961 266.283 122.495C265.662 123.028 264.86 123.3 264.048 123.252C263.644 123.225 263.251 123.118 262.89 122.936C262.53 122.754 262.209 122.502 261.948 122.194C261.687 121.885 261.491 121.527 261.37 121.141C261.249 120.754 261.207 120.346 261.245 119.941Z" fill="#F29F05"/>
<path d="M306 326.429V343.527H301.269V326.429C301.269 319.919 296.438 314.625 290.5 314.625C284.562 314.625 279.731 319.919 279.731 326.429V343.527H275V326.429C275 317.108 281.955 309.527 290.5 309.527C299.045 309.527 306 317.108 306 326.429Z" fill="#C7C7C7"/>
<path d="M275 330.527L279 330.728V343.527H275V330.527Z" fill="#A6A6A6"/>
<path d="M306 331.74V343.527H301V331.527L306 331.74Z" fill="#A6A6A6"/>
<path d="M312 333.527H269V372.527H312V333.527Z" fill="#F29F05"/>
<path opacity="0.1" d="M312 333.527H290V372.527H312V333.527Z" fill="black"/>
<path d="M292.113 354.778L294 363.527H286.01L287.898 354.778C287.158 354.33 286.587 353.658 286.272 352.864C285.957 352.069 285.914 351.195 286.152 350.375C286.389 349.555 286.892 348.833 287.586 348.319C288.28 347.805 289.125 347.527 289.995 347.527C290.864 347.527 291.71 347.805 292.404 348.319C293.097 348.833 293.601 349.555 293.838 350.375C294.075 351.195 294.033 352.069 293.718 352.864C293.403 353.658 292.832 354.33 292.092 354.778H292.113Z" fill="#263238"/>
</g>
<defs>
<clipPath id="clip0_1860_10342">
<rect width="375" height="463" fill="white"/>
</clipPath>
</defs>
</svg>
