<svg width="18" height="19" viewBox="0 0 18 19" fill="none" xmlns="http://www.w3.org/2000/svg">
<path d="M9.29467 9.40819C9.29467 9.00785 9.29467 8.62752 9.29467 8.20715C9.61495 8.04701 9.71504 7.78679 9.69502 7.46651C9.675 7.06616 9.675 6.6458 9.69502 6.22544C9.71504 5.82509 9.63497 5.48479 9.29467 5.28462C9.29467 4.6841 9.29467 4.08358 9.29467 3.44302C10.5157 4.02353 11.6767 4.58401 12.7777 5.2646C12.7777 5.62491 12.7777 5.96521 12.7777 6.28549C12.7777 9.08792 12.7977 11.8703 12.7777 14.6728C12.7777 15.7537 12.2572 16.5944 11.4165 17.255C10.0153 18.3559 7.87344 18.376 6.47223 17.295C5.55143 16.5744 5.07101 15.6336 5.07101 14.4526C5.07101 11.55 5.07101 8.62752 5.07101 5.725C5.07101 5.6049 5.07101 5.46478 5.07101 5.32465C5.15108 5.24458 5.23115 5.1445 5.33124 5.10446C6.37214 4.56399 7.41304 4.04354 8.45395 3.52309C8.47396 3.50308 8.514 3.52309 8.57405 3.52309C8.57405 4.1036 8.57405 4.6841 8.57405 5.28462C8.19372 5.46478 8.15369 5.80507 8.1737 6.20542C8.19372 6.56573 8.19372 6.94606 8.1737 7.30637C8.15369 7.66668 8.1737 8.00698 8.57405 8.16712C8.57405 8.6075 8.57405 9.00785 8.57405 9.40819H9.29467Z" fill="white" fill-opacity="0.87"/>
<path d="M16.8814 9.04784C16.6212 8.94775 16.381 8.84767 16.0807 8.74758C16.1008 8.36725 15.9606 8.02696 15.6404 7.80676C15.6604 6.38553 15.1399 5.16448 14.3192 4.08354C13.2983 2.74238 11.9972 1.78154 10.3558 1.3812C8.35405 0.900781 6.53247 1.36118 4.91107 2.60225C3.71002 3.52305 2.8693 4.72409 2.42891 6.18536C2.26878 6.70581 2.22874 7.24628 2.10864 7.8468C1.82839 8.12704 1.82839 8.12704 1.72831 8.72756C1.46808 8.82765 1.20786 8.92774 0.927613 9.00781C0.687405 6.72583 1.4881 3.38293 4.51072 1.3812C7.31315 -0.440382 10.4559 -0.500434 13.3984 1.44125C16.2008 3.30286 17.2217 6.52565 16.8814 9.04784Z" fill="white" fill-opacity="0.87"/>
<path d="M1.76849 9.52823C1.76849 10.5091 1.76849 11.4699 1.76849 12.4508C2.02871 12.4508 2.22889 12.4508 2.48911 12.4508C2.48911 12.3106 2.48911 12.1905 2.48911 12.0504C2.48911 10.9294 2.48911 9.78845 2.48911 8.66748C2.48911 8.16705 2.76935 7.84677 3.26979 7.7667C3.36987 7.74668 3.46996 7.74668 3.59007 7.74668C3.81026 7.74668 4.03045 7.74668 4.25064 7.74668C4.25064 10.2288 4.25064 12.691 4.25064 15.1731C3.7502 15.1731 3.28981 15.2732 2.84942 15.033C2.76935 14.993 2.68929 14.9729 2.60922 14.9529C2.18885 14.8128 1.92863 14.5125 1.82854 14.0722C1.28807 13.9521 0.807655 13.6918 0.487377 13.2114C0.187117 12.7911 -0.0130563 12.3106 0.00696103 11.7702C0.0269784 10.6092 0.667533 9.80847 1.76849 9.52823Z" fill="white" fill-opacity="0.87"/>
<path d="M16.0811 9.56832C16.6415 9.70844 17.1019 9.94865 17.4222 10.4291C17.4222 11.3298 17.4222 12.2106 17.4222 13.1314C17.1019 13.6118 16.6415 13.9121 16.061 14.0722C16.001 14.8129 15.4205 15.013 14.84 15.1532C14.4396 15.2332 14.0193 15.2132 13.5989 15.2332C13.5989 12.7311 13.5989 10.2689 13.5989 7.78678C13.9592 7.78678 14.2795 7.74674 14.6198 7.78678C15.0602 7.84683 15.3604 8.20714 15.3604 8.66754C15.3604 9.46823 15.3604 10.2689 15.3604 11.1097C15.6407 11.47 15.961 11.8503 16.041 12.3507C16.1011 11.4099 16.061 10.5091 16.0811 9.56832Z" fill="white" fill-opacity="0.87"/>
</svg>
