<svg width="24" height="24" viewBox="0 0 24 24" fill="none" xmlns="http://www.w3.org/2000/svg">
<path d="M11.1689 20.1517C9.11641 19.4692 9.1164 19.4692 9.1164 17.4122C9.11639 12.8301 9.1164 8.24804 9.1164 3.42487C11.9545 4.1403 14.7642 4.47945 16.9828 6.36532C18.3712 7.54553 18.7196 10.7137 17.7958 12.2968C17.1758 13.3594 15.8601 13.7991 14.76 13.208C14.4838 13.0596 14.2625 12.5598 14.2497 12.2129C14.1938 10.7001 14.2828 9.18053 14.1877 7.6717C14.1588 7.21323 13.8957 6.33727 13.4508 6.33727C13.0363 6.33727 12.8169 7.20672 12.8109 7.64565C12.7595 11.4535 12.7807 15.2624 12.7804 19.0709C12.7803 19.5325 12.7804 19.9942 12.7804 20.5953C12.1563 20.422 11.7147 20.2994 11.1689 20.1517Z" fill="white" fill-opacity="0.87"/>
<path d="M14.4408 20.0685C14.1022 20.1755 13.8538 20.2386 13.6022 20.3026C13.2731 18.3576 13.2764 18.3669 15.0716 17.7223C16.6384 17.1597 18.1967 16.5731 19.7127 15.8137C17.4604 14.8727 15.6311 16.5831 13.5753 16.8023C13.2871 14.6745 13.2846 14.6614 15.2251 14.2875C17.4815 13.8528 19.7109 13.9648 21.8339 14.8787C22.3268 15.091 22.9814 15.6306 22.9996 16.0443C23.0177 16.4548 22.4084 17.1007 21.9334 17.2901C19.4909 18.2642 17.003 19.1246 14.4408 20.0685Z" fill="white" fill-opacity="0.87"/>
<path d="M1.04907 17.2735C0.438656 16.1913 1.2576 15.8282 1.88838 15.5715C3.99462 14.7144 6.13965 13.9526 8.28472 13.1486C8.72642 15.1609 8.72421 15.1549 6.91254 15.8182C6.01113 16.1482 5.11953 16.505 3.94923 16.9552C5.71267 17.9008 6.98343 16.9339 8.39834 16.6691C8.39834 17.2687 8.39834 17.803 8.39834 18.5199C5.86113 18.7801 3.37554 18.8619 1.04907 17.2735Z" fill="white" fill-opacity="0.87"/>
</svg>
