<svg width="375" height="312" viewBox="0 0 375 312" fill="none" xmlns="http://www.w3.org/2000/svg">
<g clip-path="url(#clip0_1812_11476)">
<path d="M73.8735 160.664V179.577H68.5304V160.664C68.5304 153.476 63.0725 147.634 56.3717 147.634C49.671 147.634 44.2131 153.476 44.2131 160.664V179.577H38.87V160.664C38.87 150.369 46.7259 142 56.3853 142C66.0447 142 73.8735 150.369 73.8735 160.664Z" fill="#797979"/>
<path d="M38.8423 165.574L44.1853 165.791V179.564H38.8423V165.574Z" fill="#A6A6A6"/>
<path d="M73.8725 167V179.564H68.5294V166.784L73.8725 167Z" fill="#A6A6A6"/>
<path d="M80.7158 168.803H32V213H80.7158V168.803Z" fill="#F29F05"/>
<path opacity="0.1" d="M80.7152 168.803H56.3573V213H80.7152V168.803Z" fill="black"/>
<path d="M58.4174 192.519L60.4439 202.192H51.8045L53.8309 192.519C53.0318 192.023 52.4164 191.279 52.0777 190.401C51.739 189.523 51.6956 188.558 51.954 187.654C52.2124 186.749 52.7586 185.953 53.5098 185.386C54.261 184.819 55.1764 184.513 56.1174 184.513C57.0584 184.513 57.9739 184.819 58.7251 185.386C59.4763 185.953 60.0224 186.749 60.2808 187.654C60.5392 188.558 60.4958 189.523 60.1572 190.401C59.8185 191.279 59.2031 192.023 58.4039 192.519H58.4174Z" fill="#263238"/>
<path d="M181.846 164.547C181.86 164.793 181.964 165.025 182.138 165.199C182.312 165.373 182.544 165.476 182.789 165.49L186.872 165.33C189.502 155.477 192.623 147.538 191.907 150.583C190.839 155.361 190.496 160.271 190.888 165.15L198.94 164.698C200.326 147.727 203.06 134.904 203.211 138.751C203.834 154.242 205.267 159.088 206.888 164.255C226.321 163.105 251.777 161.332 270.154 159.644C271.294 150.216 272.096 140.042 272.492 140.702C275.547 145.652 277.027 153.129 277.696 158.937C283.542 158.362 288.2 157.796 291.028 157.306C291.028 157.306 291.575 149.414 291.5 146.84C291.324 140.247 289.933 133.743 287.398 127.653C284.768 121.402 280.798 116.047 277.027 110.541C277.003 110.497 276.975 110.456 276.942 110.418C276.942 110.418 276.942 110.418 276.942 110.371C274.441 106.796 272.378 102.934 270.795 98.8682C270.788 98.8404 270.788 98.8112 270.795 98.7834C269.703 95.8382 268.87 92.8033 268.306 89.7132C266.25 78.399 258.802 69.2628 247.789 67.3771C227.744 54.2809 206.191 60.6263 201.59 75.8627C201.146 77.3524 200.75 79.0401 200.383 80.8787V80.9353C199.016 87.7238 198.063 96.4545 197.054 103.234C197.054 103.234 197.054 103.234 197.054 103.309C196.694 105.965 196.161 108.595 195.461 111.182C191.482 123.646 180.536 131.613 181.846 164.547Z" fill="#263238"/>
<path d="M252.636 70.0359C260.046 72.9493 264.893 77.8427 266.882 86.0644C268.032 90.8352 268.853 95.4928 271.191 99.9054C273.529 104.318 277.055 107.967 280.619 111.493C286.277 117.15 290.331 122.864 291.934 130.935C293.536 139.005 294.225 148.933 292.254 156.948H292.179C293.621 148.877 292.528 138.034 290.293 129.973C287.804 121.129 282.1 115.99 276.15 109.692C271.417 104.805 268.094 98.7295 266.533 92.108C265.59 88.0632 265.185 83.7827 263.12 80.0867C260.659 75.6836 256.416 73.1568 252.24 70.9599C252.179 70.9339 252.124 70.8962 252.078 70.849C252.032 70.8017 251.995 70.7459 251.971 70.6846C251.946 70.6233 251.934 70.5578 251.935 70.4918C251.936 70.4258 251.95 70.3606 251.976 70.2999C252.002 70.2393 252.039 70.1843 252.087 70.1382C252.134 70.0921 252.19 70.0558 252.251 70.0312C252.312 70.0067 252.378 69.9945 252.444 69.9953C252.51 69.9961 252.575 70.0099 252.636 70.0359Z" fill="#263238"/>
<path d="M184.911 125.202C189.182 118.234 193.755 112.191 195.81 103.884C197.696 96.3414 198.375 88.4403 200.289 80.8787C200.289 80.8536 200.299 80.8297 200.316 80.812C200.334 80.7943 200.358 80.7844 200.383 80.7844C200.408 80.7844 200.432 80.7943 200.45 80.812C200.467 80.8297 200.477 80.8536 200.477 80.8787C197.696 94.2482 198.28 107.382 191.049 119.139C187.136 125.532 183.176 131.481 180.932 138.883C178.681 146.633 177.926 154.741 178.707 162.774C178.707 163.057 178.367 163.086 178.311 162.774C175.728 149.866 178.083 136.458 184.911 125.202Z" fill="#263238"/>
<path d="M132.932 105.959L159.134 155.298C160.076 156.703 159.614 158.126 158.096 158.522L130.952 165.207C130.106 165.345 129.239 165.241 128.45 164.908C127.661 164.574 126.982 164.024 126.492 163.321L100.29 113.982C99.3476 112.577 99.819 111.154 101.328 110.758L128.472 104.082C129.317 103.941 130.184 104.042 130.974 104.374C131.763 104.707 132.442 105.256 132.932 105.959Z" fill="#37474F"/>
<path d="M129.707 106.722L155.909 156.061C156.852 157.466 156.381 158.89 154.863 159.286L127.718 165.971C126.874 166.11 126.007 166.007 125.219 165.673C124.432 165.339 123.755 164.789 123.268 164.085L97.066 114.736C96.1232 113.332 96.5852 111.908 98.1031 111.512L125.248 104.836C126.093 104.696 126.961 104.799 127.751 105.133C128.54 105.467 129.219 106.018 129.707 106.722Z" fill="#455A64"/>
<path d="M122.852 110.956C122.975 111.409 123.229 111.816 123.583 112.126C123.936 112.435 124.374 112.632 124.839 112.693C125.305 112.754 125.779 112.675 126.2 112.467C126.621 112.259 126.971 111.93 127.205 111.523C127.44 111.116 127.548 110.648 127.517 110.18C127.486 109.711 127.317 109.262 127.031 108.889C126.744 108.517 126.354 108.238 125.909 108.087C125.464 107.936 124.985 107.92 124.531 108.042C124.229 108.123 123.947 108.263 123.699 108.453C123.451 108.643 123.244 108.88 123.088 109.151C122.932 109.422 122.831 109.72 122.79 110.03C122.75 110.34 122.771 110.654 122.852 110.956Z" fill="#263238"/>
<path d="M243.829 174.079C232.514 209.54 202.984 257.531 188.446 259.633C181.525 260.633 169.362 263.914 159.217 257.144C137.089 242.36 115.026 212.83 108.181 195.623C105.617 189.184 139.182 167.112 144.764 171.986C157.841 183.395 174.407 206.994 176.396 206.579C183.779 205.033 209.764 176.927 227.876 157.155C249.872 133.15 248.335 159.946 243.829 174.079Z" fill="#AD6359"/>
<path d="M100.121 164.556C100.121 150.263 102.289 146.586 95.8593 134.527C91.6353 126.616 94.9164 120.525 102.591 125.768C115.206 134.348 119.11 152.78 118.62 159.569L100.121 164.556Z" fill="#AD6359"/>
<path d="M112.698 203.902C112.698 203.902 101.921 186.713 100.384 171.477C99.3283 160.945 99.5734 137.761 125.04 119.055C131.083 114.614 142.841 112.577 135.609 123.411C130.471 131.104 124.879 134.432 122.711 139.439C122.711 139.439 137.966 138.628 142.181 144.851C145.845 150.301 149.118 156.004 151.977 161.917C151.014 162.687 150.003 163.396 148.95 164.038C148.95 164.038 152.722 169.997 150.242 180.434L112.698 203.902Z" fill="#AD6359"/>
<path d="M100.978 161.313C104.193 156.787 111.161 147.302 119.552 141.513C128.886 135.102 148.582 125.268 153.24 132.207C156.653 137.289 149.469 141.702 149.469 141.702C149.469 141.702 158.463 139.354 160.547 144.625C162.433 149.424 156.681 152.507 156.681 152.507C156.681 152.507 162.339 152.017 163.281 156.995C164.413 162.982 152.269 163.02 148.196 170.072C147.262 171.628 100.978 161.313 100.978 161.313Z" fill="#AD6359"/>
<path d="M124.635 152.469C128.359 148.698 138.994 142.334 149.215 141.57C149.441 141.57 149.583 141.721 149.375 141.777C140.744 144.359 132.458 147.981 124.701 152.564C124.691 152.592 124.635 152.516 124.635 152.469Z" fill="#263238"/>
<path d="M131.432 161.7C134.977 158.786 146.225 152.705 156.606 152.271C156.842 152.271 156.964 152.441 156.757 152.488C148.009 154.619 139.532 157.738 131.489 161.785C131.432 161.822 131.385 161.738 131.432 161.7Z" fill="#263238"/>
<path d="M227.942 219.393L199.119 183.3C199.119 183.3 222.059 157.994 236.72 147.472C244.932 141.598 249.609 147.896 248.449 156.948C244.376 188.656 227.942 219.393 227.942 219.393Z" fill="#F29F05"/>
<path d="M227.942 219.393L199.119 183.3C199.119 183.3 222.059 157.994 236.72 147.472C244.932 141.598 249.609 147.896 248.449 156.948C244.376 188.656 227.942 219.393 227.942 219.393Z" fill="#F29F05"/>
<path d="M208.293 175.192C208.639 175.171 208.985 175.221 209.31 175.338C209.636 175.456 209.934 175.639 210.186 175.876C210.438 176.113 210.639 176.399 210.776 176.717C210.913 177.035 210.984 177.377 210.984 177.723C210.984 178.069 210.913 178.412 210.776 178.73C210.639 179.047 210.438 179.333 210.186 179.571C209.934 179.808 209.636 179.991 209.31 180.108C208.985 180.226 208.639 180.276 208.293 180.255C207.648 180.216 207.043 179.932 206.601 179.461C206.158 178.991 205.911 178.369 205.911 177.723C205.911 177.077 206.158 176.456 206.601 175.985C207.043 175.515 207.648 175.231 208.293 175.192ZM208.293 179.821C208.708 179.823 209.114 179.702 209.46 179.472C209.805 179.243 210.075 178.916 210.235 178.533C210.394 178.151 210.436 177.729 210.356 177.322C210.275 176.915 210.076 176.541 209.783 176.248C209.489 175.955 209.116 175.755 208.709 175.675C208.302 175.594 207.88 175.636 207.497 175.796C207.114 175.956 206.788 176.225 206.558 176.571C206.329 176.917 206.208 177.323 206.21 177.737C206.212 178.289 206.432 178.818 206.823 179.208C207.213 179.598 207.741 179.819 208.293 179.821ZM231.591 182.999C232.091 182.999 232.579 183.147 232.995 183.424C233.41 183.702 233.734 184.097 233.925 184.558C234.117 185.02 234.167 185.528 234.069 186.018C233.972 186.509 233.731 186.959 233.378 187.312C233.024 187.666 232.574 187.906 232.084 188.004C231.594 188.101 231.086 188.051 230.624 187.86C230.162 187.669 229.768 187.345 229.49 186.929C229.212 186.514 229.064 186.025 229.064 185.525C229.064 184.855 229.33 184.213 229.804 183.739C230.278 183.265 230.921 182.999 231.591 182.999ZM231.591 187.609C232.005 187.609 232.41 187.486 232.755 187.256C233.099 187.025 233.368 186.698 233.526 186.315C233.684 185.932 233.725 185.51 233.643 185.104C233.562 184.698 233.361 184.325 233.068 184.033C232.774 183.74 232.4 183.542 231.994 183.462C231.587 183.382 231.166 183.425 230.783 183.585C230.401 183.745 230.075 184.015 229.846 184.36C229.617 184.705 229.496 185.111 229.498 185.525C229.505 186.075 229.729 186.599 230.121 186.984C230.513 187.369 231.042 187.583 231.591 187.581V187.609ZM229.752 162.793C230.255 162.791 230.747 162.939 231.166 163.218C231.585 163.496 231.911 163.892 232.104 164.357C232.297 164.821 232.347 165.332 232.249 165.826C232.151 166.319 231.908 166.771 231.552 167.126C231.196 167.481 230.742 167.722 230.248 167.819C229.755 167.915 229.244 167.863 228.78 167.668C228.317 167.474 227.921 167.146 227.644 166.726C227.368 166.306 227.222 165.814 227.226 165.311C227.224 164.978 227.289 164.648 227.415 164.339C227.541 164.031 227.727 163.751 227.962 163.515C228.196 163.278 228.475 163.09 228.783 162.962C229.09 162.833 229.419 162.766 229.752 162.765V162.793ZM229.752 167.423C230.169 167.426 230.577 167.307 230.925 167.078C231.273 166.85 231.545 166.523 231.707 166.14C231.87 165.757 231.915 165.334 231.836 164.925C231.758 164.516 231.56 164.14 231.268 163.844C230.976 163.547 230.602 163.344 230.194 163.261C229.786 163.177 229.363 163.216 228.978 163.373C228.592 163.53 228.262 163.798 228.029 164.143C227.796 164.488 227.671 164.894 227.669 165.311C227.674 165.862 227.895 166.389 228.284 166.779C228.674 167.168 229.201 167.39 229.752 167.394V167.423ZM248.506 152.281C248.506 152.422 248.506 152.563 248.553 152.714C248.131 152.844 247.761 153.105 247.496 153.458C247.231 153.811 247.084 154.238 247.077 154.68C247.069 155.121 247.202 155.554 247.455 155.915C247.708 156.277 248.069 156.549 248.487 156.693C248.487 156.797 248.487 156.91 248.487 157.014C248.487 157.117 248.487 157.089 248.487 157.127C247.966 156.964 247.512 156.638 247.193 156.196C246.873 155.754 246.705 155.221 246.713 154.676C246.722 154.13 246.907 153.602 247.24 153.171C247.573 152.739 248.037 152.427 248.562 152.281H248.506ZM213.856 201.78C213.891 201.29 214.068 200.82 214.366 200.428C214.664 200.037 215.07 199.741 215.534 199.577C215.997 199.413 216.499 199.388 216.977 199.505C217.454 199.621 217.888 199.875 218.223 200.235C218.559 200.594 218.782 201.044 218.866 201.528C218.95 202.013 218.891 202.512 218.695 202.963C218.5 203.414 218.177 203.799 217.766 204.07C217.355 204.34 216.875 204.485 216.383 204.486C216.254 204.496 216.125 204.496 215.996 204.486L215.515 203.892C215.787 204.018 216.083 204.082 216.383 204.081C216.799 204.081 217.205 203.957 217.551 203.726C217.897 203.495 218.166 203.167 218.325 202.783C218.484 202.399 218.526 201.976 218.445 201.568C218.364 201.16 218.164 200.785 217.87 200.491C217.576 200.197 217.201 199.997 216.793 199.916C216.385 199.835 215.962 199.876 215.578 200.036C215.194 200.195 214.866 200.464 214.635 200.81C214.404 201.156 214.28 201.562 214.28 201.978C214.266 202.119 214.266 202.261 214.28 202.402L213.856 201.78Z" fill="white"/>
<path opacity="0.1" d="M202.419 187.411L227.933 219.402C227.933 219.402 244.376 188.656 248.449 156.995C249.251 150.772 247.28 145.86 243.32 145.303L202.419 187.411Z" fill="black"/>
<path d="M205.814 180.019C210.708 185.205 223.568 199.659 230.705 210.19C230.753 210.256 230.526 210.445 230.479 210.388C223.229 202.563 209.906 185.94 205.484 180.349C205.399 180.17 205.72 179.925 205.814 180.019Z" fill="#263238"/>
<path d="M332.787 270.165L208.491 269.873L215.365 227.133C215.365 227.133 205.531 215.206 207.388 202.271C209.434 188.128 234.995 152.149 237.144 150.122C245.8 142.004 254.964 140.542 263.761 143.475C304.426 169.026 332.787 270.165 332.787 270.165Z" fill="#F29F05"/>
<path d="M211.112 253.58C211.386 253.912 211.756 254.151 212.171 254.264C212.586 254.378 213.026 254.361 213.431 254.216C213.836 254.07 214.187 253.804 214.435 253.452C214.683 253.101 214.816 252.681 214.817 252.251C214.819 251.974 214.765 251.7 214.66 251.443C214.555 251.187 214.4 250.954 214.205 250.758C214.01 250.562 213.777 250.406 213.522 250.3C213.266 250.194 212.992 250.139 212.715 250.139C212.324 250.137 211.941 250.248 211.612 250.459L211.697 249.922C212.016 249.777 212.364 249.703 212.715 249.705C213.127 249.704 213.533 249.803 213.898 249.993C214.263 250.184 214.576 250.461 214.81 250.799C215.044 251.138 215.192 251.529 215.241 251.938C215.291 252.346 215.24 252.761 215.093 253.146C214.946 253.53 214.708 253.874 214.399 254.146C214.089 254.418 213.719 254.61 213.318 254.707C212.918 254.804 212.5 254.801 212.101 254.7C211.702 254.599 211.333 254.402 211.027 254.127L211.112 253.58ZM236.201 240.512C236.703 240.511 237.195 240.658 237.613 240.935C238.031 241.213 238.358 241.608 238.551 242.072C238.745 242.535 238.796 243.045 238.699 243.538C238.603 244.03 238.362 244.483 238.007 244.839C237.653 245.194 237.201 245.437 236.709 245.535C236.217 245.634 235.706 245.584 235.242 245.393C234.778 245.201 234.382 244.876 234.102 244.459C233.823 244.041 233.674 243.551 233.674 243.049C233.674 242.378 233.94 241.734 234.414 241.259C234.888 240.783 235.53 240.515 236.201 240.512ZM236.201 245.142C236.618 245.144 237.026 245.022 237.373 244.791C237.72 244.561 237.991 244.233 238.151 243.848C238.312 243.464 238.354 243.04 238.273 242.631C238.192 242.223 237.992 241.847 237.697 241.553C237.403 241.258 237.027 241.057 236.619 240.977C236.21 240.896 235.786 240.938 235.402 241.099C235.017 241.259 234.689 241.53 234.459 241.877C234.228 242.224 234.106 242.632 234.108 243.049C234.108 243.605 234.328 244.138 234.721 244.532C235.113 244.926 235.645 245.149 236.201 245.151V245.142ZM216.401 199.385C216.903 199.385 217.394 199.534 217.811 199.813C218.229 200.093 218.554 200.489 218.745 200.953C218.937 201.417 218.987 201.928 218.888 202.42C218.79 202.912 218.547 203.364 218.191 203.718C217.836 204.073 217.383 204.313 216.89 204.41C216.398 204.507 215.888 204.456 215.424 204.262C214.961 204.069 214.566 203.742 214.288 203.324C214.01 202.905 213.863 202.414 213.865 201.912C213.868 201.245 214.134 200.606 214.605 200.135C215.077 199.663 215.716 199.397 216.383 199.395L216.401 199.385ZM216.401 204.015C216.817 204.015 217.224 203.891 217.57 203.66C217.915 203.429 218.185 203.101 218.344 202.717C218.503 202.333 218.545 201.91 218.464 201.502C218.382 201.094 218.182 200.719 217.888 200.425C217.594 200.131 217.219 199.931 216.812 199.85C216.404 199.769 215.981 199.811 215.597 199.97C215.213 200.129 214.884 200.398 214.653 200.744C214.422 201.09 214.299 201.496 214.299 201.912C214.296 202.188 214.348 202.461 214.452 202.717C214.555 202.972 214.708 203.205 214.902 203.401C215.095 203.597 215.326 203.753 215.58 203.86C215.834 203.967 216.107 204.023 216.383 204.024L216.401 204.015ZM307.518 263.414C307.864 263.393 308.21 263.443 308.535 263.561C308.861 263.678 309.159 263.861 309.411 264.098C309.663 264.336 309.864 264.622 310.001 264.94C310.138 265.257 310.209 265.6 310.209 265.946C310.209 266.292 310.138 266.634 310.001 266.952C309.864 267.27 309.663 267.556 309.411 267.793C309.159 268.03 308.861 268.213 308.535 268.331C308.21 268.449 307.864 268.498 307.518 268.477C306.874 268.438 306.268 268.154 305.826 267.684C305.383 267.213 305.137 266.592 305.137 265.946C305.137 265.3 305.383 264.678 305.826 264.208C306.268 263.737 306.874 263.454 307.518 263.414ZM307.518 268.044C307.933 268.042 308.337 267.917 308.681 267.685C309.024 267.453 309.291 267.124 309.447 266.741C309.603 266.357 309.642 265.935 309.559 265.529C309.476 265.123 309.274 264.751 308.979 264.46C308.684 264.169 308.309 263.972 307.902 263.895C307.495 263.817 307.074 263.861 306.693 264.023C306.311 264.185 305.986 264.456 305.759 264.802C305.531 265.149 305.412 265.555 305.416 265.969C305.428 266.515 305.653 267.034 306.042 267.416C306.431 267.798 306.954 268.013 307.499 268.015L307.518 268.044ZM281.76 255.098C282.262 255.095 282.754 255.24 283.174 255.517C283.593 255.793 283.921 256.188 284.116 256.651C284.311 257.114 284.364 257.624 284.268 258.118C284.173 258.611 283.933 259.065 283.579 259.421C283.225 259.778 282.773 260.021 282.28 260.121C281.788 260.22 281.277 260.171 280.812 259.979C280.348 259.788 279.951 259.463 279.671 259.046C279.392 258.628 279.242 258.137 279.242 257.635C279.235 256.963 279.493 256.317 279.962 255.836C280.43 255.355 281.07 255.08 281.741 255.07L281.76 255.098ZM281.76 259.718C282.174 259.72 282.58 259.599 282.926 259.369C283.272 259.14 283.541 258.813 283.701 258.43C283.861 258.048 283.903 257.626 283.822 257.219C283.742 256.812 283.542 256.438 283.249 256.145C282.956 255.852 282.582 255.652 282.175 255.572C281.768 255.491 281.347 255.534 280.964 255.693C280.581 255.853 280.254 256.122 280.025 256.468C279.796 256.814 279.674 257.22 279.676 257.635C279.686 258.178 279.907 258.697 280.292 259.08C280.677 259.464 281.197 259.683 281.741 259.69L281.76 259.718ZM301.211 191.079C301.33 191.069 301.45 191.069 301.569 191.079L301.833 191.579C301.631 191.518 301.421 191.486 301.211 191.484C300.823 191.481 300.443 191.586 300.111 191.787C299.78 191.987 299.511 192.276 299.334 192.62C299.157 192.965 299.078 193.352 299.108 193.738C299.138 194.124 299.274 194.494 299.502 194.808C299.73 195.121 300.04 195.365 300.398 195.513C300.756 195.66 301.148 195.705 301.53 195.643C301.913 195.581 302.27 195.414 302.563 195.161C302.857 194.908 303.074 194.578 303.191 194.209L303.455 194.728C303.25 195.128 302.943 195.466 302.564 195.708C302.185 195.949 301.749 196.086 301.3 196.102C300.851 196.119 300.406 196.016 300.01 195.804C299.614 195.591 299.282 195.277 299.048 194.894C298.814 194.51 298.686 194.071 298.678 193.622C298.67 193.173 298.782 192.73 299.003 192.338C299.223 191.947 299.544 191.621 299.932 191.395C300.32 191.168 300.761 191.05 301.211 191.051V191.079ZM294.092 210.445C294.593 210.443 295.083 210.59 295.499 210.867C295.916 211.144 296.242 211.538 296.434 212C296.627 212.463 296.677 212.971 296.58 213.462C296.483 213.953 296.242 214.405 295.888 214.759C295.534 215.112 295.083 215.353 294.592 215.451C294.101 215.548 293.592 215.497 293.13 215.304C292.668 215.112 292.274 214.787 291.997 214.37C291.72 213.953 291.573 213.463 291.575 212.962C291.577 212.295 291.843 211.657 292.315 211.185C292.786 210.713 293.425 210.447 294.092 210.445ZM294.092 215.055C294.507 215.057 294.912 214.936 295.258 214.707C295.603 214.478 295.873 214.152 296.033 213.77C296.192 213.388 296.235 212.966 296.156 212.56C296.076 212.153 295.877 211.779 295.585 211.486C295.293 211.192 294.92 210.992 294.513 210.91C294.107 210.829 293.686 210.87 293.303 211.028C292.92 211.186 292.592 211.454 292.362 211.799C292.131 212.143 292.008 212.548 292.008 212.962C292.011 213.515 292.231 214.045 292.621 214.436C293.011 214.828 293.539 215.051 294.092 215.055ZM273.283 157.825C273.928 157.864 274.534 158.148 274.976 158.618C275.419 159.089 275.665 159.71 275.665 160.356C275.665 161.002 275.419 161.624 274.976 162.094C274.534 162.564 273.928 162.848 273.283 162.888C272.938 162.909 272.592 162.859 272.266 162.741C271.941 162.624 271.643 162.441 271.391 162.203C271.139 161.966 270.938 161.68 270.801 161.362C270.663 161.045 270.593 160.702 270.593 160.356C270.593 160.01 270.663 159.668 270.801 159.35C270.938 159.032 271.139 158.746 271.391 158.509C271.643 158.272 271.941 158.089 272.266 157.971C272.592 157.853 272.938 157.803 273.283 157.825ZM273.283 162.454C273.699 162.452 274.104 162.327 274.449 162.095C274.794 161.863 275.062 161.534 275.219 161.15C275.377 160.765 275.417 160.343 275.335 159.935C275.253 159.528 275.052 159.154 274.757 158.861C274.463 158.568 274.088 158.369 273.681 158.289C273.273 158.208 272.851 158.25 272.467 158.41C272.084 158.569 271.756 158.839 271.525 159.184C271.295 159.53 271.171 159.936 271.171 160.351C271.171 160.628 271.226 160.902 271.332 161.158C271.439 161.414 271.594 161.646 271.791 161.841C271.987 162.037 272.22 162.192 272.476 162.297C272.732 162.402 273.007 162.455 273.283 162.454ZM270.775 201.705C271.278 201.705 271.768 201.854 272.186 202.133C272.603 202.412 272.928 202.809 273.12 203.273C273.311 203.737 273.361 204.247 273.262 204.739C273.164 205.232 272.921 205.683 272.566 206.038C272.21 206.392 271.757 206.633 271.264 206.73C270.772 206.826 270.262 206.775 269.798 206.582C269.335 206.388 268.94 206.062 268.662 205.643C268.385 205.225 268.237 204.734 268.239 204.232C268.239 203.899 268.305 203.57 268.432 203.262C268.56 202.955 268.747 202.676 268.983 202.441C269.218 202.207 269.498 202.021 269.806 201.894C270.113 201.768 270.443 201.704 270.775 201.705ZM270.775 206.334C271.189 206.332 271.592 206.208 271.935 205.977C272.278 205.747 272.544 205.42 272.702 205.038C272.859 204.656 272.9 204.236 272.818 203.83C272.737 203.425 272.538 203.053 272.246 202.761C271.954 202.469 271.582 202.27 271.177 202.189C270.772 202.108 270.351 202.148 269.969 202.305C269.587 202.463 269.26 202.729 269.03 203.072C268.799 203.415 268.675 203.818 268.673 204.232C268.672 204.508 268.725 204.782 268.83 205.038C268.936 205.293 269.09 205.526 269.286 205.721C269.481 205.917 269.714 206.071 269.969 206.177C270.225 206.282 270.499 206.335 270.775 206.334ZM249.194 152.158C249.693 152.156 250.183 152.303 250.599 152.579C251.016 152.855 251.341 153.248 251.534 153.709C251.727 154.17 251.779 154.678 251.683 155.169C251.588 155.659 251.349 156.11 250.996 156.465C250.644 156.82 250.195 157.062 249.705 157.161C249.216 157.261 248.707 157.212 248.245 157.023C247.782 156.833 247.387 156.511 247.107 156.097C246.828 155.682 246.678 155.194 246.676 154.694C246.676 154.03 246.937 153.392 247.402 152.917C247.868 152.443 248.501 152.17 249.165 152.158H249.194ZM249.194 156.778C249.608 156.78 250.014 156.658 250.36 156.429C250.706 156.2 250.975 155.873 251.135 155.49C251.295 155.107 251.337 154.686 251.256 154.279C251.176 153.872 250.976 153.498 250.683 153.205C250.39 152.912 250.016 152.712 249.609 152.632C249.202 152.551 248.781 152.593 248.398 152.753C248.015 152.913 247.688 153.182 247.459 153.528C247.23 153.874 247.108 154.28 247.11 154.694C247.112 155.241 247.329 155.766 247.713 156.155C248.097 156.545 248.618 156.768 249.165 156.778H249.194ZM229.78 162.765C230.283 162.763 230.775 162.911 231.194 163.189C231.613 163.468 231.939 163.864 232.132 164.329C232.325 164.793 232.375 165.304 232.277 165.797C232.179 166.29 231.936 166.743 231.58 167.098C231.224 167.453 230.77 167.694 230.276 167.79C229.783 167.887 229.272 167.835 228.808 167.64C228.345 167.445 227.949 167.117 227.672 166.698C227.396 166.278 227.25 165.785 227.254 165.283C227.258 164.62 227.523 163.985 227.99 163.514C228.457 163.044 229.089 162.775 229.752 162.765H229.78ZM229.78 167.395C230.197 167.398 230.605 167.278 230.953 167.05C231.301 166.822 231.573 166.495 231.735 166.112C231.898 165.729 231.943 165.306 231.864 164.897C231.786 164.488 231.588 164.112 231.296 163.815C231.004 163.519 230.63 163.316 230.222 163.232C229.814 163.149 229.391 163.188 229.006 163.345C228.62 163.502 228.29 163.77 228.057 164.115C227.824 164.46 227.699 164.866 227.697 165.283C227.694 165.834 227.908 166.364 228.292 166.759C228.677 167.154 229.201 167.382 229.752 167.395H229.78ZM238.266 260.859C238.768 260.857 239.26 261.005 239.679 261.283C240.097 261.561 240.424 261.957 240.617 262.42C240.81 262.884 240.861 263.395 240.763 263.888C240.666 264.381 240.424 264.833 240.069 265.189C239.714 265.544 239.261 265.786 238.768 265.883C238.275 265.981 237.764 265.93 237.301 265.737C236.837 265.544 236.441 265.217 236.163 264.799C235.885 264.38 235.737 263.888 235.739 263.386C235.739 263.052 235.805 262.722 235.933 262.415C236.062 262.107 236.249 261.827 236.486 261.592C236.723 261.358 237.003 261.172 237.312 261.046C237.621 260.92 237.952 260.857 238.285 260.859H238.266ZM238.266 265.488C238.683 265.492 239.091 265.372 239.439 265.143C239.788 264.915 240.06 264.588 240.222 264.204C240.384 263.82 240.428 263.396 240.349 262.987C240.27 262.578 240.072 262.202 239.778 261.906C239.485 261.61 239.11 261.408 238.702 261.325C238.294 261.243 237.87 261.283 237.485 261.442C237.099 261.6 236.77 261.87 236.538 262.216C236.306 262.562 236.182 262.969 236.182 263.386C236.181 263.662 236.235 263.936 236.34 264.192C236.445 264.448 236.6 264.68 236.795 264.875C236.991 265.071 237.223 265.226 237.479 265.331C237.734 265.436 238.008 265.49 238.285 265.488H238.266ZM261.385 244.369C261.885 244.367 262.375 244.514 262.792 244.791C263.209 245.068 263.534 245.462 263.727 245.924C263.919 246.386 263.97 246.895 263.873 247.386C263.776 247.877 263.535 248.328 263.181 248.682C262.827 249.036 262.376 249.277 261.885 249.374C261.394 249.471 260.885 249.421 260.423 249.228C259.961 249.036 259.566 248.71 259.289 248.293C259.012 247.876 258.865 247.387 258.867 246.886C258.869 246.554 258.935 246.226 259.063 245.92C259.191 245.614 259.379 245.336 259.614 245.102C259.85 244.868 260.129 244.683 260.436 244.557C260.743 244.432 261.072 244.367 261.404 244.369H261.385ZM261.385 248.979C261.799 248.981 262.205 248.86 262.55 248.631C262.896 248.402 263.165 248.076 263.325 247.694C263.485 247.311 263.528 246.89 263.448 246.484C263.368 246.077 263.17 245.703 262.878 245.409C262.585 245.116 262.212 244.915 261.806 244.834C261.4 244.752 260.978 244.793 260.595 244.951C260.212 245.11 259.885 245.378 259.654 245.722C259.424 246.067 259.301 246.472 259.301 246.886C259.3 247.163 259.353 247.437 259.458 247.694C259.563 247.95 259.718 248.183 259.913 248.379C260.109 248.575 260.341 248.731 260.597 248.837C260.852 248.943 261.127 248.998 261.404 248.998L261.385 248.979ZM234.089 213.943C234.592 213.939 235.085 214.085 235.505 214.363C235.925 214.64 236.253 215.036 236.448 215.5C236.642 215.964 236.694 216.476 236.596 216.969C236.499 217.463 236.257 217.917 235.901 218.273C235.546 218.628 235.092 218.87 234.598 218.968C234.104 219.065 233.593 219.013 233.129 218.819C232.665 218.624 232.269 218.296 231.991 217.876C231.714 217.457 231.568 216.964 231.572 216.46C231.573 216.128 231.64 215.8 231.768 215.494C231.896 215.188 232.083 214.91 232.319 214.676C232.554 214.443 232.833 214.257 233.14 214.132C233.447 214.006 233.776 213.942 234.108 213.943H234.089ZM234.089 218.563C234.503 218.565 234.908 218.444 235.254 218.215C235.599 217.987 235.869 217.661 236.029 217.279C236.189 216.898 236.232 216.477 236.153 216.071C236.074 215.664 235.877 215.29 235.585 214.996C235.294 214.702 234.922 214.501 234.516 214.419C234.111 214.336 233.69 214.376 233.306 214.532C232.923 214.689 232.595 214.956 232.364 215.299C232.132 215.642 232.007 216.046 232.006 216.46C232.004 216.737 232.058 217.011 232.163 217.266C232.268 217.522 232.423 217.754 232.619 217.95C232.814 218.145 233.046 218.3 233.302 218.405C233.558 218.511 233.832 218.564 234.108 218.563H234.089ZM231.591 182.999C232.09 182.999 232.579 183.147 232.995 183.424C233.41 183.702 233.734 184.097 233.925 184.559C234.116 185.02 234.166 185.528 234.069 186.018C233.971 186.509 233.731 186.959 233.377 187.312C233.024 187.666 232.574 187.906 232.084 188.004C231.594 188.101 231.085 188.051 230.624 187.86C230.162 187.669 229.767 187.345 229.49 186.929C229.212 186.514 229.064 186.025 229.064 185.525C229.064 184.855 229.33 184.213 229.804 183.739C230.278 183.265 230.921 182.999 231.591 182.999ZM231.591 187.609C232.005 187.609 232.41 187.486 232.755 187.256C233.099 187.025 233.367 186.698 233.525 186.315C233.684 185.932 233.724 185.511 233.643 185.104C233.561 184.698 233.361 184.325 233.067 184.033C232.774 183.74 232.4 183.542 231.993 183.462C231.587 183.382 231.165 183.425 230.783 183.585C230.401 183.745 230.075 184.015 229.846 184.36C229.617 184.705 229.496 185.111 229.498 185.525C229.505 186.075 229.729 186.599 230.121 186.984C230.513 187.369 231.041 187.583 231.591 187.581V187.609ZM214.073 224.163C214.65 224.169 215.208 224.372 215.653 224.739C216.099 225.105 216.406 225.614 216.523 226.179C216.639 226.744 216.559 227.332 216.295 227.846C216.031 228.359 215.6 228.766 215.072 229L215.157 228.463C215.546 228.227 215.848 227.87 216.015 227.446C216.182 227.023 216.206 226.556 216.083 226.118C215.96 225.68 215.697 225.294 215.334 225.019C214.971 224.744 214.528 224.596 214.073 224.597C213.901 224.595 213.729 224.617 213.563 224.663L213.318 224.277C213.561 224.191 213.815 224.143 214.073 224.135V224.163ZM247.072 197.113C247.574 197.111 248.066 197.258 248.484 197.536C248.902 197.813 249.229 198.209 249.422 198.672C249.616 199.135 249.667 199.646 249.57 200.138C249.474 200.631 249.233 201.084 248.878 201.439C248.524 201.795 248.072 202.038 247.58 202.136C247.088 202.235 246.577 202.185 246.113 201.993C245.649 201.802 245.253 201.477 244.974 201.059C244.694 200.642 244.545 200.151 244.545 199.649C244.54 198.976 244.803 198.328 245.274 197.847C245.746 197.366 246.389 197.092 247.063 197.085L247.072 197.113ZM247.072 201.733C247.487 201.735 247.893 201.613 248.239 201.384C248.584 201.155 248.854 200.828 249.014 200.445C249.173 200.062 249.215 199.641 249.135 199.234C249.055 198.827 248.855 198.453 248.562 198.16C248.268 197.867 247.895 197.667 247.488 197.587C247.081 197.506 246.659 197.548 246.276 197.708C245.893 197.868 245.567 198.137 245.337 198.483C245.108 198.829 244.987 199.235 244.989 199.649C244.998 200.195 245.221 200.715 245.608 201.099C245.995 201.482 246.517 201.7 247.063 201.705L247.072 201.733ZM311.997 224.135C312.495 224.143 312.98 224.297 313.391 224.58C313.802 224.862 314.12 225.26 314.305 225.723C314.49 226.186 314.534 226.693 314.432 227.181C314.329 227.669 314.085 228.116 313.729 228.465C313.373 228.814 312.922 229.05 312.433 229.144C311.943 229.237 311.436 229.184 310.977 228.99C310.518 228.796 310.126 228.471 309.851 228.055C309.576 227.639 309.43 227.151 309.432 226.653C309.433 226.318 309.501 225.988 309.631 225.68C309.761 225.372 309.95 225.093 310.189 224.858C310.428 224.624 310.71 224.44 311.02 224.316C311.331 224.191 311.663 224.13 311.997 224.135ZM311.997 228.746C312.411 228.748 312.817 228.626 313.162 228.397C313.508 228.169 313.777 227.842 313.937 227.46C314.097 227.078 314.14 226.657 314.06 226.25C313.981 225.843 313.782 225.47 313.49 225.176C313.197 224.882 312.824 224.682 312.418 224.6C312.012 224.519 311.59 224.56 311.207 224.718C310.824 224.876 310.497 225.144 310.267 225.489C310.036 225.833 309.913 226.238 309.913 226.653C309.913 227.206 310.132 227.737 310.523 228.129C310.913 228.522 311.443 228.743 311.997 228.746ZM261.404 267.591C262.055 267.59 262.681 267.841 263.151 268.291C263.622 268.74 263.901 269.354 263.93 270.005H263.487C263.458 269.471 263.226 268.969 262.839 268.6C262.452 268.232 261.938 268.026 261.404 268.025C260.871 268.024 260.358 268.228 259.972 268.595C259.586 268.962 259.356 269.463 259.329 269.995H258.886C258.918 269.348 259.196 268.738 259.665 268.29C260.133 267.843 260.756 267.593 261.404 267.591ZM280.93 228.067C281.43 228.067 281.919 228.215 282.335 228.493C282.751 228.771 283.074 229.167 283.265 229.629C283.456 230.091 283.506 230.6 283.408 231.09C283.309 231.58 283.068 232.031 282.713 232.384C282.359 232.737 281.908 232.977 281.417 233.073C280.926 233.169 280.418 233.118 279.956 232.925C279.495 232.733 279.101 232.407 278.824 231.991C278.548 231.574 278.401 231.084 278.403 230.584C278.406 229.916 278.673 229.275 279.147 228.804C279.62 228.332 280.261 228.067 280.93 228.067ZM280.93 232.677C281.344 232.677 281.749 232.555 282.093 232.325C282.437 232.095 282.705 231.768 282.864 231.385C283.022 231.003 283.064 230.582 282.983 230.176C282.902 229.77 282.703 229.397 282.41 229.104C282.117 228.811 281.744 228.612 281.338 228.531C280.932 228.451 280.511 228.492 280.129 228.65C279.746 228.809 279.42 229.077 279.19 229.421C278.96 229.766 278.837 230.17 278.837 230.584C278.836 230.859 278.889 231.132 278.994 231.387C279.098 231.641 279.253 231.872 279.447 232.067C279.642 232.262 279.873 232.416 280.127 232.521C280.382 232.625 280.655 232.679 280.93 232.677ZM279.676 181.688C280.175 181.692 280.662 181.843 281.075 182.123C281.488 182.403 281.809 182.799 281.997 183.261C282.185 183.723 282.233 184.23 282.133 184.719C282.033 185.208 281.791 185.657 281.437 186.008C281.083 186.36 280.633 186.598 280.143 186.694C279.654 186.79 279.146 186.739 278.686 186.548C278.225 186.356 277.832 186.032 277.555 185.617C277.278 185.202 277.13 184.714 277.13 184.215C277.13 183.882 277.196 183.551 277.324 183.244C277.453 182.936 277.64 182.656 277.877 182.421C278.114 182.187 278.394 182.001 278.703 181.875C279.012 181.749 279.343 181.686 279.676 181.688ZM279.676 186.299C280.206 186.263 280.702 186.027 281.064 185.64C281.427 185.252 281.629 184.741 281.629 184.21C281.629 183.679 281.427 183.168 281.064 182.781C280.702 182.393 280.206 182.157 279.676 182.122C279.39 182.103 279.103 182.142 278.833 182.239C278.563 182.335 278.315 182.485 278.106 182.681C277.897 182.877 277.73 183.114 277.615 183.377C277.501 183.64 277.442 183.924 277.442 184.21C277.442 184.497 277.501 184.781 277.615 185.044C277.73 185.307 277.897 185.543 278.106 185.739C278.315 185.935 278.563 186.086 278.833 186.182C279.103 186.278 279.39 186.318 279.676 186.299ZM324.518 246C324.679 246.001 324.84 246.016 324.999 246.047L325.168 246.537C324.958 246.469 324.739 246.434 324.518 246.433C324.231 246.414 323.942 246.454 323.671 246.551C323.4 246.648 323.151 246.799 322.941 246.996C322.731 247.192 322.563 247.43 322.448 247.694C322.334 247.958 322.275 248.243 322.275 248.531C322.275 248.819 322.334 249.104 322.448 249.368C322.563 249.633 322.731 249.87 322.941 250.067C323.151 250.264 323.4 250.415 323.671 250.512C323.942 250.608 324.231 250.648 324.518 250.629C324.864 250.631 325.206 250.546 325.511 250.381C325.815 250.216 326.074 249.977 326.262 249.686L326.432 250.177C326.2 250.453 325.912 250.675 325.587 250.83C325.261 250.985 324.906 251.067 324.546 251.072C324.201 251.093 323.855 251.044 323.529 250.926C323.204 250.808 322.906 250.625 322.654 250.388C322.402 250.151 322.201 249.865 322.063 249.547C321.926 249.229 321.855 248.887 321.855 248.541C321.855 248.195 321.926 247.852 322.063 247.535C322.201 247.217 322.402 246.931 322.654 246.694C322.906 246.456 323.204 246.273 323.529 246.156C323.855 246.038 324.201 245.988 324.546 246.009L324.518 246ZM297.015 241.814C297.517 241.814 298.008 241.963 298.426 242.242C298.843 242.522 299.169 242.919 299.36 243.384C299.551 243.848 299.6 244.359 299.501 244.852C299.402 245.344 299.158 245.796 298.802 246.15C298.445 246.504 297.991 246.744 297.498 246.84C297.005 246.935 296.494 246.882 296.031 246.688C295.568 246.493 295.173 246.165 294.897 245.745C294.621 245.326 294.475 244.833 294.479 244.331C294.48 243.998 294.547 243.669 294.676 243.362C294.804 243.056 294.992 242.777 295.229 242.544C295.465 242.31 295.746 242.125 296.054 242C296.362 241.874 296.692 241.811 297.024 241.814H297.015ZM297.015 246.433C297.428 246.432 297.832 246.308 298.174 246.077C298.517 245.846 298.784 245.519 298.941 245.137C299.098 244.755 299.139 244.335 299.058 243.93C298.977 243.525 298.778 243.152 298.486 242.86C298.193 242.568 297.821 242.369 297.416 242.288C297.011 242.207 296.591 242.248 296.209 242.405C295.827 242.562 295.5 242.829 295.269 243.172C295.038 243.514 294.914 243.918 294.912 244.331C294.911 244.608 294.965 244.883 295.071 245.139C295.177 245.396 295.332 245.628 295.529 245.824C295.725 246.019 295.959 246.174 296.215 246.279C296.472 246.383 296.747 246.436 297.024 246.433H297.015ZM256.774 222.042C257.274 222.04 257.764 222.187 258.181 222.463C258.597 222.74 258.923 223.134 259.115 223.595C259.308 224.057 259.359 224.565 259.263 225.056C259.167 225.547 258.927 225.998 258.574 226.352C258.221 226.707 257.77 226.948 257.28 227.046C256.79 227.145 256.281 227.095 255.819 226.904C255.357 226.713 254.961 226.389 254.683 225.974C254.405 225.558 254.257 225.069 254.257 224.569C254.262 223.9 254.53 223.26 255.002 222.788C255.475 222.315 256.115 222.047 256.784 222.042H256.774ZM256.774 226.653C257.186 226.653 257.589 226.53 257.932 226.301C258.274 226.072 258.542 225.747 258.699 225.366C258.857 224.985 258.898 224.567 258.818 224.162C258.737 223.758 258.539 223.387 258.248 223.095C257.956 222.804 257.585 222.606 257.181 222.525C256.776 222.445 256.358 222.486 255.977 222.644C255.596 222.801 255.271 223.069 255.042 223.411C254.813 223.754 254.69 224.157 254.69 224.569C254.693 225.122 254.915 225.652 255.307 226.043C255.699 226.433 256.23 226.653 256.784 226.653H256.774ZM263.374 143.342C263.55 143.584 263.778 143.784 264.04 143.927C264.303 144.071 264.594 144.154 264.892 144.172L265.477 144.578C265.332 144.592 265.187 144.592 265.043 144.578C264.559 144.576 264.086 144.437 263.679 144.177C263.271 143.916 262.947 143.545 262.742 143.107L263.374 143.342ZM255.567 171.439C256.069 171.441 256.56 171.592 256.976 171.873C257.392 172.153 257.716 172.551 257.906 173.016C258.095 173.481 258.143 173.991 258.043 174.483C257.942 174.975 257.698 175.426 257.341 175.779C256.984 176.132 256.531 176.371 256.038 176.466C255.545 176.561 255.035 176.508 254.572 176.312C254.109 176.117 253.715 175.789 253.439 175.37C253.163 174.951 253.018 174.459 253.022 173.957C253.024 173.291 253.289 172.654 253.758 172.183C254.228 171.711 254.864 171.444 255.53 171.439H255.567ZM255.567 176.069C255.982 176.067 256.388 175.942 256.732 175.71C257.076 175.479 257.344 175.15 257.502 174.766C257.66 174.383 257.701 173.961 257.62 173.554C257.538 173.147 257.338 172.773 257.045 172.479C256.751 172.186 256.377 171.986 255.97 171.904C255.563 171.823 255.141 171.864 254.758 172.022C254.374 172.18 254.045 172.448 253.814 172.792C253.582 173.136 253.457 173.542 253.455 173.957C253.453 174.511 253.669 175.044 254.058 175.44C254.446 175.835 254.975 176.061 255.53 176.069H255.567Z" fill="white"/>
<path d="M223.634 167.385C221.229 171.383 218.571 175.248 216.091 179.19C217.1 176.361 218.099 173.598 219.212 170.845C219.212 170.789 219.155 170.742 219.127 170.798C217.364 174.109 215.924 177.582 214.827 181.17C212.95 184.151 211.271 187.254 209.802 190.457C207.992 194.288 206.853 198.402 206.436 202.619C206.165 206.87 206.765 211.13 208.199 215.14C209.892 219.738 212 224.172 214.497 228.387C214.818 228.953 215.601 228.435 215.337 227.869C211.81 220.326 207.916 212.444 208.265 203.921C208.614 195.397 212.546 187.722 216.393 180.415C218.629 175.959 221.148 171.651 223.935 167.517C224.058 167.376 223.766 167.206 223.634 167.385Z" fill="#263238"/>
<path d="M235.033 223.871C240.116 224.324 245.158 225.153 250.118 226.351C252.579 226.983 254.993 227.718 257.397 228.51C258.604 228.906 259.811 229.264 261.027 229.613C262.288 230.013 263.592 230.26 264.912 230.349C264.931 230.355 264.947 230.367 264.959 230.383C264.97 230.399 264.977 230.418 264.977 230.438C264.977 230.458 264.97 230.477 264.959 230.493C264.947 230.509 264.931 230.522 264.912 230.528C263.655 230.591 262.395 230.569 261.14 230.462C259.939 230.316 258.748 230.089 257.576 229.783C255.078 229.17 252.608 228.435 250.109 227.793C245.084 226.502 240.058 225.21 234.948 224.286C234.741 224.248 234.797 223.843 235.033 223.871Z" fill="#263238"/>
<path d="M222.474 228.369C226.661 227.932 230.87 227.731 235.08 227.765C237.192 227.765 239.276 227.935 241.378 228.142C242.378 228.237 243.377 228.35 244.376 228.482C245.47 228.623 246.554 228.906 247.658 229.029C247.771 229.029 247.771 229.227 247.658 229.217C246.62 229.123 245.564 229.217 244.518 229.217L241.369 229.132C239.266 229.132 237.173 229.057 235.071 228.981C230.865 228.84 226.679 228.746 222.474 228.746C222.238 228.717 222.257 228.397 222.474 228.369Z" fill="#263238"/>
<path d="M278.686 154.713C310.375 187.854 349.711 257.201 341.923 270.995C333.249 286.363 287.955 239.4 289.388 237.137C290.604 235.251 274.472 193.191 262.988 162.652C251.504 132.113 270.861 146.473 278.686 154.713Z" fill="#AD6359"/>
<path d="M317.476 194.464L272.021 202.648C272.021 202.648 260.707 170.43 258.416 152.554C257.162 142.532 263.045 142.117 270.456 147.444C296.394 166.084 317.476 194.464 317.476 194.464Z" fill="#F29F05"/>
<path d="M301.211 191.079C301.711 191.079 302.2 191.227 302.616 191.505C303.032 191.783 303.356 192.179 303.547 192.641C303.738 193.103 303.787 193.612 303.689 194.102C303.591 194.593 303.349 195.043 302.995 195.396C302.64 195.749 302.189 195.989 301.698 196.085C301.208 196.182 300.699 196.13 300.238 195.937C299.776 195.745 299.382 195.419 299.106 195.003C298.829 194.586 298.683 194.096 298.684 193.596C298.687 192.928 298.954 192.287 299.428 191.816C299.901 191.344 300.543 191.079 301.211 191.079ZM301.211 195.689C301.626 195.691 302.031 195.57 302.377 195.341C302.722 195.112 302.992 194.786 303.152 194.404C303.312 194.021 303.354 193.6 303.275 193.194C303.195 192.787 302.996 192.413 302.704 192.12C302.412 191.826 302.039 191.626 301.633 191.544C301.226 191.463 300.805 191.503 300.422 191.662C300.039 191.82 299.711 192.088 299.481 192.432C299.251 192.777 299.128 193.182 299.128 193.596C299.128 194.15 299.347 194.681 299.737 195.073C300.128 195.465 300.658 195.687 301.211 195.689ZM273.284 157.825C273.929 157.864 274.534 158.148 274.977 158.618C275.419 159.089 275.666 159.71 275.666 160.356C275.666 161.002 275.419 161.624 274.977 162.094C274.534 162.564 273.929 162.848 273.284 162.888C272.939 162.909 272.593 162.859 272.267 162.741C271.942 162.624 271.644 162.44 271.392 162.203C271.14 161.966 270.939 161.68 270.801 161.362C270.664 161.045 270.593 160.702 270.593 160.356C270.593 160.01 270.664 159.668 270.801 159.35C270.939 159.032 271.14 158.746 271.392 158.509C271.644 158.272 271.942 158.089 272.267 157.971C272.593 157.853 272.939 157.803 273.284 157.825ZM273.284 162.454C273.7 162.452 274.105 162.327 274.45 162.095C274.794 161.863 275.062 161.534 275.22 161.149C275.378 160.765 275.418 160.343 275.336 159.935C275.253 159.528 275.052 159.154 274.758 158.861C274.464 158.568 274.089 158.369 273.681 158.289C273.274 158.208 272.852 158.25 272.468 158.41C272.084 158.569 271.756 158.839 271.526 159.184C271.295 159.53 271.172 159.936 271.172 160.351C271.172 160.628 271.227 160.902 271.333 161.158C271.439 161.414 271.595 161.646 271.791 161.841C271.988 162.037 272.22 162.191 272.477 162.297C272.733 162.402 273.007 162.455 273.284 162.454ZM293.15 167.753C293.532 167.754 293.909 167.841 294.253 168.007L295.422 169.186C295.586 169.524 295.67 169.895 295.667 170.27C295.669 170.773 295.522 171.264 295.244 171.683C294.966 172.101 294.57 172.428 294.106 172.621C293.642 172.814 293.131 172.865 292.639 172.768C292.146 172.67 291.693 172.428 291.338 172.073C290.982 171.718 290.741 171.265 290.643 170.772C290.546 170.279 290.597 169.768 290.79 169.305C290.983 168.841 291.309 168.445 291.728 168.167C292.146 167.889 292.638 167.741 293.14 167.743L293.15 167.753ZM293.15 172.382C293.566 172.382 293.972 172.259 294.318 172.028C294.664 171.797 294.933 171.468 295.092 171.084C295.252 170.7 295.293 170.277 295.212 169.869C295.131 169.462 294.931 169.087 294.637 168.793C294.343 168.499 293.968 168.299 293.56 168.217C293.152 168.136 292.73 168.178 292.345 168.337C291.961 168.496 291.633 168.766 291.402 169.111C291.171 169.457 291.047 169.864 291.047 170.28C291.046 170.556 291.1 170.83 291.205 171.086C291.31 171.341 291.465 171.574 291.66 171.769C291.856 171.965 292.088 172.119 292.344 172.225C292.599 172.33 292.873 172.383 293.15 172.382ZM272.615 202.553L272.087 202.648C272.06 202.617 272.028 202.592 271.992 202.572L271.766 201.931C272.092 202.069 272.382 202.278 272.615 202.544V202.553ZM279.677 181.697C280.176 181.701 280.662 181.853 281.075 182.132C281.488 182.412 281.809 182.808 281.998 183.27C282.186 183.732 282.233 184.24 282.134 184.729C282.034 185.218 281.792 185.666 281.438 186.018C281.084 186.369 280.633 186.608 280.144 186.704C279.654 186.8 279.147 186.749 278.686 186.557C278.226 186.365 277.832 186.041 277.556 185.626C277.279 185.211 277.131 184.723 277.131 184.224C277.13 183.89 277.195 183.559 277.322 183.25C277.45 182.941 277.638 182.661 277.874 182.425C278.111 182.189 278.392 182.002 278.702 181.876C279.011 181.749 279.342 181.686 279.677 181.688V181.697ZM279.677 186.308C280.206 186.272 280.703 186.037 281.065 185.649C281.428 185.261 281.629 184.75 281.629 184.22C281.629 183.689 281.428 183.178 281.065 182.79C280.703 182.402 280.206 182.167 279.677 182.131C279.391 182.112 279.104 182.152 278.834 182.248C278.563 182.344 278.316 182.495 278.107 182.691C277.897 182.887 277.73 183.123 277.616 183.386C277.502 183.649 277.443 183.933 277.443 184.22C277.443 184.506 277.502 184.79 277.616 185.053C277.73 185.316 277.897 185.553 278.107 185.748C278.316 185.944 278.563 186.095 278.834 186.191C279.104 186.288 279.391 186.327 279.677 186.308ZM265.308 144.606H265.015C264.491 144.605 263.98 144.44 263.554 144.134C264.153 144.228 264.74 144.383 265.308 144.596V144.606Z" fill="white"/>
<path d="M272.312 195.199C279.205 193.361 298.033 188.92 310.649 187.656C310.724 187.656 310.79 187.93 310.715 187.949C300.343 190.607 279.431 194.417 272.407 195.652C272.275 195.642 272.19 195.256 272.312 195.199Z" fill="#263238"/>
<path d="M277.555 201.648C275.669 201.827 273.783 202.054 271.954 202.299L272.35 202.535C270.992 197.588 269.499 192.679 267.872 187.807C266.25 182.952 264.543 178.115 262.582 173.344C263.77 178.35 265.203 183.282 266.721 188.175C268.239 193.068 269.899 197.943 271.718 202.799L271.831 203.091L272.105 203.034C273.915 202.572 275.735 202.129 277.555 201.648Z" fill="#263238"/>
<path d="M265.59 183.149C265.186 182.15 264.667 181.201 264.044 180.321C263.427 179.417 262.74 178.562 261.988 177.766C262.09 178.311 262.271 178.838 262.526 179.331C262.76 179.824 263.035 180.297 263.346 180.745C263.967 181.657 264.723 182.468 265.59 183.149Z" fill="#263238"/>
<path d="M340.905 272.409C332.316 281.705 312.488 280.989 262.413 283.874C255.483 284.27 239.511 236.128 246.894 235.327C256.181 234.308 292.471 232.376 295.139 232.574C317.664 234.205 346.723 266.111 340.905 272.409Z" fill="#AD6359"/>
<path d="M256.953 234.431C256.953 234.431 235.862 234.733 224.83 238.316C210.056 243.115 199.279 253.345 195.027 257.908C186.136 267.421 171.23 296.565 178.876 302.326C185.806 307.54 199.534 276.972 199.534 276.972C199.534 276.972 180.394 305.824 189.879 310.575C199.364 315.327 213.262 278.924 213.262 278.924C213.262 278.924 194.254 309.01 204.776 312.357C212.753 314.884 227.225 282.639 227.225 282.639C227.225 282.639 211.065 308.614 219.164 311.565C228.102 314.828 243.329 285.901 243.329 285.901C265.166 289.937 277.215 282.931 285.192 276.925C287.19 275.473 256.953 234.431 256.953 234.431Z" fill="#AD6359"/>
<path d="M205.521 266.573C203.145 269.873 200.722 273.173 198.657 276.718C196.592 280.263 194.631 283.808 192.905 287.495C188.653 296.527 187.399 302.854 187.522 302.467C190.35 293.435 197.563 280.782 199.637 277.255C201.712 273.729 203.588 270.146 205.653 266.639C205.719 266.554 205.577 266.488 205.521 266.573Z" fill="#263238"/>
<path d="M218.315 273.814C215.487 278.17 212.488 282.384 209.83 286.863C207.171 291.341 205.115 295.792 202.749 300.421C202.57 300.779 202.824 300.76 203.013 300.421C205.53 295.886 208.198 291.935 210.763 287.391C213.328 282.846 215.713 278.283 218.428 273.889C218.466 273.804 218.362 273.748 218.315 273.814Z" fill="#263238"/>
<path d="M230.422 278.047C225.708 284.487 222.238 291.775 218.976 299.007C218.816 299.365 219.136 299.308 219.325 298.95C222.992 291.907 225.83 286.363 230.639 278.207C230.724 278.085 230.526 277.915 230.422 278.047Z" fill="#263238"/>
<path d="M313.685 240.512C310.668 238.061 302.022 232.102 292.783 232.366C292.679 232.366 292.66 232.508 292.783 232.517C300.269 233.385 310.499 238.495 313.61 240.635C313.626 240.639 313.642 240.638 313.657 240.632C313.672 240.626 313.684 240.615 313.693 240.601C313.701 240.588 313.705 240.572 313.704 240.556C313.702 240.54 313.696 240.525 313.685 240.512Z" fill="#263238"/>
<path d="M257.528 142.843C257.359 145.03 249.401 160.267 239.69 161.304C236.531 161.634 233.957 144.455 233.957 144.455L233.476 143.229L226.763 126.079L245.563 109.457L248.307 107.213C248.307 107.213 249.835 112.031 251.673 118.046C251.758 118.319 251.852 118.602 251.937 118.894C252.022 119.187 252.163 119.554 252.248 119.837C252.541 120.78 252.823 121.648 253.097 122.562C253.304 123.26 253.512 123.939 253.7 124.674C253.889 125.41 254.096 126.136 254.313 126.871C256.227 134.244 257.575 141.919 257.528 142.843Z" fill="#AD6359"/>
<path d="M251.674 118.065C250.648 123.328 248.49 128.306 245.347 132.652C242.205 136.997 238.154 140.607 233.477 143.229L226.764 126.079L245.564 109.457L248.308 107.213C248.308 107.213 249.835 112.049 251.674 118.065Z" fill="#263238"/>
<path d="M196.82 105.685C201.072 137.742 220.749 138.798 227.66 137.865C233.93 137.025 255.172 133.367 254.248 101.093C253.324 68.8197 237.079 60.6358 222.635 61.8049C208.19 62.9741 192.52 73.6282 196.82 105.685Z" fill="#AD6359"/>
<path d="M201.42 102.206C202.121 101.948 202.807 101.652 203.476 101.32C204.229 101.097 204.89 100.637 205.361 100.009C205.471 99.7803 205.503 99.5217 205.452 99.2731C205.401 99.0244 205.27 98.7994 205.079 98.6325C204.649 98.3589 204.153 98.2065 203.643 98.1916C203.133 98.1766 202.629 98.2997 202.184 98.5477C201.205 98.8995 200.394 99.6061 199.912 100.528C199.81 100.746 199.774 100.989 199.81 101.227C199.845 101.465 199.95 101.687 200.111 101.866C200.271 102.045 200.481 102.173 200.714 102.233C200.947 102.294 201.193 102.284 201.42 102.206Z" fill="#263238"/>
<path d="M223.087 96.7092C222.342 96.7516 221.596 96.7516 220.852 96.7092C220.066 96.8177 219.267 96.6618 218.58 96.2661C218.387 96.1001 218.255 95.8751 218.204 95.626C218.153 95.377 218.185 95.118 218.297 94.8895C218.584 94.4699 218.979 94.1355 219.44 93.9214C219.902 93.7074 220.412 93.6216 220.918 93.6732C221.945 93.6288 222.952 93.9645 223.747 94.6161C223.911 94.7744 224.028 94.9753 224.084 95.1963C224.14 95.4173 224.133 95.6496 224.065 95.867C223.996 96.0845 223.868 96.2785 223.696 96.4273C223.523 96.5761 223.312 96.6737 223.087 96.7092Z" fill="#263238"/>
<path d="M219.674 103.799C219.674 103.714 219.853 103.875 219.872 103.96C220.192 106.138 220.928 108.58 223.021 108.947C223.033 108.952 223.044 108.961 223.051 108.972C223.058 108.982 223.062 108.995 223.062 109.009C223.062 109.022 223.058 109.035 223.051 109.046C223.044 109.056 223.033 109.065 223.021 109.07C220.569 109.117 219.627 105.864 219.674 103.799Z" fill="#263238"/>
<path d="M221.191 101.141C224.633 100.198 226.16 107.184 222.983 108.014C219.805 108.844 218.316 101.914 221.191 101.141Z" fill="#263238"/>
<path d="M222.633 101.207C223.331 101.461 224.076 102.027 224.821 101.933C225.566 101.838 226.16 100.99 226.565 100.141C226.565 100.056 226.678 100.141 226.697 100.198C227.008 101.527 226.801 103.026 225.424 103.517C224.048 104.007 222.963 103.007 222.341 101.744C222.228 101.518 222.36 101.103 222.633 101.207Z" fill="#263238"/>
<path d="M206.841 105.761C206.841 105.685 206.7 105.902 206.719 105.987C207.285 108.118 207.567 110.701 205.776 111.804C205.719 111.804 205.776 111.955 205.823 111.927C208.124 111.05 207.718 107.693 206.841 105.761Z" fill="#263238"/>
<path d="M204.418 103.96C200.901 104.488 202.221 111.502 205.474 110.984C208.727 110.465 207.36 103.516 204.418 103.96Z" fill="#263238"/>
<path d="M203.042 104.742C202.561 105.214 202.146 105.987 201.496 106.156C200.845 106.326 200.034 105.704 199.412 105.072C199.346 105.006 199.299 105.072 199.318 105.166C199.525 106.505 200.261 107.816 201.562 107.835C202.863 107.854 203.448 106.534 203.448 105.148C203.504 104.846 203.24 104.506 203.042 104.742Z" fill="#263238"/>
<path d="M223.095 122.279C222.718 122.911 222.398 123.731 221.644 124.005C220.848 124.203 220.019 124.232 219.211 124.089C219.195 124.088 219.179 124.091 219.165 124.1C219.152 124.108 219.141 124.12 219.135 124.135C219.128 124.149 219.127 124.166 219.13 124.181C219.134 124.197 219.142 124.211 219.154 124.221C219.57 124.559 220.069 124.777 220.599 124.852C221.129 124.927 221.67 124.855 222.162 124.646C222.565 124.417 222.891 124.073 223.097 123.658C223.304 123.243 223.382 122.776 223.322 122.317C223.322 122.185 223.152 122.185 223.095 122.279Z" fill="#263238"/>
<path d="M212.461 116.377C212.461 116.377 212.688 119.686 213.008 121.204C213.008 121.346 213.414 121.336 213.951 121.204C213.951 121.204 213.951 121.204 214.008 121.204C215.36 121.169 216.677 120.762 217.815 120.029C218.952 119.296 219.866 118.264 220.457 117.046C220.471 117.011 220.472 116.971 220.459 116.935C220.447 116.899 220.422 116.868 220.389 116.849C220.356 116.829 220.317 116.822 220.279 116.829C220.241 116.836 220.207 116.856 220.183 116.886C218.523 118.611 216.351 119.755 213.989 120.148C213.791 119.752 213.791 114.491 213.546 114.491C212.389 114.841 211.286 115.345 210.265 115.99C209.586 109.108 210.019 102.178 209.246 95.3325C209.246 95.2775 209.224 95.2248 209.186 95.1859C209.147 95.147 209.094 95.1251 209.039 95.1251C208.984 95.1251 208.931 95.147 208.892 95.1859C208.853 95.2248 208.831 95.2775 208.831 95.3325C207.889 102.574 208.464 110.512 208.973 117.631C209.02 118.555 211.905 116.754 212.461 116.377Z" fill="#263238"/>
<path d="M245.507 66.849C246.601 69.3853 261.168 71.1296 267.58 61.2957C273.897 51.6032 265.534 39.6762 253.946 45.3615C246.62 48.9632 243.197 61.4748 245.507 66.849Z" fill="#263238"/>
<path d="M267.777 47.9733C265.293 45.2801 261.969 43.5085 258.349 42.9479C256.663 42.6515 254.928 42.8039 253.32 43.3897C251.711 43.9756 250.285 44.9743 249.184 46.2856C246.865 48.8973 245.667 52.4141 245.026 55.9592C244.728 57.7599 244.596 59.5841 244.63 61.4089C244.583 63.261 244.88 65.1058 245.507 66.8491C244.498 65.2219 243.854 63.3945 243.621 61.4938C243.329 59.5815 243.266 57.6413 243.433 55.7141C243.67 51.7618 245.134 47.9817 247.619 44.8996C248.933 43.327 250.666 42.1579 252.616 41.5273C254.566 40.8967 256.655 40.8303 258.641 41.3357C260.535 41.763 262.322 42.572 263.893 43.7133C265.464 44.8545 266.785 46.3041 267.777 47.9733Z" fill="#263238"/>
<path d="M252.654 102.432C246.997 104.761 241.868 91.7309 241.868 91.7309C241.868 91.7309 215.751 94.2389 208.142 74.4768C208.142 74.4768 207.36 88.6195 195.885 97.9915C195.885 97.9915 190.737 75.4574 207.2 66.3589C207.2 66.3589 226.999 52.4613 243.971 66.538C260.942 80.6148 256.454 100.877 252.654 102.432Z" fill="#263238"/>
<path d="M207.605 72.9966C208.16 76.2148 209.394 79.2778 211.225 81.9819C213.032 84.7485 215.391 87.1112 218.155 88.9213C218.844 89.3716 219.559 89.7809 220.296 90.147L221.38 90.741C221.757 90.9012 222.144 91.0427 222.53 91.1935C223.303 91.4764 224.058 91.7969 224.84 92.0421C225.623 92.2872 226.434 92.4287 227.226 92.6078C227.631 92.6927 228.027 92.7964 228.423 92.8624L229.639 92.9944L232.062 93.2489C233.684 93.2489 235.306 93.1924 236.909 93.0981C235.306 92.8529 233.703 92.7869 232.138 92.5324L229.79 92.0798L228.63 91.8629C228.244 91.7592 227.876 91.6272 227.499 91.5141C226.745 91.269 225.99 91.0427 225.236 90.8258C224.482 90.609 223.794 90.213 223.077 89.883L221.993 89.421L220.974 88.8553C220.28 88.4947 219.606 88.0949 218.957 87.6578C216.337 85.9425 214.031 83.7897 212.14 81.2936C211.175 80.0432 210.314 78.7156 209.566 77.3242C208.789 75.9409 208.133 74.4929 207.605 72.9966Z" fill="#263238"/>
<path d="M254.314 81.0861L256.935 83.3301L250.496 94.2106L244.744 89.0909L254.314 81.0861ZM249.892 90.986L254.606 84.0184L254.003 83.4809L247.846 89.2229L249.892 90.986Z" fill="#F29F05"/>
<path d="M251.777 76.221L253.352 79.2853L243.292 86.9318L239.888 80.0207L251.777 76.221ZM243.942 83.7638L250.91 79.0496L250.561 78.3236L242.698 81.3218L243.942 83.7638Z" fill="#F29F05"/>
<path d="M249.487 104.158C249.487 104.158 254.201 92.7775 259.198 94.2389C264.195 95.7003 262.206 111.135 257.397 114.256C256.807 114.698 256.134 115.016 255.418 115.191C254.702 115.366 253.957 115.395 253.23 115.275C252.502 115.155 251.807 114.89 251.184 114.494C250.562 114.098 250.026 113.581 249.609 112.973L249.487 104.158Z" fill="#AD6359"/>
<path d="M258.519 98.6513C258.604 98.6513 258.642 98.7362 258.576 98.7833C255.228 101.093 254.05 104.931 253.484 108.768C254.276 107.165 255.596 106.09 257.708 106.986C257.821 107.033 257.765 107.203 257.652 107.203C256.959 107.145 256.266 107.301 255.666 107.65C255.065 107.999 254.587 108.524 254.295 109.155C253.819 110.216 253.458 111.325 253.22 112.464C253.116 112.832 252.485 112.785 252.522 112.379C252.522 112.379 252.522 112.313 252.522 112.285C251.391 107.618 253.578 100.245 258.519 98.6513Z" fill="#263238"/>
</g>
<defs>
<clipPath id="clip0_1812_11476">
<rect width="375" height="312" fill="white"/>
</clipPath>
</defs>
</svg>
