<svg width="19" height="19" viewBox="0 0 19 19" fill="none" xmlns="http://www.w3.org/2000/svg">
<path d="M13.7057 11.4302C14.4481 12.3721 15.0788 13.2893 15.4741 14.3531C15.7482 15.0906 15.5743 15.6571 14.9785 16.1765C12.1297 18.6597 6.67696 18.6581 3.82652 16.1709C3.18055 15.6072 3.11346 14.9763 3.40001 14.2248C3.89778 12.9192 4.72793 11.8206 5.63111 10.7934C6.51049 9.79333 7.51031 8.89972 8.44736 7.9496C9.08874 7.29928 9.66341 7.21968 10.358 7.93896C11.4601 9.08024 12.6468 10.1398 13.7057 11.4302Z" fill="white" fill-opacity="0.87"/>
<path d="M5.44194 7.31689C4.05936 9.50815 2.52769 11.5489 2.37611 14.1845C1.93823 14.2826 1.8464 13.9553 1.7036 13.728C-0.226033 10.6563 0.135267 6.08963 2.48471 3.29812C3.04703 2.63 3.63317 2.50599 4.38071 2.89903C5.2528 3.35755 5.97069 4.01228 6.6902 4.66918C7.03749 4.98625 6.97321 5.27214 6.71276 5.60543C6.29132 6.14471 5.89519 6.70376 5.44194 7.31689Z" fill="white" fill-opacity="0.87"/>
<path d="M15.9176 2.90718C19.1774 6.0916 18.8765 12.0733 16.5711 14.27C16.0523 10.9603 14.1537 8.38889 12.2701 5.81619C11.881 5.28483 11.828 4.882 12.3587 4.43142C13.0473 3.8467 13.7318 3.2615 14.5502 2.86173C14.9824 2.6506 15.4208 2.47802 15.9176 2.90718Z" fill="white" fill-opacity="0.87"/>
<path d="M8.86819 2.6585C7.65465 2.0146 6.42617 1.66872 5.12073 1.44074C6.54099 -0.280749 11.9767 -0.339895 13.7869 1.45447C12.2932 1.65106 10.9595 2.12268 9.67485 2.73904C9.42958 2.85671 9.18248 2.80513 8.86819 2.6585Z" fill="white" fill-opacity="0.87"/>
</svg>
